0
SECTION
2
HEADER
9
$ACADVER
1
AC1009
9
$DWGCODEPAGE
3
ANSI_1250
9
$EXTMAX
10
1260
20
891
9
$EXTMIN
10
0
20
0
9
$INSBASE
10
0.0
20
0.0
30
0.0
9
$LIMMAX
10
1260.0
20
891.0
9
$LIMMIN
10
0.0
20
0.0
9
$INSUNITS
70
4
9
$LUNITS
70
2
9
$LUPREC
70
4
9
$MEASUREMENT
70
1
0
ENDSEC
0
SECTION
2
TABLES
0
TABLE
2
APPID
70
1
0
APPID
2
CADE
70
0
0
ENDTAB
0
TABLE
2
DIMSTYLE
70
0
0
ENDTAB
0
TABLE
2
LTYPE
70
3
0
LTYPE
2
ByLayer
70
0
3
ByLayer
72
65
73
0
40
0
0
LTYPE
2
ByBlock
70
0
3
ByBlock
72
65
73
0
40
0
0
LTYPE
2
Continuous
70
0
3
Solid line
72
65
73
0
40
0
0
ENDTAB
0
TABLE
2
LAYER
70
6
0
LAYER
2
FRAME
70
0
62
8
6
Continuous
0
LAYER
2
GRID
70
0
62
9
6
Continuous
0
LAYER
2
TABLE
70
0
62
8
6
Continuous
0
LAYER
2
IO
70
0
62
6
6
Continuous
0
LAYER
2
WIRES
70
0
62
7
6
Continuous
0
LAYER
2
ELEMENTS
70
0
62
5
6
Continuous
0
ENDTAB
0
TABLE
2
STYLE
70
8
0
STYLE
2
Standard
70
0
40
0
41
1
50
0
71
0
42
1
3
arial.ttf
4

0
STYLE
2
TextFrameHeaderSmall
70
0
40
0
41
1
50
0
71
0
42
1
3
arial.ttf
4

0
STYLE
2
TextFrameHeaderLarge
70
0
40
0
41
1
50
0
71
0
42
1
3
arial.ttf
4

0
STYLE
2
TextFrameNumber
70
0
40
0
41
1
50
0
71
0
42
1
3
arial.ttf
4

0
STYLE
2
TextTableHeader
70
0
40
0
41
1
50
0
71
0
42
1
3
arial.ttf
4

0
STYLE
2
TextTableTag
70
0
40
0
41
1
50
0
71
0
42
1
3
arial.ttf
4

0
STYLE
2
TextElementGate
70
0
40
0
41
1
50
0
71
0
42
1
3
arial.ttf
4

0
STYLE
2
TextElementIO
70
0
40
0
41
1
50
0
71
0
42
1
3
arial.ttf
4

0
ENDTAB
0
TABLE
2
UCS
70
0
0
ENDTAB
0
TABLE
2
VIEW
70
1
0
VIEW
2
DIAGRAM
70
0
40
891
41
1260
10
630
20
445.5
11
0
21
0
31
1
12
0
22
0
32
0
43
0
44
0
50
0
0
ENDTAB
0
TABLE
2
VPORT
70
0
0
ENDTAB
0
ENDSEC
0
SECTION
2
BLOCKS
0
BLOCK
8
FRAME
2
FRAME
70
0
10
0
20
0
30
0
3
FRAME
0
LINE
8
FRAME
62
256
39
0
10
330
20
-35
30
0
11
930
21
-35
31
0
210
0
220
0
230
1
0
LINE
8
FRAME
62
256
39
0
10
930
20
-785
30
0
11
330
21
-785
31
0
210
0
220
0
230
1
0
LINE
8
FRAME
62
256
39
0
10
330
20
-785
30
0
11
330
21
-15
31
0
210
0
220
0
230
1
0
LINE
8
FRAME
62
256
39
0
10
930
20
-15
30
0
11
930
21
-785
31
0
210
0
220
0
230
1
0
LINE
8
FRAME
62
256
39
0
10
15
20
-15
30
0
11
1245
21
-15
31
0
210
0
220
0
230
1
0
LINE
8
FRAME
62
256
39
0
10
1245
20
-816
30
0
11
15
21
-816
31
0
210
0
220
0
230
1
0
LINE
8
FRAME
62
256
39
0
10
15
20
-876
30
0
11
1245
21
-876
31
0
210
0
220
0
230
1
0
LINE
8
FRAME
62
256
39
0
10
1245
20
-876
30
0
11
1245
21
-15
31
0
210
0
220
0
230
1
0
LINE
8
FRAME
62
256
39
0
10
15
20
-15
30
0
11
15
21
-876
31
0
210
0
220
0
230
1
0
LINE
8
FRAME
62
256
39
0
10
1
20
-1
30
0
11
1259
21
-1
31
0
210
0
220
0
230
1
0
LINE
8
FRAME
62
256
39
0
10
1259
20
-890
30
0
11
1
21
-890
31
0
210
0
220
0
230
1
0
LINE
8
FRAME
62
256
39
0
10
1
20
-890
30
0
11
1
21
-1
31
0
210
0
220
0
230
1
0
LINE
8
FRAME
62
256
39
0
10
1259
20
-1
30
0
11
1259
21
-890
31
0
210
0
220
0
230
1
0
LINE
8
FRAME
62
256
39
0
10
45
20
-35
30
0
11
45
21
-785
31
0
210
0
220
0
230
1
0
LINE
8
FRAME
62
256
39
0
10
255
20
-785
30
0
11
255
21
-35
31
0
210
0
220
0
230
1
0
LINE
8
FRAME
62
256
39
0
10
330
20
-35
30
0
11
15
21
-35
31
0
210
0
220
0
230
1
0
LINE
8
FRAME
62
256
39
0
10
15
20
-785
30
0
11
330
21
-785
31
0
210
0
220
0
230
1
0
LINE
8
FRAME
62
256
39
0
10
15
20
-65
30
0
11
330
21
-65
31
0
210
0
220
0
230
1
0
LINE
8
FRAME
62
256
39
0
10
15
20
-95
30
0
11
330
21
-95
31
0
210
0
220
0
230
1
0
LINE
8
FRAME
62
256
39
0
10
15
20
-125
30
0
11
330
21
-125
31
0
210
0
220
0
230
1
0
LINE
8
FRAME
62
256
39
0
10
15
20
-155
30
0
11
330
21
-155
31
0
210
0
220
0
230
1
0
LINE
8
FRAME
62
256
39
0
10
15
20
-185
30
0
11
330
21
-185
31
0
210
0
220
0
230
1
0
LINE
8
FRAME
62
256
39
0
10
15
20
-215
30
0
11
330
21
-215
31
0
210
0
220
0
230
1
0
LINE
8
FRAME
62
256
39
0
10
15
20
-245
30
0
11
330
21
-245
31
0
210
0
220
0
230
1
0
LINE
8
FRAME
62
256
39
0
10
15
20
-275
30
0
11
330
21
-275
31
0
210
0
220
0
230
1
0
LINE
8
FRAME
62
256
39
0
10
15
20
-305
30
0
11
330
21
-305
31
0
210
0
220
0
230
1
0
LINE
8
FRAME
62
256
39
0
10
15
20
-335
30
0
11
330
21
-335
31
0
210
0
220
0
230
1
0
LINE
8
FRAME
62
256
39
0
10
15
20
-365
30
0
11
330
21
-365
31
0
210
0
220
0
230
1
0
LINE
8
FRAME
62
256
39
0
10
15
20
-395
30
0
11
330
21
-395
31
0
210
0
220
0
230
1
0
LINE
8
FRAME
62
256
39
0
10
15
20
-425
30
0
11
330
21
-425
31
0
210
0
220
0
230
1
0
LINE
8
FRAME
62
256
39
0
10
15
20
-455
30
0
11
330
21
-455
31
0
210
0
220
0
230
1
0
LINE
8
FRAME
62
256
39
0
10
15
20
-485
30
0
11
330
21
-485
31
0
210
0
220
0
230
1
0
LINE
8
FRAME
62
256
39
0
10
15
20
-515
30
0
11
330
21
-515
31
0
210
0
220
0
230
1
0
LINE
8
FRAME
62
256
39
0
10
15
20
-545
30
0
11
330
21
-545
31
0
210
0
220
0
230
1
0
LINE
8
FRAME
62
256
39
0
10
15
20
-575
30
0
11
330
21
-575
31
0
210
0
220
0
230
1
0
LINE
8
FRAME
62
256
39
0
10
15
20
-605
30
0
11
330
21
-605
31
0
210
0
220
0
230
1
0
LINE
8
FRAME
62
256
39
0
10
15
20
-635
30
0
11
330
21
-635
31
0
210
0
220
0
230
1
0
LINE
8
FRAME
62
256
39
0
10
15
20
-665
30
0
11
330
21
-665
31
0
210
0
220
0
230
1
0
LINE
8
FRAME
62
256
39
0
10
15
20
-695
30
0
11
330
21
-695
31
0
210
0
220
0
230
1
0
LINE
8
FRAME
62
256
39
0
10
15
20
-725
30
0
11
330
21
-725
31
0
210
0
220
0
230
1
0
LINE
8
FRAME
62
256
39
0
10
15
20
-755
30
0
11
330
21
-755
31
0
210
0
220
0
230
1
0
LINE
8
FRAME
62
256
39
0
10
1140
20
-35
30
0
11
1140
21
-785
31
0
210
0
220
0
230
1
0
LINE
8
FRAME
62
256
39
0
10
1215
20
-785
30
0
11
1215
21
-35
31
0
210
0
220
0
230
1
0
LINE
8
FRAME
62
256
39
0
10
1245
20
-35
30
0
11
930
21
-35
31
0
210
0
220
0
230
1
0
LINE
8
FRAME
62
256
39
0
10
930
20
-785
30
0
11
1245
21
-785
31
0
210
0
220
0
230
1
0
LINE
8
FRAME
62
256
39
0
10
930
20
-65
30
0
11
1245
21
-65
31
0
210
0
220
0
230
1
0
LINE
8
FRAME
62
256
39
0
10
930
20
-95
30
0
11
1245
21
-95
31
0
210
0
220
0
230
1
0
LINE
8
FRAME
62
256
39
0
10
930
20
-125
30
0
11
1245
21
-125
31
0
210
0
220
0
230
1
0
LINE
8
FRAME
62
256
39
0
10
930
20
-155
30
0
11
1245
21
-155
31
0
210
0
220
0
230
1
0
LINE
8
FRAME
62
256
39
0
10
930
20
-185
30
0
11
1245
21
-185
31
0
210
0
220
0
230
1
0
LINE
8
FRAME
62
256
39
0
10
930
20
-215
30
0
11
1245
21
-215
31
0
210
0
220
0
230
1
0
LINE
8
FRAME
62
256
39
0
10
930
20
-245
30
0
11
1245
21
-245
31
0
210
0
220
0
230
1
0
LINE
8
FRAME
62
256
39
0
10
930
20
-275
30
0
11
1245
21
-275
31
0
210
0
220
0
230
1
0
LINE
8
FRAME
62
256
39
0
10
930
20
-305
30
0
11
1245
21
-305
31
0
210
0
220
0
230
1
0
LINE
8
FRAME
62
256
39
0
10
930
20
-335
30
0
11
1245
21
-335
31
0
210
0
220
0
230
1
0
LINE
8
FRAME
62
256
39
0
10
930
20
-365
30
0
11
1245
21
-365
31
0
210
0
220
0
230
1
0
LINE
8
FRAME
62
256
39
0
10
930
20
-395
30
0
11
1245
21
-395
31
0
210
0
220
0
230
1
0
LINE
8
FRAME
62
256
39
0
10
930
20
-425
30
0
11
1245
21
-425
31
0
210
0
220
0
230
1
0
LINE
8
FRAME
62
256
39
0
10
930
20
-455
30
0
11
1245
21
-455
31
0
210
0
220
0
230
1
0
LINE
8
FRAME
62
256
39
0
10
930
20
-485
30
0
11
1245
21
-485
31
0
210
0
220
0
230
1
0
LINE
8
FRAME
62
256
39
0
10
930
20
-515
30
0
11
1245
21
-515
31
0
210
0
220
0
230
1
0
LINE
8
FRAME
62
256
39
0
10
930
20
-545
30
0
11
1245
21
-545
31
0
210
0
220
0
230
1
0
LINE
8
FRAME
62
256
39
0
10
930
20
-575
30
0
11
1245
21
-575
31
0
210
0
220
0
230
1
0
LINE
8
FRAME
62
256
39
0
10
930
20
-605
30
0
11
1245
21
-605
31
0
210
0
220
0
230
1
0
LINE
8
FRAME
62
256
39
0
10
930
20
-635
30
0
11
1245
21
-635
31
0
210
0
220
0
230
1
0
LINE
8
FRAME
62
256
39
0
10
930
20
-665
30
0
11
1245
21
-665
31
0
210
0
220
0
230
1
0
LINE
8
FRAME
62
256
39
0
10
930
20
-695
30
0
11
1245
21
-695
31
0
210
0
220
0
230
1
0
LINE
8
FRAME
62
256
39
0
10
930
20
-725
30
0
11
1245
21
-725
31
0
210
0
220
0
230
1
0
LINE
8
FRAME
62
256
39
0
10
930
20
-755
30
0
11
1245
21
-755
31
0
210
0
220
0
230
1
0
ENDBLK
0
BLOCK
8
TABLE
2
TABLE
70
2
10
0
20
0
30
0
3
TABLE
0
LINE
8
TABLE
62
256
39
0
10
0
20
-15
30
0
11
175
21
-15
31
0
210
0
220
0
230
1
0
LINE
8
TABLE
62
256
39
0
10
405
20
-15
30
0
11
1230
21
-15
31
0
210
0
220
0
230
1
0
LINE
8
TABLE
62
256
39
0
10
1230
20
-30
30
0
11
965
21
-30
31
0
210
0
220
0
230
1
0
LINE
8
TABLE
62
256
39
0
10
695
20
-30
30
0
11
405
21
-30
31
0
210
0
220
0
230
1
0
LINE
8
TABLE
62
256
39
0
10
175
20
-30
30
0
11
0
21
-30
31
0
210
0
220
0
230
1
0
LINE
8
TABLE
62
256
39
0
10
0
20
-45
30
0
11
175
21
-45
31
0
210
0
220
0
230
1
0
LINE
8
TABLE
62
256
39
0
10
405
20
-45
30
0
11
695
21
-45
31
0
210
0
220
0
230
1
0
LINE
8
TABLE
62
256
39
0
10
965
20
-45
30
0
11
1230
21
-45
31
0
210
0
220
0
230
1
0
LINE
8
TABLE
62
256
39
0
10
30
20
0
30
0
11
30
21
-60
31
0
210
0
220
0
230
1
0
LINE
8
TABLE
62
256
39
0
10
75
20
0
30
0
11
75
21
-60
31
0
210
0
220
0
230
1
0
LINE
8
TABLE
62
256
39
0
10
175
20
-60
30
0
11
175
21
0
31
0
210
0
220
0
230
1
0
LINE
8
TABLE
62
256
39
0
10
290
20
0
30
0
11
290
21
-60
31
0
210
0
220
0
230
1
0
LINE
8
TABLE
62
256
39
0
10
405
20
-60
30
0
11
405
21
0
31
0
210
0
220
0
230
1
0
LINE
8
TABLE
62
256
39
0
10
465
20
0
30
0
11
465
21
-60
31
0
210
0
220
0
230
1
0
LINE
8
TABLE
62
256
39
0
10
595
20
-60
30
0
11
595
21
0
31
0
210
0
220
0
230
1
0
LINE
8
TABLE
62
256
39
0
10
640
20
0
30
0
11
640
21
-60
31
0
210
0
220
0
230
1
0
LINE
8
TABLE
62
256
39
0
10
695
20
-60
30
0
11
695
21
0
31
0
210
0
220
0
230
1
0
LINE
8
TABLE
62
256
39
0
10
965
20
0
30
0
11
965
21
-60
31
0
210
0
220
0
230
1
0
LINE
8
TABLE
62
256
39
0
10
1005
20
-60
30
0
11
1005
21
0
31
0
210
0
220
0
230
1
0
LINE
8
TABLE
62
256
39
0
10
1045
20
0
30
0
11
1045
21
-60
31
0
210
0
220
0
230
1
0
LINE
8
TABLE
62
256
39
0
10
1100
20
-60
30
0
11
1100
21
0
31
0
210
0
220
0
230
1
0
ATTDEF
8
TABLE
62
256
39
0
10
0
20
0
30
0
40
6
1
ID
50
0
41
1
51
0
7
TextTableTag
71
0
72
0
11
0
21
0
31
0
210
0
220
0
230
1
3
ID
2
ID
70
1
73
0
74
2
0
ATTDEF
8
TABLE
62
256
39
0
10
0
20
0
30
0
40
6
1
TABLEID
50
0
41
1
51
0
7
TextTableTag
71
0
72
0
11
0
21
0
31
0
210
0
220
0
230
1
3
TABLEID
2
TABLEID
70
1
73
0
74
2
0
ATTDEF
8
TABLE
62
256
39
0
10
0
20
0
30
0
40
6
1

50
0
41
1
51
0
7
TextTableTag
71
0
72
0
11
0
21
0
31
0
210
0
220
0
230
1
3
REVISION1_VERSION
2
REVISION1_VERSION
70
0
73
0
74
2
0
ATTDEF
8
TABLE
62
256
39
0
10
0
20
0
30
0
40
6
1

50
0
41
1
51
0
7
TextTableTag
71
0
72
0
11
0
21
0
31
0
210
0
220
0
230
1
3
REVISION2_VERSION
2
REVISION2_VERSION
70
0
73
0
74
2
0
ATTDEF
8
TABLE
62
256
39
0
10
0
20
0
30
0
40
6
1

50
0
41
1
51
0
7
TextTableTag
71
0
72
0
11
0
21
0
31
0
210
0
220
0
230
1
3
REVISION3_VERSION
2
REVISION3_VERSION
70
0
73
0
74
2
0
ATTDEF
8
TABLE
62
256
39
0
10
0
20
0
30
0
40
6
1

50
0
41
1
51
0
7
TextTableTag
71
0
72
0
11
0
21
0
31
0
210
0
220
0
230
1
3
REVISION1_DATE
2
REVISION1_DATE
70
0
73
0
74
2
0
ATTDEF
8
TABLE
62
256
39
0
10
0
20
0
30
0
40
6
1

50
0
41
1
51
0
7
TextTableTag
71
0
72
0
11
0
21
0
31
0
210
0
220
0
230
1
3
REVISION2_DATE
2
REVISION2_DATE
70
0
73
0
74
2
0
ATTDEF
8
TABLE
62
256
39
0
10
0
20
0
30
0
40
6
1

50
0
41
1
51
0
7
TextTableTag
71
0
72
0
11
0
21
0
31
0
210
0
220
0
230
1
3
REVISION3_DATE
2
REVISION3_DATE
70
0
73
0
74
2
0
ATTDEF
8
TABLE
62
256
39
0
10
0
20
0
30
0
40
6
1

50
0
41
1
51
0
7
TextTableTag
71
0
72
0
11
0
21
0
31
0
210
0
220
0
230
1
3
REVISION1_REMARKS
2
REVISION1_REMARKS
70
0
73
0
74
2
0
ATTDEF
8
TABLE
62
256
39
0
10
0
20
0
30
0
40
6
1

50
0
41
1
51
0
7
TextTableTag
71
0
72
0
11
0
21
0
31
0
210
0
220
0
230
1
3
REVISION2_REMARKS
2
REVISION2_REMARKS
70
0
73
0
74
2
0
ATTDEF
8
TABLE
62
256
39
0
10
0
20
0
30
0
40
6
1

50
0
41
1
51
0
7
TextTableTag
71
0
72
0
11
0
21
0
31
0
210
0
220
0
230
1
3
REVISION3_REMARKS
2
REVISION3_REMARKS
70
0
73
0
74
2
0
ATTDEF
8
TABLE
62
256
39
0
10
0
20
0
30
0
40
6
1

50
0
41
1
51
0
7
TextTableTag
71
0
72
0
11
0
21
0
31
0
210
0
220
0
230
1
3
DRAWN_NAME
2
DRAWN_NAME
70
0
73
0
74
2
0
ATTDEF
8
TABLE
62
256
39
0
10
0
20
0
30
0
40
6
1

50
0
41
1
51
0
7
TextTableTag
71
0
72
0
11
0
21
0
31
0
210
0
220
0
230
1
3
CHECKED_NAME
2
CHECKED_NAME
70
0
73
0
74
2
0
ATTDEF
8
TABLE
62
256
39
0
10
0
20
0
30
0
40
6
1

50
0
41
1
51
0
7
TextTableTag
71
0
72
0
11
0
21
0
31
0
210
0
220
0
230
1
3
APPROVED_NAME
2
APPROVED_NAME
70
0
73
0
74
2
0
ATTDEF
8
TABLE
62
256
39
0
10
0
20
0
30
0
40
6
1

50
0
41
1
51
0
7
TextTableTag
71
0
72
0
11
0
21
0
31
0
210
0
220
0
230
1
3
DRAWN_DATE
2
DRAWN_DATE
70
0
73
0
74
2
0
ATTDEF
8
TABLE
62
256
39
0
10
0
20
0
30
0
40
6
1

50
0
41
1
51
0
7
TextTableTag
71
0
72
0
11
0
21
0
31
0
210
0
220
0
230
1
3
CHECKED_DATE
2
CHECKED_DATE
70
0
73
0
74
2
0
ATTDEF
8
TABLE
62
256
39
0
10
0
20
0
30
0
40
6
1

50
0
41
1
51
0
7
TextTableTag
71
0
72
0
11
0
21
0
31
0
210
0
220
0
230
1
3
APPROVED_DATE
2
APPROVED_DATE
70
0
73
0
74
2
0
ATTDEF
8
TABLE
62
256
39
0
10
0
20
0
30
0
40
6
1

50
0
41
1
51
0
7
TextTableTag
71
0
72
0
11
0
21
0
31
0
210
0
220
0
230
1
3
TITLE
2
TITLE
70
0
73
0
74
2
0
ATTDEF
8
TABLE
62
256
39
0
10
0
20
0
30
0
40
6
1

50
0
41
1
51
0
7
TextTableTag
71
0
72
0
11
0
21
0
31
0
210
0
220
0
230
1
3
SUBTITLE1
2
SUBTITLE1
70
0
73
0
74
2
0
ATTDEF
8
TABLE
62
256
39
0
10
0
20
0
30
0
40
6
1

50
0
41
1
51
0
7
TextTableTag
71
0
72
0
11
0
21
0
31
0
210
0
220
0
230
1
3
SUBTITLE2
2
SUBTITLE2
70
0
73
0
74
2
0
ATTDEF
8
TABLE
62
256
39
0
10
0
20
0
30
0
40
6
1

50
0
41
1
51
0
7
TextTableTag
71
0
72
0
11
0
21
0
31
0
210
0
220
0
230
1
3
SUBTITLE3
2
SUBTITLE3
70
0
73
0
74
2
0
ATTDEF
8
TABLE
62
256
39
0
10
0
20
0
30
0
40
6
1

50
0
41
1
51
0
7
TextTableTag
71
0
72
0
11
0
21
0
31
0
210
0
220
0
230
1
3
REV
2
REV
70
0
73
0
74
2
0
ATTDEF
8
TABLE
62
256
39
0
10
0
20
0
30
0
40
6
1

50
0
41
1
51
0
7
TextTableTag
71
0
72
0
11
0
21
0
31
0
210
0
220
0
230
1
3
STATUS
2
STATUS
70
0
73
0
74
2
0
ATTDEF
8
TABLE
62
256
39
0
10
0
20
0
30
0
40
6
1

50
0
41
1
51
0
7
TextTableTag
71
0
72
0
11
0
21
0
31
0
210
0
220
0
230
1
3
PAGE
2
PAGE
70
0
73
0
74
2
0
ATTDEF
8
TABLE
62
256
39
0
10
0
20
0
30
0
40
6
1

50
0
41
1
51
0
7
TextTableTag
71
0
72
0
11
0
21
0
31
0
210
0
220
0
230
1
3
PAGES
2
PAGES
70
0
73
0
74
2
0
ATTDEF
8
TABLE
62
256
39
0
10
0
20
0
30
0
40
6
1

50
0
41
1
51
0
7
TextTableTag
71
0
72
0
11
0
21
0
31
0
210
0
220
0
230
1
3
PROJECT
2
PROJECT
70
0
73
0
74
2
0
ATTDEF
8
TABLE
62
256
39
0
10
0
20
0
30
0
40
6
1

50
0
41
1
51
0
7
TextTableTag
71
0
72
0
11
0
21
0
31
0
210
0
220
0
230
1
3
ORDER_NO
2
ORDER_NO
70
0
73
0
74
2
0
ATTDEF
8
TABLE
62
256
39
0
10
0
20
0
30
0
40
6
1

50
0
41
1
51
0
7
TextTableTag
71
0
72
0
11
0
21
0
31
0
210
0
220
0
230
1
3
DOCUMENT_NO
2
DOCUMENT_NO
70
0
73
0
74
2
0
ATTDEF
8
TABLE
62
256
39
0
10
0
20
0
30
0
40
6
1

50
0
41
1
51
0
7
TextTableTag
71
0
72
0
11
0
21
0
31
0
210
0
220
0
230
1
3
ARCHIVE_NO
2
ARCHIVE_NO
70
0
73
0
74
2
0
ENDBLK
0
BLOCK
8
GRID
2
GRID
70
0
10
0
20
0
30
0
3
GRID
0
ENDBLK
0
BLOCK
8
IO
2
INPUT
70
2
10
0
20
0
30
0
3
INPUT
0
LINE
8
IO
62
256
39
0
10
0
20
0
30
0
11
285
21
0
31
0
210
0
220
0
230
1
0
LINE
8
IO
62
256
39
0
10
285
20
-30
30
0
11
0
21
-30
31
0
210
0
220
0
230
1
0
LINE
8
IO
62
256
39
0
10
0
20
-30
30
0
11
0
21
0
31
0
210
0
220
0
230
1
0
LINE
8
IO
62
256
39
0
10
210
20
0
30
0
11
210
21
-30
31
0
210
0
220
0
230
1
0
LINE
8
IO
62
256
39
0
10
285
20
-30
30
0
11
285
21
0
31
0
210
0
220
0
230
1
0
ATTDEF
8
IO
62
256
39
0
10
288
20
-30
30
0
40
6
1
ID
50
0
41
1
51
0
7
TextElementIO
71
0
72
0
11
288
21
-30
31
0
210
0
220
0
230
1
3
ID
2
ID
70
1
73
0
74
2
0
ATTDEF
8
IO
62
256
39
0
10
288
20
0
30
0
40
6
1
TAGID
50
0
41
1
51
0
7
TextElementIO
71
0
72
0
11
288
21
0
31
0
210
0
220
0
230
1
3
TAGID
2
TAGID
70
1
73
0
74
2
0
ATTDEF
8
IO
62
256
39
0
10
3
20
-7.5
30
0
40
6
1
DESIGNATION
50
0
41
1
51
0
7
TextElementIO
71
0
72
0
11
3
21
-7.5
31
0
210
0
220
0
230
1
3
DESIGNATION
2
DESIGNATION
70
0
73
0
74
2
0
ATTDEF
8
IO
62
256
39
0
10
3
20
-22.5
30
0
40
6
1
DESCRIPTION
50
0
41
1
51
0
7
TextElementIO
71
0
72
0
11
3
21
-22.5
31
0
210
0
220
0
230
1
3
DESCRIPTION
2
DESCRIPTION
70
0
73
0
74
2
0
ATTDEF
8
IO
62
256
39
0
10
213
20
-7.5
30
0
40
6
1
SIGNAL
50
0
41
1
51
0
7
TextElementIO
71
0
72
0
11
213
21
-7.5
31
0
210
0
220
0
230
1
3
SIGNAL
2
SIGNAL
70
0
73
0
74
2
0
ATTDEF
8
IO
62
256
39
0
10
213
20
-22.5
30
0
40
6
1
CONDITION
50
0
41
1
51
0
7
TextElementIO
71
0
72
0
11
213
21
-22.5
31
0
210
0
220
0
230
1
3
CONDITION
2
CONDITION
70
0
73
0
74
2
0
ENDBLK
0
BLOCK
8
IO
2
OUTPUT
70
2
10
0
20
0
30
0
3
OUTPUT
0
LINE
8
IO
62
256
39
0
10
0
20
0
30
0
11
285
21
0
31
0
210
0
220
0
230
1
0
LINE
8
IO
62
256
39
0
10
285
20
-30
30
0
11
0
21
-30
31
0
210
0
220
0
230
1
0
LINE
8
IO
62
256
39
0
10
0
20
-30
30
0
11
0
21
0
31
0
210
0
220
0
230
1
0
LINE
8
IO
62
256
39
0
10
210
20
0
30
0
11
210
21
-30
31
0
210
0
220
0
230
1
0
LINE
8
IO
62
256
39
0
10
285
20
-30
30
0
11
285
21
0
31
0
210
0
220
0
230
1
0
ATTDEF
8
IO
62
256
39
0
10
288
20
-30
30
0
40
6
1
ID
50
0
41
1
51
0
7
TextElementIO
71
0
72
0
11
288
21
-30
31
0
210
0
220
0
230
1
3
ID
2
ID
70
1
73
0
74
2
0
ATTDEF
8
IO
62
256
39
0
10
288
20
0
30
0
40
6
1
TAGID
50
0
41
1
51
0
7
TextElementIO
71
0
72
0
11
288
21
0
31
0
210
0
220
0
230
1
3
TAGID
2
TAGID
70
1
73
0
74
2
0
ATTDEF
8
IO
62
256
39
0
10
3
20
-7.5
30
0
40
6
1
DESIGNATION
50
0
41
1
51
0
7
TextElementIO
71
0
72
0
11
3
21
-7.5
31
0
210
0
220
0
230
1
3
DESIGNATION
2
DESIGNATION
70
0
73
0
74
2
0
ATTDEF
8
IO
62
256
39
0
10
3
20
-22.5
30
0
40
6
1
DESCRIPTION
50
0
41
1
51
0
7
TextElementIO
71
0
72
0
11
3
21
-22.5
31
0
210
0
220
0
230
1
3
DESCRIPTION
2
DESCRIPTION
70
0
73
0
74
2
0
ATTDEF
8
IO
62
256
39
0
10
213
20
-7.5
30
0
40
6
1
SIGNAL
50
0
41
1
51
0
7
TextElementIO
71
0
72
0
11
213
21
-7.5
31
0
210
0
220
0
230
1
3
SIGNAL
2
SIGNAL
70
0
73
0
74
2
0
ATTDEF
8
IO
62
256
39
0
10
213
20
-22.5
30
0
40
6
1
CONDITION
50
0
41
1
51
0
7
TextElementIO
71
0
72
0
11
213
21
-22.5
31
0
210
0
220
0
230
1
3
CONDITION
2
CONDITION
70
0
73
0
74
2
0
ENDBLK
0
BLOCK
8
ELEMENTS
2
ANDGATE
70
2
10
0
20
0
30
0
3
ANDGATE
0
LINE
8
ELEMENTS
62
256
39
0
10
0
20
0
30
0
11
30
21
0
31
0
210
0
220
0
230
1
0
LINE
8
ELEMENTS
62
256
39
0
10
0
20
-30
30
0
11
30
21
-30
31
0
210
0
220
0
230
1
0
LINE
8
ELEMENTS
62
256
39
0
10
0
20
0
30
0
11
0
21
-30
31
0
210
0
220
0
230
1
0
LINE
8
ELEMENTS
62
256
39
0
10
30
20
0
30
0
11
30
21
-30
31
0
210
0
220
0
230
1
0
ATTDEF
8
ELEMENTS
62
256
39
0
10
30
20
-30
30
0
40
10
1
ID
50
0
41
1
51
0
7
TextElementGate
71
0
72
1
11
30
21
-30
31
0
210
0
220
0
230
1
3
ID
2
ID
70
1
73
0
74
2
0
ATTDEF
8
ELEMENTS
62
256
39
0
10
15
20
-15
30
0
40
10
1
&
50
0
41
1
51
0
7
TextElementGate
71
0
72
1
11
15
21
-15
31
0
210
0
220
0
230
1
3
TEXT
2
TEXT
70
0
73
0
74
2
0
ENDBLK
0
BLOCK
8
ELEMENTS
2
ORGATE
70
2
10
0
20
0
30
0
3
ORGATE
0
LINE
8
ELEMENTS
62
256
39
0
10
0
20
0
30
0
11
30
21
0
31
0
210
0
220
0
230
1
0
LINE
8
ELEMENTS
62
256
39
0
10
0
20
-30
30
0
11
30
21
-30
31
0
210
0
220
0
230
1
0
LINE
8
ELEMENTS
62
256
39
0
10
0
20
0
30
0
11
0
21
-30
31
0
210
0
220
0
230
1
0
LINE
8
ELEMENTS
62
256
39
0
10
30
20
0
30
0
11
30
21
-30
31
0
210
0
220
0
230
1
0
ATTDEF
8
ELEMENTS
62
256
39
0
10
30
20
-30
30
0
40
10
1
ID
50
0
41
1
51
0
7
TextElementGate
71
0
72
1
11
30
21
-30
31
0
210
0
220
0
230
1
3
ID
2
ID
70
1
73
0
74
2
0
ATTDEF
8
ELEMENTS
62
256
39
0
10
15
20
-15
30
0
40
10
1
\U+22651
50
0
41
1
51
0
7
TextElementGate
71
0
72
1
11
15
21
-15
31
0
210
0
220
0
230
1
3
TEXT
2
TEXT
70
0
73
0
74
2
0
ENDBLK
0
ENDSEC
0
SECTION
2
ENTITIES
0
INSERT
2
FRAME
8
FRAME
10
0
20
0
30
0
0
INSERT
2
GRID
8
GRID
10
0
20
866
30
0
0
INSERT
2
TABLE
8
TABLE
10
15
20
-816
30
0
66
1
0
ATTRIB
8
TABLE
39
0
10
0
20
0
30
0
40
6
1
0
50
0
41
1
51
0
7
TextTableTag
71
0
72
0
11
0
21
0
31
0
210
0
220
0
230
1
2
ID
70
1
73
0
74
2
0
ATTRIB
8
TABLE
39
0
10
0
20
0
30
0
40
6
1

50
0
41
1
51
0
7
TextTableTag
71
0
72
0
11
0
21
0
31
0
210
0
220
0
230
1
2
TABLEID
70
1
73
0
74
2
0
ATTRIB
8
TABLE
39
0
10
0
20
0
30
0
40
6
1

50
0
41
1
51
0
7
TextTableTag
71
0
72
0
11
0
21
0
31
0
210
0
220
0
230
1
2
REVISION1_VERSION
70
0
73
0
74
2
0
ATTRIB
8
TABLE
39
0
10
0
20
0
30
0
40
6
1

50
0
41
1
51
0
7
TextTableTag
71
0
72
0
11
0
21
0
31
0
210
0
220
0
230
1
2
REVISION2_VERSION
70
0
73
0
74
2
0
ATTRIB
8
TABLE
39
0
10
0
20
0
30
0
40
6
1

50
0
41
1
51
0
7
TextTableTag
71
0
72
0
11
0
21
0
31
0
210
0
220
0
230
1
2
REVISION3_VERSION
70
0
73
0
74
2
0
ATTRIB
8
TABLE
39
0
10
0
20
0
30
0
40
6
1

50
0
41
1
51
0
7
TextTableTag
71
0
72
0
11
0
21
0
31
0
210
0
220
0
230
1
2
REVISION1_DATE
70
0
73
0
74
2
0
ATTRIB
8
TABLE
39
0
10
0
20
0
30
0
40
6
1

50
0
41
1
51
0
7
TextTableTag
71
0
72
0
11
0
21
0
31
0
210
0
220
0
230
1
2
REVISION2_DATE
70
0
73
0
74
2
0
ATTRIB
8
TABLE
39
0
10
0
20
0
30
0
40
6
1

50
0
41
1
51
0
7
TextTableTag
71
0
72
0
11
0
21
0
31
0
210
0
220
0
230
1
2
REVISION3_DATE
70
0
73
0
74
2
0
ATTRIB
8
TABLE
39
0
10
0
20
0
30
0
40
6
1

50
0
41
1
51
0
7
TextTableTag
71
0
72
0
11
0
21
0
31
0
210
0
220
0
230
1
2
REVISION1_REMARKS
70
0
73
0
74
2
0
ATTRIB
8
TABLE
39
0
10
0
20
0
30
0
40
6
1

50
0
41
1
51
0
7
TextTableTag
71
0
72
0
11
0
21
0
31
0
210
0
220
0
230
1
2
REVISION2_REMARKS
70
0
73
0
74
2
0
ATTRIB
8
TABLE
39
0
10
0
20
0
30
0
40
6
1

50
0
41
1
51
0
7
TextTableTag
71
0
72
0
11
0
21
0
31
0
210
0
220
0
230
1
2
REVISION3_REMARKS
70
0
73
0
74
2
0
ATTRIB
8
TABLE
39
0
10
0
20
0
30
0
40
6
1
user
50
0
41
1
51
0
7
TextTableTag
71
0
72
0
11
0
21
0
31
0
210
0
220
0
230
1
2
DRAWN_NAME
70
0
73
0
74
2
0
ATTRIB
8
TABLE
39
0
10
0
20
0
30
0
40
6
1
user
50
0
41
1
51
0
7
TextTableTag
71
0
72
0
11
0
21
0
31
0
210
0
220
0
230
1
2
CHECKED_NAME
70
0
73
0
74
2
0
ATTRIB
8
TABLE
39
0
10
0
20
0
30
0
40
6
1
user
50
0
41
1
51
0
7
TextTableTag
71
0
72
0
11
0
21
0
31
0
210
0
220
0
230
1
2
APPROVED_NAME
70
0
73
0
74
2
0
ATTRIB
8
TABLE
39
0
10
0
20
0
30
0
40
6
1
2013-08-08
50
0
41
1
51
0
7
TextTableTag
71
0
72
0
11
0
21
0
31
0
210
0
220
0
230
1
2
DRAWN_DATE
70
0
73
0
74
2
0
ATTRIB
8
TABLE
39
0
10
0
20
0
30
0
40
6
1
2013-08-08
50
0
41
1
51
0
7
TextTableTag
71
0
72
0
11
0
21
0
31
0
210
0
220
0
230
1
2
CHECKED_DATE
70
0
73
0
74
2
0
ATTRIB
8
TABLE
39
0
10
0
20
0
30
0
40
6
1
2013-08-08
50
0
41
1
51
0
7
TextTableTag
71
0
72
0
11
0
21
0
31
0
210
0
220
0
230
1
2
APPROVED_DATE
70
0
73
0
74
2
0
ATTRIB
8
TABLE
39
0
10
0
20
0
30
0
40
6
1
LOGIC DIAGRAM
50
0
41
1
51
0
7
TextTableTag
71
0
72
0
11
0
21
0
31
0
210
0
220
0
230
1
2
TITLE
70
0
73
0
74
2
0
ATTRIB
8
TABLE
39
0
10
0
20
0
30
0
40
6
1
DIAGRAM TITLE
50
0
41
1
51
0
7
TextTableTag
71
0
72
0
11
0
21
0
31
0
210
0
220
0
230
1
2
SUBTITLE1
70
0
73
0
74
2
0
ATTRIB
8
TABLE
39
0
10
0
20
0
30
0
40
6
1

50
0
41
1
51
0
7
TextTableTag
71
0
72
0
11
0
21
0
31
0
210
0
220
0
230
1
2
SUBTITLE2
70
0
73
0
74
2
0
ATTRIB
8
TABLE
39
0
10
0
20
0
30
0
40
6
1

50
0
41
1
51
0
7
TextTableTag
71
0
72
0
11
0
21
0
31
0
210
0
220
0
230
1
2
SUBTITLE3
70
0
73
0
74
2
0
ATTRIB
8
TABLE
39
0
10
0
20
0
30
0
40
6
1
0
50
0
41
1
51
0
7
TextTableTag
71
0
72
0
11
0
21
0
31
0
210
0
220
0
230
1
2
REV
70
0
73
0
74
2
0
ATTRIB
8
TABLE
39
0
10
0
20
0
30
0
40
6
1
-
50
0
41
1
51
0
7
TextTableTag
71
0
72
0
11
0
21
0
31
0
210
0
220
0
230
1
2
STATUS
70
0
73
0
74
2
0
ATTRIB
8
TABLE
39
0
10
0
20
0
30
0
40
6
1
-
50
0
41
1
51
0
7
TextTableTag
71
0
72
0
11
0
21
0
31
0
210
0
220
0
230
1
2
PAGE
70
0
73
0
74
2
0
ATTRIB
8
TABLE
39
0
10
0
20
0
30
0
40
6
1
-
50
0
41
1
51
0
7
TextTableTag
71
0
72
0
11
0
21
0
31
0
210
0
220
0
230
1
2
PAGES
70
0
73
0
74
2
0
ATTRIB
8
TABLE
39
0
10
0
20
0
30
0
40
6
1
sample
50
0
41
1
51
0
7
TextTableTag
71
0
72
0
11
0
21
0
31
0
210
0
220
0
230
1
2
PROJECT
70
0
73
0
74
2
0
ATTRIB
8
TABLE
39
0
10
0
20
0
30
0
40
6
1

50
0
41
1
51
0
7
TextTableTag
71
0
72
0
11
0
21
0
31
0
210
0
220
0
230
1
2
ORDER_NO
70
0
73
0
74
2
0
ATTRIB
8
TABLE
39
0
10
0
20
0
30
0
40
6
1

50
0
41
1
51
0
7
TextTableTag
71
0
72
0
11
0
21
0
31
0
210
0
220
0
230
1
2
DOCUMENT_NO
70
0
73
0
74
2
0
ATTRIB
8
TABLE
39
0
10
0
20
0
30
0
40
6
1

50
0
41
1
51
0
7
TextTableTag
71
0
72
0
11
0
21
0
31
0
210
0
220
0
230
1
2
ARCHIVE_NO
70
0
73
0
74
2
0
SEQEND
0
INSERT
2
INPUT
8
IO
10
45
20
-185
30
0
66
1
0
ATTRIB
8
IO
39
0
10
333
20
-215
30
0
40
6
1
0
50
0
41
1
51
0
7
TextElementIO
71
0
72
0
11
333
21
-215
31
0
210
0
220
0
230
1
2
ID
70
1
73
0
74
2
0
ATTRIB
8
IO
39
0
10
333
20
-185
30
0
40
6
1
0
50
0
41
1
51
0
7
TextElementIO
71
0
72
0
11
333
21
-185
31
0
210
0
220
0
230
1
2
TAGID
70
1
73
0
74
2
0
ATTRIB
8
IO
39
0
10
48
20
-192.5
30
0
40
6
1
Designation0
50
0
41
1
51
0
7
TextElementIO
71
0
72
0
11
48
21
-192.5
31
0
210
0
220
0
230
1
2
DESIGNATION
70
0
73
0
74
2
0
ATTRIB
8
IO
39
0
10
48
20
-207.5
30
0
40
6
1
Description0
50
0
41
1
51
0
7
TextElementIO
71
0
72
0
11
48
21
-207.5
31
0
210
0
220
0
230
1
2
DESCRIPTION
70
0
73
0
74
2
0
ATTRIB
8
IO
39
0
10
258
20
-192.5
30
0
40
6
1
Signal0
50
0
41
1
51
0
7
TextElementIO
71
0
72
0
11
258
21
-192.5
31
0
210
0
220
0
230
1
2
SIGNAL
70
0
73
0
74
2
0
ATTRIB
8
IO
39
0
10
258
20
-207.5
30
0
40
6
1
Condition0
50
0
41
1
51
0
7
TextElementIO
71
0
72
0
11
258
21
-207.5
31
0
210
0
220
0
230
1
2
CONDITION
70
0
73
0
74
2
0
SEQEND
0
INSERT
2
INPUT
8
IO
10
45
20
-245
30
0
66
1
0
ATTRIB
8
IO
39
0
10
333
20
-275
30
0
40
6
1
1
50
0
41
1
51
0
7
TextElementIO
71
0
72
0
11
333
21
-275
31
0
210
0
220
0
230
1
2
ID
70
1
73
0
74
2
0
ATTRIB
8
IO
39
0
10
333
20
-245
30
0
40
6
1
1
50
0
41
1
51
0
7
TextElementIO
71
0
72
0
11
333
21
-245
31
0
210
0
220
0
230
1
2
TAGID
70
1
73
0
74
2
0
ATTRIB
8
IO
39
0
10
48
20
-252.5
30
0
40
6
1
Designation1
50
0
41
1
51
0
7
TextElementIO
71
0
72
0
11
48
21
-252.5
31
0
210
0
220
0
230
1
2
DESIGNATION
70
0
73
0
74
2
0
ATTRIB
8
IO
39
0
10
48
20
-267.5
30
0
40
6
1
Description1
50
0
41
1
51
0
7
TextElementIO
71
0
72
0
11
48
21
-267.5
31
0
210
0
220
0
230
1
2
DESCRIPTION
70
0
73
0
74
2
0
ATTRIB
8
IO
39
0
10
258
20
-252.5
30
0
40
6
1
Signal1
50
0
41
1
51
0
7
TextElementIO
71
0
72
0
11
258
21
-252.5
31
0
210
0
220
0
230
1
2
SIGNAL
70
0
73
0
74
2
0
ATTRIB
8
IO
39
0
10
258
20
-267.5
30
0
40
6
1
Condition1
50
0
41
1
51
0
7
TextElementIO
71
0
72
0
11
258
21
-267.5
31
0
210
0
220
0
230
1
2
CONDITION
70
0
73
0
74
2
0
SEQEND
0
INSERT
2
OUTPUT
8
IO
10
930
20
-245
30
0
66
1
0
ATTRIB
8
IO
39
0
10
1218
20
-275
30
0
40
6
1
0
50
0
41
1
51
0
7
TextElementIO
71
0
72
0
11
1218
21
-275
31
0
210
0
220
0
230
1
2
ID
70
1
73
0
74
2
0
ATTRIB
8
IO
39
0
10
1218
20
-245
30
0
40
6
1
2
50
0
41
1
51
0
7
TextElementIO
71
0
72
0
11
1218
21
-245
31
0
210
0
220
0
230
1
2
TAGID
70
1
73
0
74
2
0
ATTRIB
8
IO
39
0
10
933
20
-252.5
30
0
40
6
1
Designation2
50
0
41
1
51
0
7
TextElementIO
71
0
72
0
11
933
21
-252.5
31
0
210
0
220
0
230
1
2
DESIGNATION
70
0
73
0
74
2
0
ATTRIB
8
IO
39
0
10
933
20
-267.5
30
0
40
6
1
Description2
50
0
41
1
51
0
7
TextElementIO
71
0
72
0
11
933
21
-267.5
31
0
210
0
220
0
230
1
2
DESCRIPTION
70
0
73
0
74
2
0
ATTRIB
8
IO
39
0
10
1143
20
-252.5
30
0
40
6
1
Signal2
50
0
41
1
51
0
7
TextElementIO
71
0
72
0
11
1143
21
-252.5
31
0
210
0
220
0
230
1
2
SIGNAL
70
0
73
0
74
2
0
ATTRIB
8
IO
39
0
10
1143
20
-267.5
30
0
40
6
1
Condition2
50
0
41
1
51
0
7
TextElementIO
71
0
72
0
11
1143
21
-267.5
31
0
210
0
220
0
230
1
2
CONDITION
70
0
73
0
74
2
0
SEQEND
0
INSERT
2
ANDGATE
8
ELEMENTS
10
480
20
-245
30
0
66
1
0
ATTRIB
8
ELEMENTS
39
0
10
510
20
-275
30
0
40
10
1
0
50
0
41
1
51
0
7
TextElementGate
71
0
72
1
11
510
21
-275
31
0
210
0
220
0
230
1
2
ID
70
1
73
0
74
2
0
ATTRIB
8
ELEMENTS
39
0
10
495
20
-260
30
0
40
10
1
&
50
0
41
1
51
0
7
TextElementGate
71
0
72
1
11
495
21
-260
31
0
210
0
220
0
230
1
2
TEXT
70
0
73
0
74
2
0
SEQEND
0
LINE
8
WIRES
62
256
39
0
10
480
20
-200
30
0
11
495
21
-200
31
0
210
0
220
0
230
1
0
LINE
8
WIRES
62
256
39
0
10
495
20
-200
30
0
11
495
21
-245
31
0
210
0
220
0
230
1
0
LINE
8
WIRES
62
256
39
0
10
465
20
-260
30
0
11
480
21
-260
31
0
210
0
220
0
230
1
0
LINE
8
WIRES
62
256
39
0
10
510
20
-260
30
0
11
930
21
-260
31
0
210
0
220
0
230
1
0
INSERT
2
INPUT
8
IO
10
45
20
-395
30
0
66
1
0
ATTRIB
8
IO
39
0
10
333
20
-425
30
0
40
6
1
2
50
0
41
1
51
0
7
TextElementIO
71
0
72
0
11
333
21
-425
31
0
210
0
220
0
230
1
2
ID
70
1
73
0
74
2
0
ATTRIB
8
IO
39
0
10
333
20
-395
30
0
40
6
1
3
50
0
41
1
51
0
7
TextElementIO
71
0
72
0
11
333
21
-395
31
0
210
0
220
0
230
1
2
TAGID
70
1
73
0
74
2
0
ATTRIB
8
IO
39
0
10
48
20
-402.5
30
0
40
6
1
Designation3
50
0
41
1
51
0
7
TextElementIO
71
0
72
0
11
48
21
-402.5
31
0
210
0
220
0
230
1
2
DESIGNATION
70
0
73
0
74
2
0
ATTRIB
8
IO
39
0
10
48
20
-417.5
30
0
40
6
1
Description3
50
0
41
1
51
0
7
TextElementIO
71
0
72
0
11
48
21
-417.5
31
0
210
0
220
0
230
1
2
DESCRIPTION
70
0
73
0
74
2
0
ATTRIB
8
IO
39
0
10
258
20
-402.5
30
0
40
6
1
Signal3
50
0
41
1
51
0
7
TextElementIO
71
0
72
0
11
258
21
-402.5
31
0
210
0
220
0
230
1
2
SIGNAL
70
0
73
0
74
2
0
ATTRIB
8
IO
39
0
10
258
20
-417.5
30
0
40
6
1
Condition3
50
0
41
1
51
0
7
TextElementIO
71
0
72
0
11
258
21
-417.5
31
0
210
0
220
0
230
1
2
CONDITION
70
0
73
0
74
2
0
SEQEND
0
INSERT
2
INPUT
8
IO
10
45
20
-455
30
0
66
1
0
ATTRIB
8
IO
39
0
10
333
20
-485
30
0
40
6
1
3
50
0
41
1
51
0
7
TextElementIO
71
0
72
0
11
333
21
-485
31
0
210
0
220
0
230
1
2
ID
70
1
73
0
74
2
0
ATTRIB
8
IO
39
0
10
333
20
-455
30
0
40
6
1
4
50
0
41
1
51
0
7
TextElementIO
71
0
72
0
11
333
21
-455
31
0
210
0
220
0
230
1
2
TAGID
70
1
73
0
74
2
0
ATTRIB
8
IO
39
0
10
48
20
-462.5
30
0
40
6
1
Designation4
50
0
41
1
51
0
7
TextElementIO
71
0
72
0
11
48
21
-462.5
31
0
210
0
220
0
230
1
2
DESIGNATION
70
0
73
0
74
2
0
ATTRIB
8
IO
39
0
10
48
20
-477.5
30
0
40
6
1
Description4
50
0
41
1
51
0
7
TextElementIO
71
0
72
0
11
48
21
-477.5
31
0
210
0
220
0
230
1
2
DESCRIPTION
70
0
73
0
74
2
0
ATTRIB
8
IO
39
0
10
258
20
-462.5
30
0
40
6
1
Signal4
50
0
41
1
51
0
7
TextElementIO
71
0
72
0
11
258
21
-462.5
31
0
210
0
220
0
230
1
2
SIGNAL
70
0
73
0
74
2
0
ATTRIB
8
IO
39
0
10
258
20
-477.5
30
0
40
6
1
Condition4
50
0
41
1
51
0
7
TextElementIO
71
0
72
0
11
258
21
-477.5
31
0
210
0
220
0
230
1
2
CONDITION
70
0
73
0
74
2
0
SEQEND
0
INSERT
2
OUTPUT
8
IO
10
930
20
-455
30
0
66
1
0
ATTRIB
8
IO
39
0
10
1218
20
-485
30
0
40
6
1
1
50
0
41
1
51
0
7
TextElementIO
71
0
72
0
11
1218
21
-485
31
0
210
0
220
0
230
1
2
ID
70
1
73
0
74
2
0
ATTRIB
8
IO
39
0
10
1218
20
-455
30
0
40
6
1
5
50
0
41
1
51
0
7
TextElementIO
71
0
72
0
11
1218
21
-455
31
0
210
0
220
0
230
1
2
TAGID
70
1
73
0
74
2
0
ATTRIB
8
IO
39
0
10
933
20
-462.5
30
0
40
6
1
Designation5
50
0
41
1
51
0
7
TextElementIO
71
0
72
0
11
933
21
-462.5
31
0
210
0
220
0
230
1
2
DESIGNATION
70
0
73
0
74
2
0
ATTRIB
8
IO
39
0
10
933
20
-477.5
30
0
40
6
1
Description5
50
0
41
1
51
0
7
TextElementIO
71
0
72
0
11
933
21
-477.5
31
0
210
0
220
0
230
1
2
DESCRIPTION
70
0
73
0
74
2
0
ATTRIB
8
IO
39
0
10
1143
20
-462.5
30
0
40
6
1
Signal5
50
0
41
1
51
0
7
TextElementIO
71
0
72
0
11
1143
21
-462.5
31
0
210
0
220
0
230
1
2
SIGNAL
70
0
73
0
74
2
0
ATTRIB
8
IO
39
0
10
1143
20
-477.5
30
0
40
6
1
Condition5
50
0
41
1
51
0
7
TextElementIO
71
0
72
0
11
1143
21
-477.5
31
0
210
0
220
0
230
1
2
CONDITION
70
0
73
0
74
2
0
SEQEND
0
INSERT
2
ORGATE
8
ELEMENTS
10
480
20
-455
30
0
66
1
0
ATTRIB
8
ELEMENTS
39
0
10
510
20
-485
30
0
40
10
1
0
50
0
41
1
51
0
7
TextElementGate
71
0
72
1
11
510
21
-485
31
0
210
0
220
0
230
1
2
ID
70
1
73
0
74
2
0
ATTRIB
8
ELEMENTS
39
0
10
495
20
-470
30
0
40
10
1
\U+22651
50
0
41
1
51
0
7
TextElementGate
71
0
72
1
11
495
21
-470
31
0
210
0
220
0
230
1
2
TEXT
70
0
73
0
74
2
0
SEQEND
0
LINE
8
WIRES
62
256
39
0
10
480
20
-410
30
0
11
495
21
-410
31
0
210
0
220
0
230
1
0
LINE
8
WIRES
62
256
39
0
10
495
20
-410
30
0
11
495
21
-455
31
0
210
0
220
0
230
1
0
LINE
8
WIRES
62
256
39
0
10
465
20
-470
30
0
11
480
21
-470
31
0
210
0
220
0
230
1
0
LINE
8
WIRES
62
256
39
0
10
510
20
-470
30
0
11
930
21
-470
31
0
210
0
220
0
230
1
0
ENDSEC
0
EOF
