999
Diagram
0
SECTION
2
HEADER
9
$ACADVER
1
AC1006
9
$INSBASE
10
0.0
20
0.0
30
0.0
9
$EXTMIN
10
0.0
20
0.0
9
$EXTMAX
10
1260.0
20
891.0
9
$LIMMIN
10
0.0
20
0.0
9
$LIMMAX
10
1260.0
20
891.0
0
ENDSEC
0
SECTION
2
TABLES
0
TABLE
2
LTYPE
70
1
0
LTYPE
2
CONTINUOUS
70
64
3
Solid line
72
65
73
0
40
0.000000
0
ENDTAB
0
TABLE
2
LAYER
70
6
0
LAYER
2
FRAME
70
64
62
8
6
CONTINUOUS
0
LAYER
2
GRID
70
64
62
9
6
CONTINUOUS
0
LAYER
2
TABLE
70
64
62
8
6
CONTINUOUS
0
LAYER
2
IO
70
64
62
6
6
CONTINUOUS
0
LAYER
2
WIRES
70
64
62
5
6
CONTINUOUS
0
LAYER
2
ELEMENTS
70
64
62
5
6
CONTINUOUS
0
ENDTAB
0
TABLE
2
STYLE
70
2
0
STYLE
2
TEXTGATE
70
0
3
ARIAL
40
0
41
1
50
0
71
0
42
0
0
STYLE
2
TEXTIO
70
0
3
ARIAL
40
0
41
1
50
0
71
0
42
0
0
ENDTAB
0
ENDSEC
0
SECTION
2
BLOCKS
0
BLOCK
2
FRAME
70
0
10
0
20
0
30
0
0
LINE
8
FRAME
62
0
10
330
20
856
30
0
11
930
21
856
31
0
0
LINE
8
FRAME
62
0
10
930
20
106
30
0
11
330
21
106
31
0
0
LINE
8
FRAME
62
0
10
330
20
106
30
0
11
330
21
876
31
0
0
LINE
8
FRAME
62
0
10
930
20
876
30
0
11
930
21
106
31
0
0
LINE
8
FRAME
62
0
10
15
20
876
30
0
11
1245
21
876
31
0
0
LINE
8
FRAME
62
0
10
1245
20
75
30
0
11
15
21
75
31
0
0
LINE
8
FRAME
62
0
10
15
20
15
30
0
11
1245
21
15
31
0
0
LINE
8
FRAME
62
0
10
1245
20
15
30
0
11
1245
21
876
31
0
0
LINE
8
FRAME
62
0
10
15
20
876
30
0
11
15
21
15
31
0
0
LINE
8
FRAME
62
0
10
1
20
890
30
0
11
1259
21
890
31
0
0
LINE
8
FRAME
62
0
10
1259
20
1
30
0
11
1
21
1
31
0
0
LINE
8
FRAME
62
0
10
1
20
1
30
0
11
1
21
890
31
0
0
LINE
8
FRAME
62
0
10
1259
20
890
30
0
11
1259
21
1
31
0
0
LINE
8
FRAME
62
0
10
45
20
856
30
0
11
45
21
106
31
0
0
LINE
8
FRAME
62
0
10
255
20
106
30
0
11
255
21
856
31
0
0
LINE
8
FRAME
62
0
10
330
20
856
30
0
11
15
21
856
31
0
0
LINE
8
FRAME
62
0
10
15
20
106
30
0
11
330
21
106
31
0
0
LINE
8
FRAME
62
0
10
15
20
826
30
0
11
330
21
826
31
0
0
LINE
8
FRAME
62
0
10
15
20
796
30
0
11
330
21
796
31
0
0
LINE
8
FRAME
62
0
10
15
20
766
30
0
11
330
21
766
31
0
0
LINE
8
FRAME
62
0
10
15
20
736
30
0
11
330
21
736
31
0
0
LINE
8
FRAME
62
0
10
15
20
706
30
0
11
330
21
706
31
0
0
LINE
8
FRAME
62
0
10
15
20
676
30
0
11
330
21
676
31
0
0
LINE
8
FRAME
62
0
10
15
20
646
30
0
11
330
21
646
31
0
0
LINE
8
FRAME
62
0
10
15
20
616
30
0
11
330
21
616
31
0
0
LINE
8
FRAME
62
0
10
15
20
586
30
0
11
330
21
586
31
0
0
LINE
8
FRAME
62
0
10
15
20
556
30
0
11
330
21
556
31
0
0
LINE
8
FRAME
62
0
10
15
20
526
30
0
11
330
21
526
31
0
0
LINE
8
FRAME
62
0
10
15
20
496
30
0
11
330
21
496
31
0
0
LINE
8
FRAME
62
0
10
15
20
466
30
0
11
330
21
466
31
0
0
LINE
8
FRAME
62
0
10
15
20
436
30
0
11
330
21
436
31
0
0
LINE
8
FRAME
62
0
10
15
20
406
30
0
11
330
21
406
31
0
0
LINE
8
FRAME
62
0
10
15
20
376
30
0
11
330
21
376
31
0
0
LINE
8
FRAME
62
0
10
15
20
346
30
0
11
330
21
346
31
0
0
LINE
8
FRAME
62
0
10
15
20
316
30
0
11
330
21
316
31
0
0
LINE
8
FRAME
62
0
10
15
20
286
30
0
11
330
21
286
31
0
0
LINE
8
FRAME
62
0
10
15
20
256
30
0
11
330
21
256
31
0
0
LINE
8
FRAME
62
0
10
15
20
226
30
0
11
330
21
226
31
0
0
LINE
8
FRAME
62
0
10
15
20
196
30
0
11
330
21
196
31
0
0
LINE
8
FRAME
62
0
10
15
20
166
30
0
11
330
21
166
31
0
0
LINE
8
FRAME
62
0
10
15
20
136
30
0
11
330
21
136
31
0
0
LINE
8
FRAME
62
0
10
1140
20
856
30
0
11
1140
21
106
31
0
0
LINE
8
FRAME
62
0
10
1215
20
106
30
0
11
1215
21
856
31
0
0
LINE
8
FRAME
62
0
10
1245
20
856
30
0
11
930
21
856
31
0
0
LINE
8
FRAME
62
0
10
930
20
106
30
0
11
1245
21
106
31
0
0
LINE
8
FRAME
62
0
10
930
20
826
30
0
11
1245
21
826
31
0
0
LINE
8
FRAME
62
0
10
930
20
796
30
0
11
1245
21
796
31
0
0
LINE
8
FRAME
62
0
10
930
20
766
30
0
11
1245
21
766
31
0
0
LINE
8
FRAME
62
0
10
930
20
736
30
0
11
1245
21
736
31
0
0
LINE
8
FRAME
62
0
10
930
20
706
30
0
11
1245
21
706
31
0
0
LINE
8
FRAME
62
0
10
930
20
676
30
0
11
1245
21
676
31
0
0
LINE
8
FRAME
62
0
10
930
20
646
30
0
11
1245
21
646
31
0
0
LINE
8
FRAME
62
0
10
930
20
616
30
0
11
1245
21
616
31
0
0
LINE
8
FRAME
62
0
10
930
20
586
30
0
11
1245
21
586
31
0
0
LINE
8
FRAME
62
0
10
930
20
556
30
0
11
1245
21
556
31
0
0
LINE
8
FRAME
62
0
10
930
20
526
30
0
11
1245
21
526
31
0
0
LINE
8
FRAME
62
0
10
930
20
496
30
0
11
1245
21
496
31
0
0
LINE
8
FRAME
62
0
10
930
20
466
30
0
11
1245
21
466
31
0
0
LINE
8
FRAME
62
0
10
930
20
436
30
0
11
1245
21
436
31
0
0
LINE
8
FRAME
62
0
10
930
20
406
30
0
11
1245
21
406
31
0
0
LINE
8
FRAME
62
0
10
930
20
376
30
0
11
1245
21
376
31
0
0
LINE
8
FRAME
62
0
10
930
20
346
30
0
11
1245
21
346
31
0
0
LINE
8
FRAME
62
0
10
930
20
316
30
0
11
1245
21
316
31
0
0
LINE
8
FRAME
62
0
10
930
20
286
30
0
11
1245
21
286
31
0
0
LINE
8
FRAME
62
0
10
930
20
256
30
0
11
1245
21
256
31
0
0
LINE
8
FRAME
62
0
10
930
20
226
30
0
11
1245
21
226
31
0
0
LINE
8
FRAME
62
0
10
930
20
196
30
0
11
1245
21
196
31
0
0
LINE
8
FRAME
62
0
10
930
20
166
30
0
11
1245
21
166
31
0
0
LINE
8
FRAME
62
0
10
930
20
136
30
0
11
1245
21
136
31
0
0
ENDBLK
0
BLOCK
2
TABLE
70
0
10
0
20
0
30
0
0
ENDBLK
0
BLOCK
2
GRID
70
0
10
0
20
0
30
0
0
ENDBLK
0
BLOCK
2
INPUT
70
0
10
0
20
0
30
0
0
LINE
8
IO
62
0
10
0
20
30
30
0
11
285
21
30
31
0
0
LINE
8
IO
62
0
10
285
20
0
30
0
11
0
21
0
31
0
0
LINE
8
IO
62
0
10
0
20
0
30
0
11
0
21
30
31
0
0
LINE
8
IO
62
0
10
210
20
30
30
0
11
210
21
0
31
0
0
LINE
8
IO
62
0
10
285
20
0
30
0
11
285
21
30
31
0
0
TEXT
8
IO
1
Designation
7
TEXTIO
40
6
10
3
20
23,5
30
0
11
3
21
23,5
31
0
72
0
73
2
0
TEXT
8
IO
1
Description
7
TEXTIO
40
6
10
3
20
7,5
30
0
11
3
21
7,5
31
0
72
0
73
2
0
TEXT
8
IO
1
Signal
7
TEXTIO
40
6
10
213
20
23,5
30
0
11
213
21
23,5
31
0
72
0
73
2
0
TEXT
8
IO
1
Condition
7
TEXTIO
40
6
10
213
20
7,5
30
0
11
213
21
7,5
31
0
72
0
73
2
0
ENDBLK
0
BLOCK
2
OUTPUT
70
0
10
0
20
0
30
0
0
LINE
8
IO
62
0
10
0
20
30
30
0
11
285
21
30
31
0
0
LINE
8
IO
62
0
10
285
20
0
30
0
11
0
21
0
31
0
0
LINE
8
IO
62
0
10
0
20
0
30
0
11
0
21
30
31
0
0
LINE
8
IO
62
0
10
210
20
30
30
0
11
210
21
0
31
0
0
LINE
8
IO
62
0
10
285
20
0
30
0
11
285
21
30
31
0
0
TEXT
8
IO
1
Designation
7
TEXTIO
40
6
10
3
20
23,5
30
0
11
3
21
23,5
31
0
72
0
73
2
0
TEXT
8
IO
1
Description
7
TEXTIO
40
6
10
3
20
7,5
30
0
11
3
21
7,5
31
0
72
0
73
2
0
TEXT
8
IO
1
Signal
7
TEXTIO
40
6
10
213
20
23,5
30
0
11
213
21
23,5
31
0
72
0
73
2
0
TEXT
8
IO
1
Condition
7
TEXTIO
40
6
10
213
20
7,5
30
0
11
213
21
7,5
31
0
72
0
73
2
0
ENDBLK
0
BLOCK
2
ANDGATE
70
0
10
0
20
0
30
0
0
LINE
8
ELEMENTS
62
0
10
0
20
30
30
0
11
30
21
30
31
0
0
LINE
8
ELEMENTS
62
0
10
0
20
0
30
0
11
30
21
0
31
0
0
LINE
8
ELEMENTS
62
0
10
0
20
30
30
0
11
0
21
0
31
0
0
LINE
8
ELEMENTS
62
0
10
30
20
30
30
0
11
30
21
0
31
0
0
TEXT
8
ELEMENTS
1
&
7
TEXTGATE
40
10
10
15
20
0
30
0
11
15
21
15
31
0
72
1
73
2
0
ENDBLK
0
BLOCK
2
ORGATE
70
0
10
0
20
0
30
0
0
LINE
8
ELEMENTS
62
0
10
0
20
30
30
0
11
30
21
30
31
0
0
LINE
8
ELEMENTS
62
0
10
0
20
0
30
0
11
30
21
0
31
0
0
LINE
8
ELEMENTS
62
0
10
0
20
30
30
0
11
0
21
0
31
0
0
LINE
8
ELEMENTS
62
0
10
30
20
30
30
0
11
30
21
0
31
0
0
TEXT
8
ELEMENTS
1
\U+22651
7
TEXTGATE
40
10
10
15
20
0
30
0
11
15
21
15
31
0
72
1
73
2
0
ENDBLK
0
ENDSEC
0
SECTION
2
ENTITIES
0
INSERT
2
FRAME
8
FRAME
10
0
20
0
30
0
0
INSERT
2
GRID
8
TABLE
10
0
20
831
30
0
0
INSERT
2
TABLE
8
TABLE
10
0
20
831
30
0
0
INSERT
2
INPUT
8
IO
10
45
20
646
30
0
0
INSERT
2
ANDGATE
8
ELEMENTS
10
390
20
466
30
0
0
INSERT
2
INPUT
8
IO
10
45
20
526
30
0
0
LINE
8
WIRES
62
0
10
390
20
661
30
0
11
405
21
661
31
0
0
LINE
8
WIRES
62
0
10
405
20
661
30
0
11
405
21
496
31
0
0
INSERT
2
INPUT
8
IO
10
45
20
586
30
0
0
INSERT
2
INPUT
8
IO
10
45
20
706
30
0
0
INSERT
2
OUTPUT
8
IO
10
930
20
466
30
0
0
LINE
8
WIRES
62
0
10
420
20
481
30
0
11
930
21
481
31
0
0
INSERT
2
ORGATE
8
ELEMENTS
10
390
20
166
30
0
0
INSERT
2
INPUT
8
IO
10
45
20
316
30
0
0
LINE
8
WIRES
62
0
10
390
20
331
30
0
11
405
21
331
31
0
0
LINE
8
WIRES
62
0
10
405
20
331
30
0
11
405
21
196
31
0
0
INSERT
2
INPUT
8
IO
10
45
20
226
30
0
0
INSERT
2
OUTPUT
8
IO
10
930
20
166
30
0
0
LINE
8
WIRES
62
0
10
420
20
181
30
0
11
930
21
181
31
0
0
ENDSEC
0
EOF
