0
SECTION
2
HEADER
9
$ACADVER
1
AC1009
9
$DWGCODEPAGE
3
ANSI_1250
9
$EXTMAX
10
1260
20
891
9
$EXTMIN
10
0
20
0
9
$INSBASE
10
0.0
20
0.0
30
0.0
9
$LIMMAX
10
1260.0
20
891.0
9
$LIMMIN
10
0.0
20
0.0
9
$INSUNITS
70
4
9
$LUNITS
70
2
9
$LUPREC
70
4
9
$MEASUREMENT
70
1
0
ENDSEC
0
SECTION
2
TABLES
0
TABLE
2
APPID
70
1
0
APPID
2
CADE
70
0
0
ENDTAB
0
TABLE
2
DIMSTYLE
70
0
0
ENDTAB
0
TABLE
2
LTYPE
70
3
0
LTYPE
2
ByLayer
70
0
3
ByLayer
72
65
73
0
40
0
0
LTYPE
2
ByBlock
70
0
3
ByBlock
72
65
73
0
40
0
0
LTYPE
2
Continuous
70
0
3
Solid line
72
65
73
0
40
0
0
ENDTAB
0
TABLE
2
LAYER
70
6
0
LAYER
2
FRAME
70
0
62
8
6
Continuous
0
LAYER
2
GRID
70
0
62
9
6
Continuous
0
LAYER
2
TABLE
70
0
62
8
6
Continuous
0
LAYER
2
IO
70
0
62
6
6
Continuous
0
LAYER
2
WIRES
70
0
62
7
6
Continuous
0
LAYER
2
ELEMENTS
70
0
62
5
6
Continuous
0
ENDTAB
0
TABLE
2
STYLE
70
8
0
STYLE
2
Standard
70
0
40
0
41
1
50
0
71
0
42
0
3
arial.ttf
4

0
STYLE
2
TextFrameHeaderSmall
70
0
40
0
41
1
50
0
71
0
42
0
3
arial.ttf
4

0
STYLE
2
TextFrameHeaderLarge
70
0
40
0
41
1
50
0
71
0
42
0
3
arial.ttf
4

0
STYLE
2
TextFrameNumber
70
0
40
0
41
1
50
0
71
0
42
0
3
arial.ttf
4

0
STYLE
2
TextTableHeader
70
0
40
0
41
1
50
0
71
0
42
0
3
arial.ttf
4

0
STYLE
2
TextTableTag
70
0
40
0
41
1
50
0
71
0
42
0
3
arial.ttf
4

0
STYLE
2
TextElementGate
70
0
40
0
41
1
50
0
71
0
42
0
3
arial.ttf
4

0
STYLE
2
TextElementIO
70
0
40
0
41
1
50
0
71
0
42
0
3
arial.ttf
4

0
ENDTAB
0
TABLE
2
UCS
70
0
0
ENDTAB
0
TABLE
2
VIEW
70
1
0
VIEW
2
DIAGRAM
70
0
40
891
41
1260
10
630
20
445.5
11
0
21
0
31
0
12
0
22
0
32
0
43
0
44
0
50
0
0
ENDTAB
0
TABLE
2
VPORT
70
0
0
ENDTAB
0
ENDSEC
0
SECTION
2
BLOCKS
0
BLOCK
8
FRAME
2
FRAME
3
FRAME
70
2
10
0
20
0
30
0
0
LINE
8
FRAME
62
256
39
0
10
330
20
856
30
0
11
930
21
856
31
0
210
0
220
0
230
1
0
LINE
8
FRAME
62
256
39
0
10
930
20
106
30
0
11
330
21
106
31
0
210
0
220
0
230
1
0
LINE
8
FRAME
62
256
39
0
10
330
20
106
30
0
11
330
21
876
31
0
210
0
220
0
230
1
0
LINE
8
FRAME
62
256
39
0
10
930
20
876
30
0
11
930
21
106
31
0
210
0
220
0
230
1
0
LINE
8
FRAME
62
256
39
0
10
15
20
876
30
0
11
1245
21
876
31
0
210
0
220
0
230
1
0
LINE
8
FRAME
62
256
39
0
10
1245
20
75
30
0
11
15
21
75
31
0
210
0
220
0
230
1
0
LINE
8
FRAME
62
256
39
0
10
15
20
15
30
0
11
1245
21
15
31
0
210
0
220
0
230
1
0
LINE
8
FRAME
62
256
39
0
10
1245
20
15
30
0
11
1245
21
876
31
0
210
0
220
0
230
1
0
LINE
8
FRAME
62
256
39
0
10
15
20
876
30
0
11
15
21
15
31
0
210
0
220
0
230
1
0
LINE
8
FRAME
62
256
39
0
10
1
20
890
30
0
11
1259
21
890
31
0
210
0
220
0
230
1
0
LINE
8
FRAME
62
256
39
0
10
1259
20
1
30
0
11
1
21
1
31
0
210
0
220
0
230
1
0
LINE
8
FRAME
62
256
39
0
10
1
20
1
30
0
11
1
21
890
31
0
210
0
220
0
230
1
0
LINE
8
FRAME
62
256
39
0
10
1259
20
890
30
0
11
1259
21
1
31
0
210
0
220
0
230
1
0
LINE
8
FRAME
62
256
39
0
10
45
20
856
30
0
11
45
21
106
31
0
210
0
220
0
230
1
0
LINE
8
FRAME
62
256
39
0
10
255
20
106
30
0
11
255
21
856
31
0
210
0
220
0
230
1
0
LINE
8
FRAME
62
256
39
0
10
330
20
856
30
0
11
15
21
856
31
0
210
0
220
0
230
1
0
LINE
8
FRAME
62
256
39
0
10
15
20
106
30
0
11
330
21
106
31
0
210
0
220
0
230
1
0
LINE
8
FRAME
62
256
39
0
10
15
20
826
30
0
11
330
21
826
31
0
210
0
220
0
230
1
0
LINE
8
FRAME
62
256
39
0
10
15
20
796
30
0
11
330
21
796
31
0
210
0
220
0
230
1
0
LINE
8
FRAME
62
256
39
0
10
15
20
766
30
0
11
330
21
766
31
0
210
0
220
0
230
1
0
LINE
8
FRAME
62
256
39
0
10
15
20
736
30
0
11
330
21
736
31
0
210
0
220
0
230
1
0
LINE
8
FRAME
62
256
39
0
10
15
20
706
30
0
11
330
21
706
31
0
210
0
220
0
230
1
0
LINE
8
FRAME
62
256
39
0
10
15
20
676
30
0
11
330
21
676
31
0
210
0
220
0
230
1
0
LINE
8
FRAME
62
256
39
0
10
15
20
646
30
0
11
330
21
646
31
0
210
0
220
0
230
1
0
LINE
8
FRAME
62
256
39
0
10
15
20
616
30
0
11
330
21
616
31
0
210
0
220
0
230
1
0
LINE
8
FRAME
62
256
39
0
10
15
20
586
30
0
11
330
21
586
31
0
210
0
220
0
230
1
0
LINE
8
FRAME
62
256
39
0
10
15
20
556
30
0
11
330
21
556
31
0
210
0
220
0
230
1
0
LINE
8
FRAME
62
256
39
0
10
15
20
526
30
0
11
330
21
526
31
0
210
0
220
0
230
1
0
LINE
8
FRAME
62
256
39
0
10
15
20
496
30
0
11
330
21
496
31
0
210
0
220
0
230
1
0
LINE
8
FRAME
62
256
39
0
10
15
20
466
30
0
11
330
21
466
31
0
210
0
220
0
230
1
0
LINE
8
FRAME
62
256
39
0
10
15
20
436
30
0
11
330
21
436
31
0
210
0
220
0
230
1
0
LINE
8
FRAME
62
256
39
0
10
15
20
406
30
0
11
330
21
406
31
0
210
0
220
0
230
1
0
LINE
8
FRAME
62
256
39
0
10
15
20
376
30
0
11
330
21
376
31
0
210
0
220
0
230
1
0
LINE
8
FRAME
62
256
39
0
10
15
20
346
30
0
11
330
21
346
31
0
210
0
220
0
230
1
0
LINE
8
FRAME
62
256
39
0
10
15
20
316
30
0
11
330
21
316
31
0
210
0
220
0
230
1
0
LINE
8
FRAME
62
256
39
0
10
15
20
286
30
0
11
330
21
286
31
0
210
0
220
0
230
1
0
LINE
8
FRAME
62
256
39
0
10
15
20
256
30
0
11
330
21
256
31
0
210
0
220
0
230
1
0
LINE
8
FRAME
62
256
39
0
10
15
20
226
30
0
11
330
21
226
31
0
210
0
220
0
230
1
0
LINE
8
FRAME
62
256
39
0
10
15
20
196
30
0
11
330
21
196
31
0
210
0
220
0
230
1
0
LINE
8
FRAME
62
256
39
0
10
15
20
166
30
0
11
330
21
166
31
0
210
0
220
0
230
1
0
LINE
8
FRAME
62
256
39
0
10
15
20
136
30
0
11
330
21
136
31
0
210
0
220
0
230
1
0
LINE
8
FRAME
62
256
39
0
10
1140
20
856
30
0
11
1140
21
106
31
0
210
0
220
0
230
1
0
LINE
8
FRAME
62
256
39
0
10
1215
20
106
30
0
11
1215
21
856
31
0
210
0
220
0
230
1
0
LINE
8
FRAME
62
256
39
0
10
1245
20
856
30
0
11
930
21
856
31
0
210
0
220
0
230
1
0
LINE
8
FRAME
62
256
39
0
10
930
20
106
30
0
11
1245
21
106
31
0
210
0
220
0
230
1
0
LINE
8
FRAME
62
256
39
0
10
930
20
826
30
0
11
1245
21
826
31
0
210
0
220
0
230
1
0
LINE
8
FRAME
62
256
39
0
10
930
20
796
30
0
11
1245
21
796
31
0
210
0
220
0
230
1
0
LINE
8
FRAME
62
256
39
0
10
930
20
766
30
0
11
1245
21
766
31
0
210
0
220
0
230
1
0
LINE
8
FRAME
62
256
39
0
10
930
20
736
30
0
11
1245
21
736
31
0
210
0
220
0
230
1
0
LINE
8
FRAME
62
256
39
0
10
930
20
706
30
0
11
1245
21
706
31
0
210
0
220
0
230
1
0
LINE
8
FRAME
62
256
39
0
10
930
20
676
30
0
11
1245
21
676
31
0
210
0
220
0
230
1
0
LINE
8
FRAME
62
256
39
0
10
930
20
646
30
0
11
1245
21
646
31
0
210
0
220
0
230
1
0
LINE
8
FRAME
62
256
39
0
10
930
20
616
30
0
11
1245
21
616
31
0
210
0
220
0
230
1
0
LINE
8
FRAME
62
256
39
0
10
930
20
586
30
0
11
1245
21
586
31
0
210
0
220
0
230
1
0
LINE
8
FRAME
62
256
39
0
10
930
20
556
30
0
11
1245
21
556
31
0
210
0
220
0
230
1
0
LINE
8
FRAME
62
256
39
0
10
930
20
526
30
0
11
1245
21
526
31
0
210
0
220
0
230
1
0
LINE
8
FRAME
62
256
39
0
10
930
20
496
30
0
11
1245
21
496
31
0
210
0
220
0
230
1
0
LINE
8
FRAME
62
256
39
0
10
930
20
466
30
0
11
1245
21
466
31
0
210
0
220
0
230
1
0
LINE
8
FRAME
62
256
39
0
10
930
20
436
30
0
11
1245
21
436
31
0
210
0
220
0
230
1
0
LINE
8
FRAME
62
256
39
0
10
930
20
406
30
0
11
1245
21
406
31
0
210
0
220
0
230
1
0
LINE
8
FRAME
62
256
39
0
10
930
20
376
30
0
11
1245
21
376
31
0
210
0
220
0
230
1
0
LINE
8
FRAME
62
256
39
0
10
930
20
346
30
0
11
1245
21
346
31
0
210
0
220
0
230
1
0
LINE
8
FRAME
62
256
39
0
10
930
20
316
30
0
11
1245
21
316
31
0
210
0
220
0
230
1
0
LINE
8
FRAME
62
256
39
0
10
930
20
286
30
0
11
1245
21
286
31
0
210
0
220
0
230
1
0
LINE
8
FRAME
62
256
39
0
10
930
20
256
30
0
11
1245
21
256
31
0
210
0
220
0
230
1
0
LINE
8
FRAME
62
256
39
0
10
930
20
226
30
0
11
1245
21
226
31
0
210
0
220
0
230
1
0
LINE
8
FRAME
62
256
39
0
10
930
20
196
30
0
11
1245
21
196
31
0
210
0
220
0
230
1
0
LINE
8
FRAME
62
256
39
0
10
930
20
166
30
0
11
1245
21
166
31
0
210
0
220
0
230
1
0
LINE
8
FRAME
62
256
39
0
10
930
20
136
30
0
11
1245
21
136
31
0
210
0
220
0
230
1
0
ENDBLK
0
BLOCK
8
TABLE
2
TABLE
3
TABLE
70
0
10
0
20
0
30
0
0
LINE
8
TABLE
62
256
39
0
10
15
20
-771
30
0
11
190
21
-771
31
0
210
0
220
0
230
1
0
LINE
8
TABLE
62
256
39
0
10
420
20
-771
30
0
11
1245
21
-771
31
0
210
0
220
0
230
1
0
LINE
8
TABLE
62
256
39
0
10
1245
20
-786
30
0
11
980
21
-786
31
0
210
0
220
0
230
1
0
LINE
8
TABLE
62
256
39
0
10
710
20
-786
30
0
11
420
21
-786
31
0
210
0
220
0
230
1
0
LINE
8
TABLE
62
256
39
0
10
190
20
-786
30
0
11
15
21
-786
31
0
210
0
220
0
230
1
0
LINE
8
TABLE
62
256
39
0
10
15
20
-801
30
0
11
190
21
-801
31
0
210
0
220
0
230
1
0
LINE
8
TABLE
62
256
39
0
10
420
20
-801
30
0
11
710
21
-801
31
0
210
0
220
0
230
1
0
LINE
8
TABLE
62
256
39
0
10
980
20
-801
30
0
11
1245
21
-801
31
0
210
0
220
0
230
1
0
LINE
8
TABLE
62
256
39
0
10
45
20
-756
30
0
11
45
21
-816
31
0
210
0
220
0
230
1
0
LINE
8
TABLE
62
256
39
0
10
90
20
-756
30
0
11
90
21
-816
31
0
210
0
220
0
230
1
0
LINE
8
TABLE
62
256
39
0
10
190
20
-816
30
0
11
190
21
-756
31
0
210
0
220
0
230
1
0
LINE
8
TABLE
62
256
39
0
10
305
20
-756
30
0
11
305
21
-816
31
0
210
0
220
0
230
1
0
LINE
8
TABLE
62
256
39
0
10
420
20
-816
30
0
11
420
21
-756
31
0
210
0
220
0
230
1
0
LINE
8
TABLE
62
256
39
0
10
480
20
-756
30
0
11
480
21
-816
31
0
210
0
220
0
230
1
0
LINE
8
TABLE
62
256
39
0
10
610
20
-816
30
0
11
610
21
-756
31
0
210
0
220
0
230
1
0
LINE
8
TABLE
62
256
39
0
10
655
20
-756
30
0
11
655
21
-816
31
0
210
0
220
0
230
1
0
LINE
8
TABLE
62
256
39
0
10
710
20
-816
30
0
11
710
21
-756
31
0
210
0
220
0
230
1
0
LINE
8
TABLE
62
256
39
0
10
980
20
-756
30
0
11
980
21
-816
31
0
210
0
220
0
230
1
0
LINE
8
TABLE
62
256
39
0
10
1020
20
-816
30
0
11
1020
21
-756
31
0
210
0
220
0
230
1
0
LINE
8
TABLE
62
256
39
0
10
1060
20
-756
30
0
11
1060
21
-816
31
0
210
0
220
0
230
1
0
LINE
8
TABLE
62
256
39
0
10
1115
20
-816
30
0
11
1115
21
-756
31
0
210
0
220
0
230
1
0
ENDBLK
0
BLOCK
8
GRID
2
GRID
3
GRID
70
0
10
0
20
0
30
0
0
ENDBLK
0
BLOCK
8
IO
2
INPUT
3
INPUT
70
2
10
0
20
0
30
0
0
LINE
8
IO
62
256
39
0
10
0
20
30
30
0
11
285
21
30
31
0
210
0
220
0
230
1
0
LINE
8
IO
62
256
39
0
10
285
20
0
30
0
11
0
21
0
31
0
210
0
220
0
230
1
0
LINE
8
IO
62
256
39
0
10
0
20
0
30
0
11
0
21
30
31
0
210
0
220
0
230
1
0
LINE
8
IO
62
256
39
0
10
210
20
30
30
0
11
210
21
0
31
0
210
0
220
0
230
1
0
LINE
8
IO
62
256
39
0
10
285
20
0
30
0
11
285
21
30
31
0
210
0
220
0
230
1
0
ATTDEF
8
IO
62
256
39
0
10
288
20
30
30
0
40
6
1
ID
50
0
41
1
51
0
7
TextElementIO
71
0
72
0
11
288
21
30
31
0
210
0
220
0
230
1
3
ID
2
ID
70
1
73
0
74
2
0
ATTDEF
8
IO
62
256
39
0
10
288
20
0
30
0
40
6
1
TAGID
50
0
41
1
51
0
7
TextElementIO
71
0
72
0
11
288
21
0
31
0
210
0
220
0
230
1
3
TAGID
2
TAGID
70
1
73
0
74
2
0
ATTDEF
8
IO
62
256
39
0
10
3
20
21.5
30
0
40
6
1
DESIGNATION
50
0
41
1
51
0
7
TextElementIO
71
0
72
0
11
3
21
21.5
31
0
210
0
220
0
230
1
3
DESIGNATION
2
DESIGNATION
70
0
73
0
74
2
0
ATTDEF
8
IO
62
256
39
0
10
3
20
7.5
30
0
40
6
1
DESCRIPTION
50
0
41
1
51
0
7
TextElementIO
71
0
72
0
11
3
21
7.5
31
0
210
0
220
0
230
1
3
DESCRIPTION
2
DESCRIPTION
70
0
73
0
74
2
0
ATTDEF
8
IO
62
256
39
0
10
213
20
21.5
30
0
40
6
1
SIGNAL
50
0
41
1
51
0
7
TextElementIO
71
0
72
0
11
213
21
21.5
31
0
210
0
220
0
230
1
3
SIGNAL
2
SIGNAL
70
0
73
0
74
2
0
ATTDEF
8
IO
62
256
39
0
10
213
20
7.5
30
0
40
6
1
CONDITION
50
0
41
1
51
0
7
TextElementIO
71
0
72
0
11
213
21
7.5
31
0
210
0
220
0
230
1
3
CONDITION
2
CONDITION
70
0
73
0
74
2
0
ENDBLK
0
BLOCK
8
IO
2
OUTPUT
3
OUTPUT
70
2
10
0
20
0
30
0
0
LINE
8
IO
62
256
39
0
10
0
20
30
30
0
11
285
21
30
31
0
210
0
220
0
230
1
0
LINE
8
IO
62
256
39
0
10
285
20
0
30
0
11
0
21
0
31
0
210
0
220
0
230
1
0
LINE
8
IO
62
256
39
0
10
0
20
0
30
0
11
0
21
30
31
0
210
0
220
0
230
1
0
LINE
8
IO
62
256
39
0
10
210
20
30
30
0
11
210
21
0
31
0
210
0
220
0
230
1
0
LINE
8
IO
62
256
39
0
10
285
20
0
30
0
11
285
21
30
31
0
210
0
220
0
230
1
0
ATTDEF
8
IO
62
256
39
0
10
288
20
30
30
0
40
6
1
ID
50
0
41
1
51
0
7
TextElementIO
71
0
72
0
11
288
21
30
31
0
210
0
220
0
230
1
3
ID
2
ID
70
1
73
0
74
2
0
ATTDEF
8
IO
62
256
39
0
10
288
20
0
30
0
40
6
1
TAGID
50
0
41
1
51
0
7
TextElementIO
71
0
72
0
11
288
21
0
31
0
210
0
220
0
230
1
3
TAGID
2
TAGID
70
1
73
0
74
2
0
ATTDEF
8
IO
62
256
39
0
10
3
20
21.5
30
0
40
6
1
DESIGNATION
50
0
41
1
51
0
7
TextElementIO
71
0
72
0
11
3
21
21.5
31
0
210
0
220
0
230
1
3
DESIGNATION
2
DESIGNATION
70
0
73
0
74
2
0
ATTDEF
8
IO
62
256
39
0
10
3
20
7.5
30
0
40
6
1
DESCRIPTION
50
0
41
1
51
0
7
TextElementIO
71
0
72
0
11
3
21
7.5
31
0
210
0
220
0
230
1
3
DESCRIPTION
2
DESCRIPTION
70
0
73
0
74
2
0
ATTDEF
8
IO
62
256
39
0
10
213
20
21.5
30
0
40
6
1
SIGNAL
50
0
41
1
51
0
7
TextElementIO
71
0
72
0
11
213
21
21.5
31
0
210
0
220
0
230
1
3
SIGNAL
2
SIGNAL
70
0
73
0
74
2
0
ATTDEF
8
IO
62
256
39
0
10
213
20
7.5
30
0
40
6
1
CONDITION
50
0
41
1
51
0
7
TextElementIO
71
0
72
0
11
213
21
7.5
31
0
210
0
220
0
230
1
3
CONDITION
2
CONDITION
70
0
73
0
74
2
0
ENDBLK
0
BLOCK
8
ELEMENTS
2
ANDGATE
3
ANDGATE
70
2
10
0
20
0
30
0
0
LINE
8
ELEMENTS
62
256
39
0
10
0
20
30
30
0
11
30
21
30
31
0
210
0
220
0
230
1
0
LINE
8
ELEMENTS
62
256
39
0
10
0
20
0
30
0
11
30
21
0
31
0
210
0
220
0
230
1
0
LINE
8
ELEMENTS
62
256
39
0
10
0
20
30
30
0
11
0
21
0
31
0
210
0
220
0
230
1
0
LINE
8
ELEMENTS
62
256
39
0
10
30
20
30
30
0
11
30
21
0
31
0
210
0
220
0
230
1
0
ATTDEF
8
ELEMENTS
62
256
39
0
10
30
20
30
30
0
40
10
1
ID
50
0
41
1
51
0
7
TextElementGate
71
0
72
1
11
30
21
30
31
0
210
0
220
0
230
1
3
ID
2
ID
70
1
73
0
74
2
0
ATTDEF
8
ELEMENTS
62
256
39
0
10
15
20
15
30
0
40
10
1
TEXT
50
0
41
1
51
0
7
TextElementGate
71
0
72
1
11
15
21
15
31
0
210
0
220
0
230
1
3
TEXT
2
TEXT
70
0
73
0
74
2
0
ENDBLK
0
BLOCK
8
ELEMENTS
2
ORGATE
3
ORGATE
70
2
10
0
20
0
30
0
0
LINE
8
ELEMENTS
62
256
39
0
10
0
20
30
30
0
11
30
21
30
31
0
210
0
220
0
230
1
0
LINE
8
ELEMENTS
62
256
39
0
10
0
20
0
30
0
11
30
21
0
31
0
210
0
220
0
230
1
0
LINE
8
ELEMENTS
62
256
39
0
10
0
20
30
30
0
11
0
21
0
31
0
210
0
220
0
230
1
0
LINE
8
ELEMENTS
62
256
39
0
10
30
20
30
30
0
11
30
21
0
31
0
210
0
220
0
230
1
0
ATTDEF
8
ELEMENTS
62
256
39
0
10
30
20
30
30
0
40
10
1
ID
50
0
41
1
51
0
7
TextElementGate
71
0
72
1
11
30
21
30
31
0
210
0
220
0
230
1
3
ID
2
ID
70
1
73
0
74
2
0
ATTDEF
8
ELEMENTS
62
256
39
0
10
15
20
15
30
0
40
10
1
TEXT
50
0
41
1
51
0
7
TextElementGate
71
0
72
1
11
15
21
15
31
0
210
0
220
0
230
1
3
TEXT
2
TEXT
70
0
73
0
74
2
0
ENDBLK
0
ENDSEC
0
SECTION
2
ENTITIES
0
INSERT
2
FRAME
8
FRAME
10
0
20
0
30
0
0
INSERT
2
GRID
8
GRID
10
0
20
831
30
0
0
INSERT
2
TABLE
8
TABLE
10
0
20
831
30
0
0
INSERT
2
INPUT
8
IO
10
45
20
676
30
0
66
1
0
ATTRIB
8
IO
10
333
20
676
30
0
40
6
1
0
7
TextElementIO
72
0
11
333
21
676
31
0
2
ID
70
1
74
2
0
ATTRIB
8
IO
10
333
20
706
30
0
40
6
1
0
7
TextElementIO
72
0
11
333
21
706
31
0
2
TAGID
70
1
74
2
0
ATTRIB
8
IO
10
48
20
698.5
30
0
40
6
1
Designation0
7
TextElementIO
72
0
11
48
21
698.5
31
0
2
DESIGNATION
70
0
74
2
0
ATTRIB
8
IO
10
48
20
684.5
30
0
40
6
1
Description0
7
TextElementIO
72
0
11
48
21
684.5
31
0
2
DESCRIPTION
70
0
74
2
0
ATTRIB
8
IO
10
258
20
698.5
30
0
40
6
1
Signal0
7
TextElementIO
72
0
11
258
21
698.5
31
0
2
SIGNAL
70
0
74
2
0
ATTRIB
8
IO
10
258
20
684.5
30
0
40
6
1
Condition0
7
TextElementIO
72
0
11
258
21
684.5
31
0
2
CONDITION
70
0
74
2
0
SEQEND
0
INSERT
2
INPUT
8
IO
10
45
20
616
30
0
66
1
0
ATTRIB
8
IO
10
333
20
616
30
0
40
6
1
1
7
TextElementIO
72
0
11
333
21
616
31
0
2
ID
70
1
74
2
0
ATTRIB
8
IO
10
333
20
646
30
0
40
6
1
1
7
TextElementIO
72
0
11
333
21
646
31
0
2
TAGID
70
1
74
2
0
ATTRIB
8
IO
10
48
20
638.5
30
0
40
6
1
Designation1
7
TextElementIO
72
0
11
48
21
638.5
31
0
2
DESIGNATION
70
0
74
2
0
ATTRIB
8
IO
10
48
20
624.5
30
0
40
6
1
Description1
7
TextElementIO
72
0
11
48
21
624.5
31
0
2
DESCRIPTION
70
0
74
2
0
ATTRIB
8
IO
10
258
20
638.5
30
0
40
6
1
Signal1
7
TextElementIO
72
0
11
258
21
638.5
31
0
2
SIGNAL
70
0
74
2
0
ATTRIB
8
IO
10
258
20
624.5
30
0
40
6
1
Condition1
7
TextElementIO
72
0
11
258
21
624.5
31
0
2
CONDITION
70
0
74
2
0
SEQEND
0
INSERT
2
OUTPUT
8
IO
10
930
20
616
30
0
66
1
0
ATTRIB
8
IO
10
1218
20
616
30
0
40
6
1
0
7
TextElementIO
72
0
11
1218
21
616
31
0
2
ID
70
1
74
2
0
ATTRIB
8
IO
10
1218
20
646
30
0
40
6
1
2
7
TextElementIO
72
0
11
1218
21
646
31
0
2
TAGID
70
1
74
2
0
ATTRIB
8
IO
10
933
20
638.5
30
0
40
6
1
Designation2
7
TextElementIO
72
0
11
933
21
638.5
31
0
2
DESIGNATION
70
0
74
2
0
ATTRIB
8
IO
10
933
20
624.5
30
0
40
6
1
Description2
7
TextElementIO
72
0
11
933
21
624.5
31
0
2
DESCRIPTION
70
0
74
2
0
ATTRIB
8
IO
10
1143
20
638.5
30
0
40
6
1
Signal2
7
TextElementIO
72
0
11
1143
21
638.5
31
0
2
SIGNAL
70
0
74
2
0
ATTRIB
8
IO
10
1143
20
624.5
30
0
40
6
1
Condition2
7
TextElementIO
72
0
11
1143
21
624.5
31
0
2
CONDITION
70
0
74
2
0
SEQEND
0
INSERT
2
ANDGATE
8
ELEMENTS
10
480
20
616
30
0
66
1
0
ATTRIB
8
ELEMENTS
10
510
20
616
30
0
40
10
1
0
7
TextElementGate
72
1
11
510
21
616
31
0
2
ID
70
1
74
2
0
ATTRIB
8
ELEMENTS
10
495
20
631
30
0
40
10
1
&
7
TextElementGate
72
1
11
495
21
631
31
0
2
TEXT
70
0
74
2
0
SEQEND
0
LINE
8
WIRES
62
256
39
0
10
480
20
691
30
0
11
495
21
691
31
0
210
0
220
0
230
1
0
LINE
8
WIRES
62
256
39
0
10
495
20
691
30
0
11
495
21
646
31
0
210
0
220
0
230
1
0
LINE
8
WIRES
62
256
39
0
10
465
20
631
30
0
11
480
21
631
31
0
210
0
220
0
230
1
0
LINE
8
WIRES
62
256
39
0
10
510
20
631
30
0
11
930
21
631
31
0
210
0
220
0
230
1
0
INSERT
2
INPUT
8
IO
10
45
20
466
30
0
66
1
0
ATTRIB
8
IO
10
333
20
466
30
0
40
6
1
2
7
TextElementIO
72
0
11
333
21
466
31
0
2
ID
70
1
74
2
0
ATTRIB
8
IO
10
333
20
496
30
0
40
6
1
3
7
TextElementIO
72
0
11
333
21
496
31
0
2
TAGID
70
1
74
2
0
ATTRIB
8
IO
10
48
20
488.5
30
0
40
6
1
Designation3
7
TextElementIO
72
0
11
48
21
488.5
31
0
2
DESIGNATION
70
0
74
2
0
ATTRIB
8
IO
10
48
20
474.5
30
0
40
6
1
Description3
7
TextElementIO
72
0
11
48
21
474.5
31
0
2
DESCRIPTION
70
0
74
2
0
ATTRIB
8
IO
10
258
20
488.5
30
0
40
6
1
Signal3
7
TextElementIO
72
0
11
258
21
488.5
31
0
2
SIGNAL
70
0
74
2
0
ATTRIB
8
IO
10
258
20
474.5
30
0
40
6
1
Condition3
7
TextElementIO
72
0
11
258
21
474.5
31
0
2
CONDITION
70
0
74
2
0
SEQEND
0
INSERT
2
INPUT
8
IO
10
45
20
406
30
0
66
1
0
ATTRIB
8
IO
10
333
20
406
30
0
40
6
1
3
7
TextElementIO
72
0
11
333
21
406
31
0
2
ID
70
1
74
2
0
ATTRIB
8
IO
10
333
20
436
30
0
40
6
1
4
7
TextElementIO
72
0
11
333
21
436
31
0
2
TAGID
70
1
74
2
0
ATTRIB
8
IO
10
48
20
428.5
30
0
40
6
1
Designation4
7
TextElementIO
72
0
11
48
21
428.5
31
0
2
DESIGNATION
70
0
74
2
0
ATTRIB
8
IO
10
48
20
414.5
30
0
40
6
1
Description4
7
TextElementIO
72
0
11
48
21
414.5
31
0
2
DESCRIPTION
70
0
74
2
0
ATTRIB
8
IO
10
258
20
428.5
30
0
40
6
1
Signal4
7
TextElementIO
72
0
11
258
21
428.5
31
0
2
SIGNAL
70
0
74
2
0
ATTRIB
8
IO
10
258
20
414.5
30
0
40
6
1
Condition4
7
TextElementIO
72
0
11
258
21
414.5
31
0
2
CONDITION
70
0
74
2
0
SEQEND
0
INSERT
2
OUTPUT
8
IO
10
930
20
406
30
0
66
1
0
ATTRIB
8
IO
10
1218
20
406
30
0
40
6
1
1
7
TextElementIO
72
0
11
1218
21
406
31
0
2
ID
70
1
74
2
0
ATTRIB
8
IO
10
1218
20
436
30
0
40
6
1
5
7
TextElementIO
72
0
11
1218
21
436
31
0
2
TAGID
70
1
74
2
0
ATTRIB
8
IO
10
933
20
428.5
30
0
40
6
1
Designation5
7
TextElementIO
72
0
11
933
21
428.5
31
0
2
DESIGNATION
70
0
74
2
0
ATTRIB
8
IO
10
933
20
414.5
30
0
40
6
1
Description5
7
TextElementIO
72
0
11
933
21
414.5
31
0
2
DESCRIPTION
70
0
74
2
0
ATTRIB
8
IO
10
1143
20
428.5
30
0
40
6
1
Signal5
7
TextElementIO
72
0
11
1143
21
428.5
31
0
2
SIGNAL
70
0
74
2
0
ATTRIB
8
IO
10
1143
20
414.5
30
0
40
6
1
Condition5
7
TextElementIO
72
0
11
1143
21
414.5
31
0
2
CONDITION
70
0
74
2
0
SEQEND
0
INSERT
2
ORGATE
8
ELEMENTS
10
480
20
406
30
0
66
1
0
ATTRIB
8
ELEMENTS
10
510
20
406
30
0
40
10
1
0
7
TextElementGate
72
1
11
510
21
406
31
0
2
ID
70
1
74
2
0
ATTRIB
8
ELEMENTS
10
495
20
421
30
0
40
10
1
\U+22651
7
TextElementGate
72
1
11
495
21
421
31
0
2
TEXT
70
0
74
2
0
SEQEND
0
LINE
8
WIRES
62
256
39
0
10
480
20
481
30
0
11
495
21
481
31
0
210
0
220
0
230
1
0
LINE
8
WIRES
62
256
39
0
10
495
20
481
30
0
11
495
21
436
31
0
210
0
220
0
230
1
0
LINE
8
WIRES
62
256
39
0
10
465
20
421
30
0
11
480
21
421
31
0
210
0
220
0
230
1
0
LINE
8
WIRES
62
256
39
0
10
510
20
421
30
0
11
930
21
421
31
0
210
0
220
0
230
1
0
ENDSEC
0
EOF
