999
Diagram
0
SECTION
2
HEADER
9
$ACADVER
1
AC1009
9
$INSBASE
10
0.0
20
0.0
30
0.0
9
$EXTMIN
10
0.0
20
0.0
9
$EXTMAX
10
1260.0
20
891.0
9
$LIMMIN
10
0.0
20
0.0
9
$LIMMAX
10
1260.0
20
891.0
0
ENDSEC
0
SECTION
2
TABLES
0
TABLE
2
APPID
70
1
0
APPID
2
CDE
70
0
0
ENDTAB
0
TABLE
2
LAYER
70
6
0
LAYER
2
FRAME
70
0
62
8
6
CONTINUOUS
0
LAYER
2
GRID
70
0
62
9
6
CONTINUOUS
0
LAYER
2
TABLE
70
0
62
8
6
CONTINUOUS
0
LAYER
2
IO
70
0
62
6
6
CONTINUOUS
0
LAYER
2
WIRES
70
0
62
5
6
CONTINUOUS
0
LAYER
2
ELEMENTS
70
0
62
5
6
CONTINUOUS
0
ENDTAB
0
TABLE
2
LTYPE
70
1
0
ENDTAB
0
TABLE
2
STYLE
70
8
0
STYLE
2
TEXTHEADERSMALL
70
0
40
0
41
1
50
0
71
0
42
0
3
arial.ttf
4

0
STYLE
2
TEXTHEADERLARGE
70
0
40
0
41
1
50
0
71
0
42
0
3
arial.ttf
4

0
STYLE
2
TEXTNUMBER
70
0
40
0
41
1
50
0
71
0
42
0
3
arial.ttf
4

0
STYLE
2
TEXTTABLEHEADER
70
0
40
0
41
1
50
0
71
0
42
0
3
arial.ttf
4

0
STYLE
2
TEXTTABLETEXT
70
0
40
0
41
1
50
0
71
0
42
0
3
arial.ttf
4

0
STYLE
2
TEXTNUMBER
70
0
40
0
41
1
50
0
71
0
42
0
3
arial.ttf
4

0
STYLE
2
TEXTGATE
70
0
40
0
41
1
50
0
71
0
42
0
3
arial.ttf
4

0
STYLE
2
TEXTIO
70
0
40
0
41
1
50
0
71
0
42
0
3
arial.ttf
4

0
ENDTAB
0
TABLE
2
VIEW
70
1
0
VIEW
2
DIAGRAM
70
0
40
891.0
10
630.0
20
445.5
41
1260.0
11
0
21
0
31
0
12
0
22
0
32
0
43
0
44
0
50
0
0
ENDTAB
0
ENDSEC
0
SECTION
2
BLOCKS
0
BLOCK
2
FRAME
70
0
10
0
20
0
30
0
0
LINE
8
FRAME
62
0
39
0.13
10
330
20
856
30
856
11
930
21
856
31
856
0
LINE
8
FRAME
62
0
39
0.13
10
930
20
106
30
106
11
330
21
106
31
106
0
LINE
8
FRAME
62
0
39
0.13
10
330
20
106
30
106
11
330
21
876
31
876
0
LINE
8
FRAME
62
0
39
0.13
10
930
20
876
30
876
11
930
21
106
31
106
0
LINE
8
FRAME
62
0
39
0.13
10
15
20
876
30
876
11
1245
21
876
31
876
0
LINE
8
FRAME
62
0
39
0.13
10
1245
20
75
30
75
11
15
21
75
31
75
0
LINE
8
FRAME
62
0
39
0.13
10
15
20
15
30
15
11
1245
21
15
31
15
0
LINE
8
FRAME
62
0
39
0.13
10
1245
20
15
30
15
11
1245
21
876
31
876
0
LINE
8
FRAME
62
0
39
0.13
10
15
20
876
30
876
11
15
21
15
31
15
0
LINE
8
FRAME
62
0
39
0.13
10
1
20
890
30
890
11
1259
21
890
31
890
0
LINE
8
FRAME
62
0
39
0.13
10
1259
20
1
30
1
11
1
21
1
31
1
0
LINE
8
FRAME
62
0
39
0.13
10
1
20
1
30
1
11
1
21
890
31
890
0
LINE
8
FRAME
62
0
39
0.13
10
1259
20
890
30
890
11
1259
21
1
31
1
0
LINE
8
FRAME
62
0
39
0.13
10
45
20
856
30
856
11
45
21
106
31
106
0
LINE
8
FRAME
62
0
39
0.13
10
255
20
106
30
106
11
255
21
856
31
856
0
LINE
8
FRAME
62
0
39
0.13
10
330
20
856
30
856
11
15
21
856
31
856
0
LINE
8
FRAME
62
0
39
0.13
10
15
20
106
30
106
11
330
21
106
31
106
0
LINE
8
FRAME
62
0
39
0.13
10
15
20
826
30
826
11
330
21
826
31
826
0
LINE
8
FRAME
62
0
39
0.13
10
15
20
796
30
796
11
330
21
796
31
796
0
LINE
8
FRAME
62
0
39
0.13
10
15
20
766
30
766
11
330
21
766
31
766
0
LINE
8
FRAME
62
0
39
0.13
10
15
20
736
30
736
11
330
21
736
31
736
0
LINE
8
FRAME
62
0
39
0.13
10
15
20
706
30
706
11
330
21
706
31
706
0
LINE
8
FRAME
62
0
39
0.13
10
15
20
676
30
676
11
330
21
676
31
676
0
LINE
8
FRAME
62
0
39
0.13
10
15
20
646
30
646
11
330
21
646
31
646
0
LINE
8
FRAME
62
0
39
0.13
10
15
20
616
30
616
11
330
21
616
31
616
0
LINE
8
FRAME
62
0
39
0.13
10
15
20
586
30
586
11
330
21
586
31
586
0
LINE
8
FRAME
62
0
39
0.13
10
15
20
556
30
556
11
330
21
556
31
556
0
LINE
8
FRAME
62
0
39
0.13
10
15
20
526
30
526
11
330
21
526
31
526
0
LINE
8
FRAME
62
0
39
0.13
10
15
20
496
30
496
11
330
21
496
31
496
0
LINE
8
FRAME
62
0
39
0.13
10
15
20
466
30
466
11
330
21
466
31
466
0
LINE
8
FRAME
62
0
39
0.13
10
15
20
436
30
436
11
330
21
436
31
436
0
LINE
8
FRAME
62
0
39
0.13
10
15
20
406
30
406
11
330
21
406
31
406
0
LINE
8
FRAME
62
0
39
0.13
10
15
20
376
30
376
11
330
21
376
31
376
0
LINE
8
FRAME
62
0
39
0.13
10
15
20
346
30
346
11
330
21
346
31
346
0
LINE
8
FRAME
62
0
39
0.13
10
15
20
316
30
316
11
330
21
316
31
316
0
LINE
8
FRAME
62
0
39
0.13
10
15
20
286
30
286
11
330
21
286
31
286
0
LINE
8
FRAME
62
0
39
0.13
10
15
20
256
30
256
11
330
21
256
31
256
0
LINE
8
FRAME
62
0
39
0.13
10
15
20
226
30
226
11
330
21
226
31
226
0
LINE
8
FRAME
62
0
39
0.13
10
15
20
196
30
196
11
330
21
196
31
196
0
LINE
8
FRAME
62
0
39
0.13
10
15
20
166
30
166
11
330
21
166
31
166
0
LINE
8
FRAME
62
0
39
0.13
10
15
20
136
30
136
11
330
21
136
31
136
0
LINE
8
FRAME
62
0
39
0.13
10
1140
20
856
30
856
11
1140
21
106
31
106
0
LINE
8
FRAME
62
0
39
0.13
10
1215
20
106
30
106
11
1215
21
856
31
856
0
LINE
8
FRAME
62
0
39
0.13
10
1245
20
856
30
856
11
930
21
856
31
856
0
LINE
8
FRAME
62
0
39
0.13
10
930
20
106
30
106
11
1245
21
106
31
106
0
LINE
8
FRAME
62
0
39
0.13
10
930
20
826
30
826
11
1245
21
826
31
826
0
LINE
8
FRAME
62
0
39
0.13
10
930
20
796
30
796
11
1245
21
796
31
796
0
LINE
8
FRAME
62
0
39
0.13
10
930
20
766
30
766
11
1245
21
766
31
766
0
LINE
8
FRAME
62
0
39
0.13
10
930
20
736
30
736
11
1245
21
736
31
736
0
LINE
8
FRAME
62
0
39
0.13
10
930
20
706
30
706
11
1245
21
706
31
706
0
LINE
8
FRAME
62
0
39
0.13
10
930
20
676
30
676
11
1245
21
676
31
676
0
LINE
8
FRAME
62
0
39
0.13
10
930
20
646
30
646
11
1245
21
646
31
646
0
LINE
8
FRAME
62
0
39
0.13
10
930
20
616
30
616
11
1245
21
616
31
616
0
LINE
8
FRAME
62
0
39
0.13
10
930
20
586
30
586
11
1245
21
586
31
586
0
LINE
8
FRAME
62
0
39
0.13
10
930
20
556
30
556
11
1245
21
556
31
556
0
LINE
8
FRAME
62
0
39
0.13
10
930
20
526
30
526
11
1245
21
526
31
526
0
LINE
8
FRAME
62
0
39
0.13
10
930
20
496
30
496
11
1245
21
496
31
496
0
LINE
8
FRAME
62
0
39
0.13
10
930
20
466
30
466
11
1245
21
466
31
466
0
LINE
8
FRAME
62
0
39
0.13
10
930
20
436
30
436
11
1245
21
436
31
436
0
LINE
8
FRAME
62
0
39
0.13
10
930
20
406
30
406
11
1245
21
406
31
406
0
LINE
8
FRAME
62
0
39
0.13
10
930
20
376
30
376
11
1245
21
376
31
376
0
LINE
8
FRAME
62
0
39
0.13
10
930
20
346
30
346
11
1245
21
346
31
346
0
LINE
8
FRAME
62
0
39
0.13
10
930
20
316
30
316
11
1245
21
316
31
316
0
LINE
8
FRAME
62
0
39
0.13
10
930
20
286
30
286
11
1245
21
286
31
286
0
LINE
8
FRAME
62
0
39
0.13
10
930
20
256
30
256
11
1245
21
256
31
256
0
LINE
8
FRAME
62
0
39
0.13
10
930
20
226
30
226
11
1245
21
226
31
226
0
LINE
8
FRAME
62
0
39
0.13
10
930
20
196
30
196
11
1245
21
196
31
196
0
LINE
8
FRAME
62
0
39
0.13
10
930
20
166
30
166
11
1245
21
166
31
166
0
LINE
8
FRAME
62
0
39
0.13
10
930
20
136
30
136
11
1245
21
136
31
136
0
ENDBLK
0
BLOCK
2
TABLE
70
0
10
0
20
0
30
0
0
LINE
8
TABLE
62
0
39
0.13
10
15
20
-771
30
-771
11
190
21
-771
31
-771
0
LINE
8
TABLE
62
0
39
0.13
10
420
20
-771
30
-771
11
1245
21
-771
31
-771
0
LINE
8
TABLE
62
0
39
0.13
10
1245
20
-786
30
-786
11
980
21
-786
31
-786
0
LINE
8
TABLE
62
0
39
0.13
10
710
20
-786
30
-786
11
420
21
-786
31
-786
0
LINE
8
TABLE
62
0
39
0.13
10
190
20
-786
30
-786
11
15
21
-786
31
-786
0
LINE
8
TABLE
62
0
39
0.13
10
15
20
-801
30
-801
11
190
21
-801
31
-801
0
LINE
8
TABLE
62
0
39
0.13
10
420
20
-801
30
-801
11
710
21
-801
31
-801
0
LINE
8
TABLE
62
0
39
0.13
10
980
20
-801
30
-801
11
1245
21
-801
31
-801
0
LINE
8
TABLE
62
0
39
0.13
10
45
20
-756
30
-756
11
45
21
-816
31
-816
0
LINE
8
TABLE
62
0
39
0.13
10
90
20
-756
30
-756
11
90
21
-816
31
-816
0
LINE
8
TABLE
62
0
39
0.13
10
190
20
-816
30
-816
11
190
21
-756
31
-756
0
LINE
8
TABLE
62
0
39
0.13
10
305
20
-756
30
-756
11
305
21
-816
31
-816
0
LINE
8
TABLE
62
0
39
0.13
10
420
20
-816
30
-816
11
420
21
-756
31
-756
0
LINE
8
TABLE
62
0
39
0.13
10
480
20
-756
30
-756
11
480
21
-816
31
-816
0
LINE
8
TABLE
62
0
39
0.13
10
620
20
-816
30
-816
11
620
21
-756
31
-756
0
LINE
8
TABLE
62
0
39
0.13
10
665
20
-756
30
-756
11
665
21
-816
31
-816
0
LINE
8
TABLE
62
0
39
0.13
10
710
20
-816
30
-816
11
710
21
-756
31
-756
0
LINE
8
TABLE
62
0
39
0.13
10
980
20
-756
30
-756
11
980
21
-816
31
-816
0
LINE
8
TABLE
62
0
39
0.13
10
1020
20
-816
30
-816
11
1020
21
-756
31
-756
0
LINE
8
TABLE
62
0
39
0.13
10
1060
20
-756
30
-756
11
1060
21
-816
31
-816
0
LINE
8
TABLE
62
0
39
0.13
10
1115
20
-816
30
-816
11
1115
21
-756
31
-756
0
ENDBLK
0
BLOCK
2
GRID
70
0
10
0
20
0
30
0
0
ENDBLK
0
BLOCK
2
INPUT
3
INPUT
70
2
10
0
20
0
30
0
0
LINE
8
IO
62
0
39
0.25
10
0
20
30
30
30
11
285
21
30
31
30
0
LINE
8
IO
62
0
39
0.25
10
285
20
0
30
0
11
0
21
0
31
0
0
LINE
8
IO
62
0
39
0.25
10
0
20
0
30
0
11
0
21
30
31
30
0
LINE
8
IO
62
0
39
0.25
10
210
20
30
30
30
11
210
21
0
31
0
0
LINE
8
IO
62
0
39
0.25
10
285
20
0
30
0
11
285
21
30
31
30
0
ATTDEF
8
IO
1
TAGID
2
TAGID
3
TAGID
7
TEXTIO
40
6
10
288
20
0
30
0
11
288
21
0
31
0
70
1
74
2
0
ATTDEF
8
IO
1
DESIGNATION
2
DESIGNATION
3
DESIGNATION
7
TEXTIO
40
6
10
3
20
21.5
30
21.5
11
3
21
21.5
31
21.5
70
0
74
2
0
ATTDEF
8
IO
1
DESCRIPTION
2
DESCRIPTION
3
DESCRIPTION
7
TEXTIO
40
6
10
3
20
7.5
30
7.5
11
3
21
7.5
31
7.5
70
0
74
2
0
ATTDEF
8
IO
1
SIGNAL
2
SIGNAL
3
SIGNAL
7
TEXTIO
40
6
10
213
20
21.5
30
21.5
11
213
21
21.5
31
21.5
70
0
74
2
0
ATTDEF
8
IO
1
CONDITION
2
CONDITION
3
CONDITION
7
TEXTIO
40
6
10
213
20
7.5
30
7.5
11
213
21
7.5
31
7.5
70
0
74
2
0
ENDBLK
0
BLOCK
2
OUTPUT
3
OUTPUT
70
2
10
0
20
0
30
0
0
LINE
8
IO
62
0
39
0.25
10
0
20
30
30
30
11
285
21
30
31
30
0
LINE
8
IO
62
0
39
0.25
10
285
20
0
30
0
11
0
21
0
31
0
0
LINE
8
IO
62
0
39
0.25
10
0
20
0
30
0
11
0
21
30
31
30
0
LINE
8
IO
62
0
39
0.25
10
210
20
30
30
30
11
210
21
0
31
0
0
LINE
8
IO
62
0
39
0.25
10
285
20
0
30
0
11
285
21
30
31
30
0
ATTDEF
8
IO
1
TAGID
2
TAGID
3
TAGID
7
TEXTIO
40
6
10
288
20
0
30
0
11
288
21
0
31
0
70
1
74
2
0
ATTDEF
8
IO
1
DESIGNATION
2
DESIGNATION
3
DESIGNATION
7
TEXTIO
40
6
10
3
20
21.5
30
21.5
11
3
21
21.5
31
21.5
70
0
74
2
0
ATTDEF
8
IO
1
DESCRIPTION
2
DESCRIPTION
3
DESCRIPTION
7
TEXTIO
40
6
10
3
20
7.5
30
7.5
11
3
21
7.5
31
7.5
70
0
74
2
0
ATTDEF
8
IO
1
SIGNAL
2
SIGNAL
3
SIGNAL
7
TEXTIO
40
6
10
213
20
21.5
30
21.5
11
213
21
21.5
31
21.5
70
0
74
2
0
ATTDEF
8
IO
1
CONDITION
2
CONDITION
3
CONDITION
7
TEXTIO
40
6
10
213
20
7.5
30
7.5
11
213
21
7.5
31
7.5
70
0
74
2
0
ENDBLK
0
BLOCK
2
ANDGATE
3
ANDGATE
70
0
10
0
20
0
30
0
0
LINE
8
ELEMENTS
62
0
39
0.35
10
0
20
30
30
30
11
30
21
30
31
30
0
LINE
8
ELEMENTS
62
0
39
0.35
10
0
20
0
30
0
11
30
21
0
31
0
0
LINE
8
ELEMENTS
62
0
39
0.35
10
0
20
30
30
30
11
0
21
0
31
0
0
LINE
8
ELEMENTS
62
0
39
0.35
10
30
20
30
30
30
11
30
21
0
31
0
0
TEXT
8
ELEMENTS
1
&
7
TEXTGATE
40
10
10
15
20
0
30
0
11
15
21
15
31
15
72
1
73
2
0
ENDBLK
0
BLOCK
2
ORGATE
3
ORGATE
70
0
10
0
20
0
30
0
0
LINE
8
ELEMENTS
62
0
39
0.35
10
0
20
30
30
30
11
30
21
30
31
30
0
LINE
8
ELEMENTS
62
0
39
0.35
10
0
20
0
30
0
11
30
21
0
31
0
0
LINE
8
ELEMENTS
62
0
39
0.35
10
0
20
30
30
30
11
0
21
0
31
0
0
LINE
8
ELEMENTS
62
0
39
0.35
10
30
20
30
30
30
11
30
21
0
31
0
0
TEXT
8
ELEMENTS
1
\U+22651
7
TEXTGATE
40
10
10
15
20
0
30
0
11
15
21
15
31
15
72
1
73
2
0
ENDBLK
0
ENDSEC
0
SECTION
2
ENTITIES
0
INSERT
2
FRAME
8
FRAME
10
0
20
0
30
0
0
INSERT
2
GRID
8
TABLE
10
0
20
831
30
0
0
INSERT
2
TABLE
8
TABLE
10
0
20
831
30
0
0
INSERT
2
INPUT
8
IO
10
45
20
676
30
0
66
1
0
ATTRIB
8
IO
1
0
2
TAGID
7
TEXTIO
40
6
10
333
20
706
30
706
11
333
21
706
31
706
70
1
74
2
0
ATTRIB
8
IO
1
Designation0
2
DESIGNATION
7
TEXTIO
40
6
10
48
20
698.5
30
698.5
11
48
21
698.5
31
698.5
70
0
74
2
0
ATTRIB
8
IO
1
Description0
2
DESCRIPTION
7
TEXTIO
40
6
10
48
20
684.5
30
684.5
11
48
21
684.5
31
684.5
70
0
74
2
0
ATTRIB
8
IO
1
Signal0
2
SIGNAL
7
TEXTIO
40
6
10
258
20
698.5
30
698.5
11
258
21
698.5
31
698.5
70
0
74
2
0
ATTRIB
8
IO
1
Condition0
2
CONDITION
7
TEXTIO
40
6
10
258
20
684.5
30
684.5
11
258
21
684.5
31
684.5
70
0
74
2
0
SEQEND
0
INSERT
2
INPUT
8
IO
10
45
20
616
30
0
66
1
0
ATTRIB
8
IO
1
1
2
TAGID
7
TEXTIO
40
6
10
333
20
646
30
646
11
333
21
646
31
646
70
1
74
2
0
ATTRIB
8
IO
1
Designation1
2
DESIGNATION
7
TEXTIO
40
6
10
48
20
638.5
30
638.5
11
48
21
638.5
31
638.5
70
0
74
2
0
ATTRIB
8
IO
1
Description1
2
DESCRIPTION
7
TEXTIO
40
6
10
48
20
624.5
30
624.5
11
48
21
624.5
31
624.5
70
0
74
2
0
ATTRIB
8
IO
1
Signal1
2
SIGNAL
7
TEXTIO
40
6
10
258
20
638.5
30
638.5
11
258
21
638.5
31
638.5
70
0
74
2
0
ATTRIB
8
IO
1
Condition1
2
CONDITION
7
TEXTIO
40
6
10
258
20
624.5
30
624.5
11
258
21
624.5
31
624.5
70
0
74
2
0
SEQEND
0
INSERT
2
OUTPUT
8
IO
10
930
20
616
30
0
66
1
0
ATTRIB
8
IO
1
2
2
TAGID
7
TEXTIO
40
6
10
1218
20
646
30
646
11
1218
21
646
31
646
70
1
74
2
0
ATTRIB
8
IO
1
Designation2
2
DESIGNATION
7
TEXTIO
40
6
10
933
20
638.5
30
638.5
11
933
21
638.5
31
638.5
70
0
74
2
0
ATTRIB
8
IO
1
Description2
2
DESCRIPTION
7
TEXTIO
40
6
10
933
20
624.5
30
624.5
11
933
21
624.5
31
624.5
70
0
74
2
0
ATTRIB
8
IO
1
Signal2
2
SIGNAL
7
TEXTIO
40
6
10
1143
20
638.5
30
638.5
11
1143
21
638.5
31
638.5
70
0
74
2
0
ATTRIB
8
IO
1
Condition2
2
CONDITION
7
TEXTIO
40
6
10
1143
20
624.5
30
624.5
11
1143
21
624.5
31
624.5
70
0
74
2
0
SEQEND
0
INSERT
2
ANDGATE
8
ELEMENTS
10
480
20
616
30
0
0
LINE
8
WIRES
62
0
39
0.18
10
480
20
691
30
691
11
495
21
691
31
691
0
LINE
8
WIRES
62
0
39
0.18
10
495
20
691
30
691
11
495
21
646
31
646
0
LINE
8
WIRES
62
0
39
0.18
10
465
20
631
30
631
11
480
21
631
31
631
0
LINE
8
WIRES
62
0
39
0.18
10
510
20
631
30
631
11
930
21
631
31
631
0
INSERT
2
INPUT
8
IO
10
45
20
466
30
0
66
1
0
ATTRIB
8
IO
1
3
2
TAGID
7
TEXTIO
40
6
10
333
20
496
30
496
11
333
21
496
31
496
70
1
74
2
0
ATTRIB
8
IO
1
Designation3
2
DESIGNATION
7
TEXTIO
40
6
10
48
20
488.5
30
488.5
11
48
21
488.5
31
488.5
70
0
74
2
0
ATTRIB
8
IO
1
Description3
2
DESCRIPTION
7
TEXTIO
40
6
10
48
20
474.5
30
474.5
11
48
21
474.5
31
474.5
70
0
74
2
0
ATTRIB
8
IO
1
Signal3
2
SIGNAL
7
TEXTIO
40
6
10
258
20
488.5
30
488.5
11
258
21
488.5
31
488.5
70
0
74
2
0
ATTRIB
8
IO
1
Condition3
2
CONDITION
7
TEXTIO
40
6
10
258
20
474.5
30
474.5
11
258
21
474.5
31
474.5
70
0
74
2
0
SEQEND
0
INSERT
2
INPUT
8
IO
10
45
20
406
30
0
66
1
0
ATTRIB
8
IO
1
4
2
TAGID
7
TEXTIO
40
6
10
333
20
436
30
436
11
333
21
436
31
436
70
1
74
2
0
ATTRIB
8
IO
1
Designation4
2
DESIGNATION
7
TEXTIO
40
6
10
48
20
428.5
30
428.5
11
48
21
428.5
31
428.5
70
0
74
2
0
ATTRIB
8
IO
1
Description4
2
DESCRIPTION
7
TEXTIO
40
6
10
48
20
414.5
30
414.5
11
48
21
414.5
31
414.5
70
0
74
2
0
ATTRIB
8
IO
1
Signal4
2
SIGNAL
7
TEXTIO
40
6
10
258
20
428.5
30
428.5
11
258
21
428.5
31
428.5
70
0
74
2
0
ATTRIB
8
IO
1
Condition4
2
CONDITION
7
TEXTIO
40
6
10
258
20
414.5
30
414.5
11
258
21
414.5
31
414.5
70
0
74
2
0
SEQEND
0
INSERT
2
OUTPUT
8
IO
10
930
20
406
30
0
66
1
0
ATTRIB
8
IO
1
5
2
TAGID
7
TEXTIO
40
6
10
1218
20
436
30
436
11
1218
21
436
31
436
70
1
74
2
0
ATTRIB
8
IO
1
Designation5
2
DESIGNATION
7
TEXTIO
40
6
10
933
20
428.5
30
428.5
11
933
21
428.5
31
428.5
70
0
74
2
0
ATTRIB
8
IO
1
Description5
2
DESCRIPTION
7
TEXTIO
40
6
10
933
20
414.5
30
414.5
11
933
21
414.5
31
414.5
70
0
74
2
0
ATTRIB
8
IO
1
Signal5
2
SIGNAL
7
TEXTIO
40
6
10
1143
20
428.5
30
428.5
11
1143
21
428.5
31
428.5
70
0
74
2
0
ATTRIB
8
IO
1
Condition5
2
CONDITION
7
TEXTIO
40
6
10
1143
20
414.5
30
414.5
11
1143
21
414.5
31
414.5
70
0
74
2
0
SEQEND
0
INSERT
2
ORGATE
8
ELEMENTS
10
480
20
406
30
0
0
LINE
8
WIRES
62
0
39
0.18
10
480
20
481
30
481
11
495
21
481
31
481
0
LINE
8
WIRES
62
0
39
0.18
10
495
20
481
30
481
11
495
21
436
31
436
0
LINE
8
WIRES
62
0
39
0.18
10
465
20
421
30
421
11
480
21
421
31
421
0
LINE
8
WIRES
62
0
39
0.18
10
510
20
421
30
421
11
930
21
421
31
421
0
ENDSEC
0
EOF
