999
Diagram
0
SECTION
2
HEADER
9
$ACADVER
1
AC1006
9
$INSBASE
10
0.0
20
0.0
30
0.0
9
$EXTMIN
10
0.0
20
0.0
9
$EXTMAX
10
1260.0
20
891.0
9
$LIMMIN
10
0.0
20
0.0
9
$LIMMAX
10
1260.0
20
891.0
0
ENDSEC
0
SECTION
2
TABLES
0
TABLE
2
LTYPE
70
1
0
LTYPE
2
CONTINUOUS
70
64
3
Solid line
72
65
73
0
40
0.000000
0
ENDTAB
0
TABLE
2
LAYER
70
6
0
LAYER
2
FRAME
70
64
62
8
6
CONTINUOUS
0
LAYER
2
GRID
70
64
62
9
6
CONTINUOUS
0
LAYER
2
TABLE
70
64
62
8
6
CONTINUOUS
0
LAYER
2
IO
70
64
62
6
6
CONTINUOUS
0
LAYER
2
WIRES
70
64
62
5
6
CONTINUOUS
0
LAYER
2
ELEMENTS
70
64
62
5
6
CONTINUOUS
0
ENDTAB
0
TABLE
2
STYLE
70
2
0
STYLE
2
TEXTGATE
70
0
3
ARIAL
40
0
41
1
50
0
71
0
42
0
0
STYLE
2
TEXTIO
70
0
3
ARIAL
40
0
41
1
50
0
71
0
42
0
0
ENDTAB
0
ENDSEC
0
SECTION
2
BLOCKS
0
BLOCK
2
FRAME
70
0
10
0
20
0
30
0
0
LINE
8
FRAME
62
0
10
330
20
856
30
0
11
930
21
856
31
0
0
LINE
8
FRAME
62
0
10
930
20
106
30
0
11
330
21
106
31
0
0
LINE
8
FRAME
62
0
10
330
20
106
30
0
11
330
21
876
31
0
0
LINE
8
FRAME
62
0
10
930
20
876
30
0
11
930
21
106
31
0
0
LINE
8
FRAME
62
0
10
15
20
876
30
0
11
1245
21
876
31
0
0
LINE
8
FRAME
62
0
10
1245
20
75
30
0
11
15
21
75
31
0
0
LINE
8
FRAME
62
0
10
15
20
15
30
0
11
1245
21
15
31
0
0
LINE
8
FRAME
62
0
10
1245
20
15
30
0
11
1245
21
876
31
0
0
LINE
8
FRAME
62
0
10
15
20
876
30
0
11
15
21
15
31
0
0
LINE
8
FRAME
62
0
10
1
20
890
30
0
11
1259
21
890
31
0
0
LINE
8
FRAME
62
0
10
1259
20
1
30
0
11
1
21
1
31
0
0
LINE
8
FRAME
62
0
10
1
20
1
30
0
11
1
21
890
31
0
0
LINE
8
FRAME
62
0
10
1259
20
890
30
0
11
1259
21
1
31
0
0
LINE
8
FRAME
62
0
10
45
20
856
30
0
11
45
21
106
31
0
0
LINE
8
FRAME
62
0
10
255
20
106
30
0
11
255
21
856
31
0
0
LINE
8
FRAME
62
0
10
330
20
856
30
0
11
15
21
856
31
0
0
LINE
8
FRAME
62
0
10
15
20
106
30
0
11
330
21
106
31
0
0
LINE
8
FRAME
62
0
10
15
20
826
30
0
11
330
21
826
31
0
0
LINE
8
FRAME
62
0
10
15
20
796
30
0
11
330
21
796
31
0
0
LINE
8
FRAME
62
0
10
15
20
766
30
0
11
330
21
766
31
0
0
LINE
8
FRAME
62
0
10
15
20
736
30
0
11
330
21
736
31
0
0
LINE
8
FRAME
62
0
10
15
20
706
30
0
11
330
21
706
31
0
0
LINE
8
FRAME
62
0
10
15
20
676
30
0
11
330
21
676
31
0
0
LINE
8
FRAME
62
0
10
15
20
646
30
0
11
330
21
646
31
0
0
LINE
8
FRAME
62
0
10
15
20
616
30
0
11
330
21
616
31
0
0
LINE
8
FRAME
62
0
10
15
20
586
30
0
11
330
21
586
31
0
0
LINE
8
FRAME
62
0
10
15
20
556
30
0
11
330
21
556
31
0
0
LINE
8
FRAME
62
0
10
15
20
526
30
0
11
330
21
526
31
0
0
LINE
8
FRAME
62
0
10
15
20
496
30
0
11
330
21
496
31
0
0
LINE
8
FRAME
62
0
10
15
20
466
30
0
11
330
21
466
31
0
0
LINE
8
FRAME
62
0
10
15
20
436
30
0
11
330
21
436
31
0
0
LINE
8
FRAME
62
0
10
15
20
406
30
0
11
330
21
406
31
0
0
LINE
8
FRAME
62
0
10
15
20
376
30
0
11
330
21
376
31
0
0
LINE
8
FRAME
62
0
10
15
20
346
30
0
11
330
21
346
31
0
0
LINE
8
FRAME
62
0
10
15
20
316
30
0
11
330
21
316
31
0
0
LINE
8
FRAME
62
0
10
15
20
286
30
0
11
330
21
286
31
0
0
LINE
8
FRAME
62
0
10
15
20
256
30
0
11
330
21
256
31
0
0
LINE
8
FRAME
62
0
10
15
20
226
30
0
11
330
21
226
31
0
0
LINE
8
FRAME
62
0
10
15
20
196
30
0
11
330
21
196
31
0
0
LINE
8
FRAME
62
0
10
15
20
166
30
0
11
330
21
166
31
0
0
LINE
8
FRAME
62
0
10
15
20
136
30
0
11
330
21
136
31
0
0
LINE
8
FRAME
62
0
10
1140
20
856
30
0
11
1140
21
106
31
0
0
LINE
8
FRAME
62
0
10
1215
20
106
30
0
11
1215
21
856
31
0
0
LINE
8
FRAME
62
0
10
1245
20
856
30
0
11
930
21
856
31
0
0
LINE
8
FRAME
62
0
10
930
20
106
30
0
11
1245
21
106
31
0
0
LINE
8
FRAME
62
0
10
930
20
826
30
0
11
1245
21
826
31
0
0
LINE
8
FRAME
62
0
10
930
20
796
30
0
11
1245
21
796
31
0
0
LINE
8
FRAME
62
0
10
930
20
766
30
0
11
1245
21
766
31
0
0
LINE
8
FRAME
62
0
10
930
20
736
30
0
11
1245
21
736
31
0
0
LINE
8
FRAME
62
0
10
930
20
706
30
0
11
1245
21
706
31
0
0
LINE
8
FRAME
62
0
10
930
20
676
30
0
11
1245
21
676
31
0
0
LINE
8
FRAME
62
0
10
930
20
646
30
0
11
1245
21
646
31
0
0
LINE
8
FRAME
62
0
10
930
20
616
30
0
11
1245
21
616
31
0
0
LINE
8
FRAME
62
0
10
930
20
586
30
0
11
1245
21
586
31
0
0
LINE
8
FRAME
62
0
10
930
20
556
30
0
11
1245
21
556
31
0
0
LINE
8
FRAME
62
0
10
930
20
526
30
0
11
1245
21
526
31
0
0
LINE
8
FRAME
62
0
10
930
20
496
30
0
11
1245
21
496
31
0
0
LINE
8
FRAME
62
0
10
930
20
466
30
0
11
1245
21
466
31
0
0
LINE
8
FRAME
62
0
10
930
20
436
30
0
11
1245
21
436
31
0
0
LINE
8
FRAME
62
0
10
930
20
406
30
0
11
1245
21
406
31
0
0
LINE
8
FRAME
62
0
10
930
20
376
30
0
11
1245
21
376
31
0
0
LINE
8
FRAME
62
0
10
930
20
346
30
0
11
1245
21
346
31
0
0
LINE
8
FRAME
62
0
10
930
20
316
30
0
11
1245
21
316
31
0
0
LINE
8
FRAME
62
0
10
930
20
286
30
0
11
1245
21
286
31
0
0
LINE
8
FRAME
62
0
10
930
20
256
30
0
11
1245
21
256
31
0
0
LINE
8
FRAME
62
0
10
930
20
226
30
0
11
1245
21
226
31
0
0
LINE
8
FRAME
62
0
10
930
20
196
30
0
11
1245
21
196
31
0
0
LINE
8
FRAME
62
0
10
930
20
166
30
0
11
1245
21
166
31
0
0
LINE
8
FRAME
62
0
10
930
20
136
30
0
11
1245
21
136
31
0
0
ENDBLK
0
BLOCK
2
TABLE
70
0
10
0
20
0
30
0
0
LINE
8
TABLE
62
0
10
15
20
-771
30
0
11
190
21
-771
31
0
0
LINE
8
TABLE
62
0
10
420
20
-771
30
0
11
1245
21
-771
31
0
0
LINE
8
TABLE
62
0
10
1245
20
-786
30
0
11
980
21
-786
31
0
0
LINE
8
TABLE
62
0
10
710
20
-786
30
0
11
420
21
-786
31
0
0
LINE
8
TABLE
62
0
10
190
20
-786
30
0
11
15
21
-786
31
0
0
LINE
8
TABLE
62
0
10
15
20
-801
30
0
11
190
21
-801
31
0
0
LINE
8
TABLE
62
0
10
420
20
-801
30
0
11
710
21
-801
31
0
0
LINE
8
TABLE
62
0
10
980
20
-801
30
0
11
1245
21
-801
31
0
0
LINE
8
TABLE
62
0
10
45
20
-756
30
0
11
45
21
-816
31
0
0
LINE
8
TABLE
62
0
10
90
20
-756
30
0
11
90
21
-816
31
0
0
LINE
8
TABLE
62
0
10
190
20
-816
30
0
11
190
21
-756
31
0
0
LINE
8
TABLE
62
0
10
305
20
-756
30
0
11
305
21
-816
31
0
0
LINE
8
TABLE
62
0
10
420
20
-816
30
0
11
420
21
-756
31
0
0
LINE
8
TABLE
62
0
10
480
20
-756
30
0
11
480
21
-816
31
0
0
LINE
8
TABLE
62
0
10
620
20
-816
30
0
11
620
21
-756
31
0
0
LINE
8
TABLE
62
0
10
665
20
-756
30
0
11
665
21
-816
31
0
0
LINE
8
TABLE
62
0
10
710
20
-816
30
0
11
710
21
-756
31
0
0
LINE
8
TABLE
62
0
10
980
20
-756
30
0
11
980
21
-816
31
0
0
LINE
8
TABLE
62
0
10
1020
20
-816
30
0
11
1020
21
-756
31
0
0
LINE
8
TABLE
62
0
10
1060
20
-756
30
0
11
1060
21
-816
31
0
0
LINE
8
TABLE
62
0
10
1115
20
-816
30
0
11
1115
21
-756
31
0
0
ENDBLK
0
BLOCK
2
GRID
70
0
10
0
20
0
30
0
0
ENDBLK
0
BLOCK
2
INPUT
70
0
10
0
20
0
30
0
0
LINE
8
IO
62
0
10
0
20
30
30
0
11
285
21
30
31
0
0
LINE
8
IO
62
0
10
285
20
0
30
0
11
0
21
0
31
0
0
LINE
8
IO
62
0
10
0
20
0
30
0
11
0
21
30
31
0
0
LINE
8
IO
62
0
10
210
20
30
30
0
11
210
21
0
31
0
0
LINE
8
IO
62
0
10
285
20
0
30
0
11
285
21
30
31
0
0
ATTDEF
8
IO
1
TagId
2
TAGID
3
TagId
7
TEXTIO
40
6
10
288
20
0
30
0
11
288
21
0
31
0
70
1
72
0
74
2
0
ATTDEF
8
IO
1
Designation
2
DESIGNATION
3
Designation
7
TEXTIO
40
6
10
3
20
21,5
30
0
11
3
21
21,5
31
0
70
0
72
0
74
2
0
ATTDEF
8
IO
1
Description
2
DESCRIPTION
3
Description
7
TEXTIO
40
6
10
3
20
7,5
30
0
11
3
21
7,5
31
0
70
0
72
0
74
2
0
ATTDEF
8
IO
1
Signal
2
SIGNAL
3
Signal
7
TEXTIO
40
6
10
213
20
21,5
30
0
11
213
21
21,5
31
0
70
0
72
0
74
2
0
ATTDEF
8
IO
1
Condition
2
CONDITION
3
Condition
7
TEXTIO
40
6
10
213
20
7,5
30
0
11
213
21
7,5
31
0
70
0
72
0
74
2
0
ENDBLK
0
BLOCK
2
OUTPUT
70
0
10
0
20
0
30
0
0
LINE
8
IO
62
0
10
0
20
30
30
0
11
285
21
30
31
0
0
LINE
8
IO
62
0
10
285
20
0
30
0
11
0
21
0
31
0
0
LINE
8
IO
62
0
10
0
20
0
30
0
11
0
21
30
31
0
0
LINE
8
IO
62
0
10
210
20
30
30
0
11
210
21
0
31
0
0
LINE
8
IO
62
0
10
285
20
0
30
0
11
285
21
30
31
0
0
ATTDEF
8
IO
1
TagId
2
TAGID
3
TagId
7
TEXTIO
40
6
10
288
20
0
30
0
11
288
21
0
31
0
70
1
72
0
74
2
0
ATTDEF
8
IO
1
Designation
2
DESIGNATION
3
Designation
7
TEXTIO
40
6
10
3
20
21,5
30
0
11
3
21
21,5
31
0
70
0
72
0
74
2
0
ATTDEF
8
IO
1
Description
2
DESCRIPTION
3
Description
7
TEXTIO
40
6
10
3
20
7,5
30
0
11
3
21
7,5
31
0
70
0
72
0
74
2
0
ATTDEF
8
IO
1
Signal
2
SIGNAL
3
Signal
7
TEXTIO
40
6
10
213
20
21,5
30
0
11
213
21
21,5
31
0
70
0
72
0
74
2
0
ATTDEF
8
IO
1
Condition
2
CONDITION
3
Condition
7
TEXTIO
40
6
10
213
20
7,5
30
0
11
213
21
7,5
31
0
70
0
72
0
74
2
0
ENDBLK
0
BLOCK
2
ANDGATE
70
0
10
0
20
0
30
0
0
LINE
8
ELEMENTS
62
0
10
0
20
30
30
0
11
30
21
30
31
0
0
LINE
8
ELEMENTS
62
0
10
0
20
0
30
0
11
30
21
0
31
0
0
LINE
8
ELEMENTS
62
0
10
0
20
30
30
0
11
0
21
0
31
0
0
LINE
8
ELEMENTS
62
0
10
30
20
30
30
0
11
30
21
0
31
0
0
TEXT
8
ELEMENTS
1
&
7
TEXTGATE
40
10
10
15
20
0
30
0
11
15
21
15
31
0
72
1
73
2
0
ENDBLK
0
BLOCK
2
ORGATE
70
0
10
0
20
0
30
0
0
LINE
8
ELEMENTS
62
0
10
0
20
30
30
0
11
30
21
30
31
0
0
LINE
8
ELEMENTS
62
0
10
0
20
0
30
0
11
30
21
0
31
0
0
LINE
8
ELEMENTS
62
0
10
0
20
30
30
0
11
0
21
0
31
0
0
LINE
8
ELEMENTS
62
0
10
30
20
30
30
0
11
30
21
0
31
0
0
TEXT
8
ELEMENTS
1
\U+22651
7
TEXTGATE
40
10
10
15
20
0
30
0
11
15
21
15
31
0
72
1
73
2
0
ENDBLK
0
ENDSEC
0
SECTION
2
ENTITIES
0
INSERT
2
FRAME
8
FRAME
10
0
20
0
30
0
0
INSERT
2
GRID
8
TABLE
10
0
20
831
30
0
0
INSERT
2
TABLE
8
TABLE
10
0
20
831
30
0
0
INSERT
2
INPUT
8
IO
10
45
20
646
30
0
66
1
0
ATTRIB
8
IO
1
0
2
TAGID
7
TEXTIO
40
6
10
333
20
676
30
0
11
333
21
676
31
0
70
1
72
0
74
2
0
ATTRIB
8
IO
1
Designation0
2
DESIGNTION
7
TEXTIO
40
6
10
48
20
668,5
30
0
11
48
21
668,5
31
0
70
0
72
0
74
2
0
ATTRIB
8
IO
1
Description0
2
DESCRIPTION
7
TEXTIO
40
6
10
48
20
654,5
30
0
11
48
21
654,5
31
0
70
0
72
0
74
2
0
ATTRIB
8
IO
1
Signal0
2
SIGNAL
7
TEXTIO
40
6
10
258
20
668,5
30
0
11
258
21
668,5
31
0
70
0
72
0
74
2
0
ATTRIB
8
IO
1
Condition0
2
CONDITION
7
TEXTIO
40
6
10
258
20
654,5
30
0
11
258
21
654,5
31
0
70
0
72
0
74
2
0
SEQEND
0
INSERT
2
ANDGATE
8
ELEMENTS
10
390
20
466
30
0
0
INSERT
2
INPUT
8
IO
10
45
20
526
30
0
66
1
0
ATTRIB
8
IO
1
1
2
TAGID
7
TEXTIO
40
6
10
333
20
556
30
0
11
333
21
556
31
0
70
1
72
0
74
2
0
ATTRIB
8
IO
1
Designation1
2
DESIGNTION
7
TEXTIO
40
6
10
48
20
548,5
30
0
11
48
21
548,5
31
0
70
0
72
0
74
2
0
ATTRIB
8
IO
1
Description1
2
DESCRIPTION
7
TEXTIO
40
6
10
48
20
534,5
30
0
11
48
21
534,5
31
0
70
0
72
0
74
2
0
ATTRIB
8
IO
1
Signal1
2
SIGNAL
7
TEXTIO
40
6
10
258
20
548,5
30
0
11
258
21
548,5
31
0
70
0
72
0
74
2
0
ATTRIB
8
IO
1
Condition1
2
CONDITION
7
TEXTIO
40
6
10
258
20
534,5
30
0
11
258
21
534,5
31
0
70
0
72
0
74
2
0
SEQEND
0
LINE
8
WIRES
62
0
10
390
20
661
30
0
11
405
21
661
31
0
0
LINE
8
WIRES
62
0
10
405
20
661
30
0
11
405
21
496
31
0
0
INSERT
2
INPUT
8
IO
10
45
20
586
30
0
66
1
0
ATTRIB
8
IO
1
2
2
TAGID
7
TEXTIO
40
6
10
333
20
616
30
0
11
333
21
616
31
0
70
1
72
0
74
2
0
ATTRIB
8
IO
1
Designation2
2
DESIGNTION
7
TEXTIO
40
6
10
48
20
608,5
30
0
11
48
21
608,5
31
0
70
0
72
0
74
2
0
ATTRIB
8
IO
1
Description2
2
DESCRIPTION
7
TEXTIO
40
6
10
48
20
594,5
30
0
11
48
21
594,5
31
0
70
0
72
0
74
2
0
ATTRIB
8
IO
1
Signal2
2
SIGNAL
7
TEXTIO
40
6
10
258
20
608,5
30
0
11
258
21
608,5
31
0
70
0
72
0
74
2
0
ATTRIB
8
IO
1
Condition2
2
CONDITION
7
TEXTIO
40
6
10
258
20
594,5
30
0
11
258
21
594,5
31
0
70
0
72
0
74
2
0
SEQEND
0
INSERT
2
INPUT
8
IO
10
45
20
706
30
0
66
1
0
ATTRIB
8
IO
1
3
2
TAGID
7
TEXTIO
40
6
10
333
20
736
30
0
11
333
21
736
31
0
70
1
72
0
74
2
0
ATTRIB
8
IO
1
Designation3
2
DESIGNTION
7
TEXTIO
40
6
10
48
20
728,5
30
0
11
48
21
728,5
31
0
70
0
72
0
74
2
0
ATTRIB
8
IO
1
Description3
2
DESCRIPTION
7
TEXTIO
40
6
10
48
20
714,5
30
0
11
48
21
714,5
31
0
70
0
72
0
74
2
0
ATTRIB
8
IO
1
Signal3
2
SIGNAL
7
TEXTIO
40
6
10
258
20
728,5
30
0
11
258
21
728,5
31
0
70
0
72
0
74
2
0
ATTRIB
8
IO
1
Condition3
2
CONDITION
7
TEXTIO
40
6
10
258
20
714,5
30
0
11
258
21
714,5
31
0
70
0
72
0
74
2
0
SEQEND
0
INSERT
2
OUTPUT
8
IO
10
930
20
466
30
0
66
1
0
ATTRIB
8
IO
1
6
2
TAGID
7
TEXTIO
40
6
10
1218
20
496
30
0
11
1218
21
496
31
0
70
1
72
0
74
2
0
ATTRIB
8
IO
1
Designation6
2
DESIGNTION
7
TEXTIO
40
6
10
933
20
488,5
30
0
11
933
21
488,5
31
0
70
0
72
0
74
2
0
ATTRIB
8
IO
1
Description6
2
DESCRIPTION
7
TEXTIO
40
6
10
933
20
474,5
30
0
11
933
21
474,5
31
0
70
0
72
0
74
2
0
ATTRIB
8
IO
1
Signal6
2
SIGNAL
7
TEXTIO
40
6
10
1143
20
488,5
30
0
11
1143
21
488,5
31
0
70
0
72
0
74
2
0
ATTRIB
8
IO
1
Condition6
2
CONDITION
7
TEXTIO
40
6
10
1143
20
474,5
30
0
11
1143
21
474,5
31
0
70
0
72
0
74
2
0
SEQEND
0
LINE
8
WIRES
62
0
10
420
20
481
30
0
11
930
21
481
31
0
0
INSERT
2
ORGATE
8
ELEMENTS
10
390
20
166
30
0
0
INSERT
2
INPUT
8
IO
10
45
20
316
30
0
66
1
0
ATTRIB
8
IO
1
4
2
TAGID
7
TEXTIO
40
6
10
333
20
346
30
0
11
333
21
346
31
0
70
1
72
0
74
2
0
ATTRIB
8
IO
1
Designation4
2
DESIGNTION
7
TEXTIO
40
6
10
48
20
338,5
30
0
11
48
21
338,5
31
0
70
0
72
0
74
2
0
ATTRIB
8
IO
1
Description4
2
DESCRIPTION
7
TEXTIO
40
6
10
48
20
324,5
30
0
11
48
21
324,5
31
0
70
0
72
0
74
2
0
ATTRIB
8
IO
1
Signal4
2
SIGNAL
7
TEXTIO
40
6
10
258
20
338,5
30
0
11
258
21
338,5
31
0
70
0
72
0
74
2
0
ATTRIB
8
IO
1
Condition4
2
CONDITION
7
TEXTIO
40
6
10
258
20
324,5
30
0
11
258
21
324,5
31
0
70
0
72
0
74
2
0
SEQEND
0
LINE
8
WIRES
62
0
10
390
20
331
30
0
11
405
21
331
31
0
0
LINE
8
WIRES
62
0
10
405
20
331
30
0
11
405
21
196
31
0
0
INSERT
2
INPUT
8
IO
10
45
20
226
30
0
66
1
0
ATTRIB
8
IO
1
5
2
TAGID
7
TEXTIO
40
6
10
333
20
256
30
0
11
333
21
256
31
0
70
1
72
0
74
2
0
ATTRIB
8
IO
1
Designation5
2
DESIGNTION
7
TEXTIO
40
6
10
48
20
248,5
30
0
11
48
21
248,5
31
0
70
0
72
0
74
2
0
ATTRIB
8
IO
1
Description5
2
DESCRIPTION
7
TEXTIO
40
6
10
48
20
234,5
30
0
11
48
21
234,5
31
0
70
0
72
0
74
2
0
ATTRIB
8
IO
1
Signal5
2
SIGNAL
7
TEXTIO
40
6
10
258
20
248,5
30
0
11
258
21
248,5
31
0
70
0
72
0
74
2
0
ATTRIB
8
IO
1
Condition5
2
CONDITION
7
TEXTIO
40
6
10
258
20
234,5
30
0
11
258
21
234,5
31
0
70
0
72
0
74
2
0
SEQEND
0
INSERT
2
OUTPUT
8
IO
10
930
20
166
30
0
66
1
0
ATTRIB
8
IO
1
7
2
TAGID
7
TEXTIO
40
6
10
1218
20
196
30
0
11
1218
21
196
31
0
70
1
72
0
74
2
0
ATTRIB
8
IO
1
Designation7
2
DESIGNTION
7
TEXTIO
40
6
10
933
20
188,5
30
0
11
933
21
188,5
31
0
70
0
72
0
74
2
0
ATTRIB
8
IO
1
Description7
2
DESCRIPTION
7
TEXTIO
40
6
10
933
20
174,5
30
0
11
933
21
174,5
31
0
70
0
72
0
74
2
0
ATTRIB
8
IO
1
Signal7
2
SIGNAL
7
TEXTIO
40
6
10
1143
20
188,5
30
0
11
1143
21
188,5
31
0
70
0
72
0
74
2
0
ATTRIB
8
IO
1
Condition7
2
CONDITION
7
TEXTIO
40
6
10
1143
20
174,5
30
0
11
1143
21
174,5
31
0
70
0
72
0
74
2
0
SEQEND
0
LINE
8
WIRES
62
0
10
420
20
181
30
0
11
930
21
181
31
0
0
ENDSEC
0
EOF
