0
SECTION
2
HEADER
9
$ACADVER
1
AC1015
9
$DWGCODEPAGE
3
ANSI_1250
9
$EXTMAX
10
1260
20
891
9
$EXTMIN
10
0
20
0
9
$INSBASE
10
0.0
20
0.0
30
0.0
9
$LIMMAX
10
1260.0
20
891.0
9
$LIMMIN
10
0.0
20
0.0
9
$INSUNITS
70
4
9
$LUNITS
70
2
9
$LUPREC
70
4
9
$MEASUREMENT
70
1
9
$HANDSEED
5
F3
0
ENDSEC
0
SECTION
2
CLASSES
0
ENDSEC
0
SECTION
2
TABLES
0
TABLE
2
APPID
5
7
100
AcDbSymbolTable
70
2
0
APPID
5
5
100
AcDbSymbolTableRecord
100
AcDbRegAppTableRecord
2
ACAD
70
0
0
APPID
5
6
100
AcDbSymbolTableRecord
100
AcDbRegAppTableRecord
2
CADE
70
0
0
ENDTAB
0
TABLE
2
DIMSTYLE
5
9
100
AcDbSymbolTable
70
1
100
AcDbDimStyleTable
71
1
0
DIMSTYLE
105
8
100
AcDbSymbolTableRecord
100
AcDbDimStyleTableRecord
2
Standard
70
0
0
ENDTAB
0
TABLE
2
BLOCK_RECORD
5
14
100
AcDbSymbolTable
70
10
0
BLOCK_RECORD
5
A
100
AcDbSymbolTableRecord
100
AcDbBlockTableRecord
2
*Model_Space
0
BLOCK_RECORD
5
B
100
AcDbSymbolTableRecord
100
AcDbBlockTableRecord
2
*Paper_Space
0
BLOCK_RECORD
5
C
100
AcDbSymbolTableRecord
100
AcDbBlockTableRecord
2
*Paper_Space0
0
BLOCK_RECORD
5
D
100
AcDbSymbolTableRecord
100
AcDbBlockTableRecord
2
FRAME
0
BLOCK_RECORD
5
E
100
AcDbSymbolTableRecord
100
AcDbBlockTableRecord
2
TABLE
0
BLOCK_RECORD
5
F
100
AcDbSymbolTableRecord
100
AcDbBlockTableRecord
2
GRID
0
BLOCK_RECORD
5
10
100
AcDbSymbolTableRecord
100
AcDbBlockTableRecord
2
INPUT
0
BLOCK_RECORD
5
11
100
AcDbSymbolTableRecord
100
AcDbBlockTableRecord
2
OUTPUT
0
BLOCK_RECORD
5
12
100
AcDbSymbolTableRecord
100
AcDbBlockTableRecord
2
ANDGATE
0
BLOCK_RECORD
5
13
100
AcDbSymbolTableRecord
100
AcDbBlockTableRecord
2
ORGATE
0
ENDTAB
0
TABLE
2
LTYPE
5
18
100
AcDbSymbolTable
70
3
0
LTYPE
5
15
100
AcDbSymbolTableRecord
100
AcDbLinetypeTableRecord
2
ByLayer
70
0
3
ByLayer
72
65
73
0
40
0
0
LTYPE
5
16
100
AcDbSymbolTableRecord
100
AcDbLinetypeTableRecord
2
ByBlock
70
0
3
ByBlock
72
65
73
0
40
0
0
LTYPE
5
17
100
AcDbSymbolTableRecord
100
AcDbLinetypeTableRecord
2
Continuous
70
0
3
Solid line
72
65
73
0
40
0
0
ENDTAB
0
TABLE
2
LAYER
5
20
100
AcDbSymbolTable
70
7
0
LAYER
5
19
100
AcDbSymbolTableRecord
100
AcDbLayerTableRecord
2
0
70
0
62
1
6
Continuous
290
1
370
-3
390
0
0
LAYER
5
1A
100
AcDbSymbolTableRecord
100
AcDbLayerTableRecord
2
FRAME
70
0
62
8
6
Continuous
290
1
370
13
390
0
0
LAYER
5
1B
100
AcDbSymbolTableRecord
100
AcDbLayerTableRecord
2
GRID
70
0
62
9
6
Continuous
290
1
370
13
390
0
0
LAYER
5
1C
100
AcDbSymbolTableRecord
100
AcDbLayerTableRecord
2
TABLE
70
0
62
8
6
Continuous
290
1
370
13
390
0
0
LAYER
5
1D
100
AcDbSymbolTableRecord
100
AcDbLayerTableRecord
2
IO
70
0
62
6
6
Continuous
290
1
370
25
390
0
0
LAYER
5
1E
100
AcDbSymbolTableRecord
100
AcDbLayerTableRecord
2
WIRES
70
0
62
5
6
Continuous
290
1
370
18
390
0
0
LAYER
5
1F
100
AcDbSymbolTableRecord
100
AcDbLayerTableRecord
2
ELEMENTS
70
0
62
5
6
Continuous
290
1
370
35
390
0
0
ENDTAB
0
TABLE
2
STYLE
5
29
100
AcDbSymbolTable
70
8
0
STYLE
5
21
100
AcDbSymbolTableRecord
100
AcDbTextStyleTableRecord
2
Standard
70
0
40
0
41
1
50
0
71
0
42
0
3
arial.ttf
4

1001
ACAD
1000
Arial
1071
0
0
STYLE
5
22
100
AcDbSymbolTableRecord
100
AcDbTextStyleTableRecord
2
TextFrameHeaderSmall
70
0
40
0
41
1
50
0
71
0
42
0
3
arial.ttf
4

1001
ACAD
1000
Arial
1071
0
0
STYLE
5
23
100
AcDbSymbolTableRecord
100
AcDbTextStyleTableRecord
2
TextFrameHeaderLarge
70
0
40
0
41
1
50
0
71
0
42
0
3
arial.ttf
4

1001
ACAD
1000
Arial
1071
0
0
STYLE
5
24
100
AcDbSymbolTableRecord
100
AcDbTextStyleTableRecord
2
TextFrameNumber
70
0
40
0
41
1
50
0
71
0
42
0
3
arial.ttf
4

1001
ACAD
1000
Arial
1071
0
0
STYLE
5
25
100
AcDbSymbolTableRecord
100
AcDbTextStyleTableRecord
2
TextTableHeader
70
0
40
0
41
1
50
0
71
0
42
0
3
arial.ttf
4

1001
ACAD
1000
Arial
1071
0
0
STYLE
5
26
100
AcDbSymbolTableRecord
100
AcDbTextStyleTableRecord
2
TextTableTag
70
0
40
0
41
1
50
0
71
0
42
0
3
arial.ttf
4

1001
ACAD
1000
Arial
1071
0
0
STYLE
5
27
100
AcDbSymbolTableRecord
100
AcDbTextStyleTableRecord
2
TextElementGate
70
0
40
0
41
1
50
0
71
0
42
0
3
arial.ttf
4

1001
ACAD
1000
Arial
1071
0
0
STYLE
5
28
100
AcDbSymbolTableRecord
100
AcDbTextStyleTableRecord
2
TextElementIO
70
0
40
0
41
1
50
0
71
0
42
0
3
arial.ttf
4

1001
ACAD
1000
Arial
1071
0
0
ENDTAB
0
TABLE
2
UCS
5
2A
100
AcDbSymbolTable
70
0
0
ENDTAB
0
TABLE
2
VIEW
5
2B
100
AcDbSymbolTable
70
1
0
VIEW
5
2D
100
AcDbSymbolTableRecord
100
AcDbViewTableRecord
2
DIAGRAM
70
0
40
891
41
1260
10
630
20
445.5
11
0
21
0
31
0
12
0
22
0
32
0
43
0
44
0
50
0
0
ENDTAB
0
TABLE
2
VPORT
5
2F
100
AcDbSymbolTable
70
1
0
VPORT
5
2E
100
AcDbSymbolTableRecord
100
AcDbViewportTableRecord
2
*Active
70
0
0
ENDTAB
0
ENDSEC
0
SECTION
2
BLOCKS
0
BLOCK
5
31
100
AcDbEntity
8
0
100
AcDbBlockBegin
2
*Model_Space
3
*Model_Space
70
0
10
0
20
0
30
0
0
ENDBLK
5
32
100
AcDbEntity
8
TABLE
100
AcDbBlockEnd
0
BLOCK
5
33
100
AcDbEntity
8
0
100
AcDbBlockBegin
2
*Paper_Space
3
*Paper_Space
70
0
10
0
20
0
30
0
0
ENDBLK
5
34
100
AcDbEntity
8
TABLE
100
AcDbBlockEnd
0
BLOCK
5
35
100
AcDbEntity
8
0
100
AcDbBlockBegin
2
*Paper_Space0
3
*Paper_Space0
70
0
10
0
20
0
30
0
0
ENDBLK
5
36
100
AcDbEntity
8
TABLE
100
AcDbBlockEnd
0
BLOCK
5
37
100
AcDbEntity
8
FRAME
100
AcDbBlockBegin
2
FRAME
3
FRAME
70
2
10
0
20
0
30
0
0
LINE
5
38
100
AcDbEntity
100
AcDbLine
8
FRAME
62
0
39
0
10
330
20
856
30
0
11
930
21
856
31
0
210
0
220
0
230
1
0
LINE
5
39
100
AcDbEntity
100
AcDbLine
8
FRAME
62
0
39
0
10
930
20
106
30
0
11
330
21
106
31
0
210
0
220
0
230
1
0
LINE
5
3A
100
AcDbEntity
100
AcDbLine
8
FRAME
62
0
39
0
10
330
20
106
30
0
11
330
21
876
31
0
210
0
220
0
230
1
0
LINE
5
3B
100
AcDbEntity
100
AcDbLine
8
FRAME
62
0
39
0
10
930
20
876
30
0
11
930
21
106
31
0
210
0
220
0
230
1
0
LINE
5
3C
100
AcDbEntity
100
AcDbLine
8
FRAME
62
0
39
0
10
15
20
876
30
0
11
1245
21
876
31
0
210
0
220
0
230
1
0
LINE
5
3D
100
AcDbEntity
100
AcDbLine
8
FRAME
62
0
39
0
10
1245
20
75
30
0
11
15
21
75
31
0
210
0
220
0
230
1
0
LINE
5
3E
100
AcDbEntity
100
AcDbLine
8
FRAME
62
0
39
0
10
15
20
15
30
0
11
1245
21
15
31
0
210
0
220
0
230
1
0
LINE
5
3F
100
AcDbEntity
100
AcDbLine
8
FRAME
62
0
39
0
10
1245
20
15
30
0
11
1245
21
876
31
0
210
0
220
0
230
1
0
LINE
5
40
100
AcDbEntity
100
AcDbLine
8
FRAME
62
0
39
0
10
15
20
876
30
0
11
15
21
15
31
0
210
0
220
0
230
1
0
LINE
5
41
100
AcDbEntity
100
AcDbLine
8
FRAME
62
0
39
0
10
1
20
890
30
0
11
1259
21
890
31
0
210
0
220
0
230
1
0
LINE
5
42
100
AcDbEntity
100
AcDbLine
8
FRAME
62
0
39
0
10
1259
20
1
30
0
11
1
21
1
31
0
210
0
220
0
230
1
0
LINE
5
43
100
AcDbEntity
100
AcDbLine
8
FRAME
62
0
39
0
10
1
20
1
30
0
11
1
21
890
31
0
210
0
220
0
230
1
0
LINE
5
44
100
AcDbEntity
100
AcDbLine
8
FRAME
62
0
39
0
10
1259
20
890
30
0
11
1259
21
1
31
0
210
0
220
0
230
1
0
LINE
5
45
100
AcDbEntity
100
AcDbLine
8
FRAME
62
0
39
0
10
45
20
856
30
0
11
45
21
106
31
0
210
0
220
0
230
1
0
LINE
5
46
100
AcDbEntity
100
AcDbLine
8
FRAME
62
0
39
0
10
255
20
106
30
0
11
255
21
856
31
0
210
0
220
0
230
1
0
LINE
5
47
100
AcDbEntity
100
AcDbLine
8
FRAME
62
0
39
0
10
330
20
856
30
0
11
15
21
856
31
0
210
0
220
0
230
1
0
LINE
5
48
100
AcDbEntity
100
AcDbLine
8
FRAME
62
0
39
0
10
15
20
106
30
0
11
330
21
106
31
0
210
0
220
0
230
1
0
LINE
5
49
100
AcDbEntity
100
AcDbLine
8
FRAME
62
0
39
0
10
15
20
826
30
0
11
330
21
826
31
0
210
0
220
0
230
1
0
LINE
5
4A
100
AcDbEntity
100
AcDbLine
8
FRAME
62
0
39
0
10
15
20
796
30
0
11
330
21
796
31
0
210
0
220
0
230
1
0
LINE
5
4B
100
AcDbEntity
100
AcDbLine
8
FRAME
62
0
39
0
10
15
20
766
30
0
11
330
21
766
31
0
210
0
220
0
230
1
0
LINE
5
4C
100
AcDbEntity
100
AcDbLine
8
FRAME
62
0
39
0
10
15
20
736
30
0
11
330
21
736
31
0
210
0
220
0
230
1
0
LINE
5
4D
100
AcDbEntity
100
AcDbLine
8
FRAME
62
0
39
0
10
15
20
706
30
0
11
330
21
706
31
0
210
0
220
0
230
1
0
LINE
5
4E
100
AcDbEntity
100
AcDbLine
8
FRAME
62
0
39
0
10
15
20
676
30
0
11
330
21
676
31
0
210
0
220
0
230
1
0
LINE
5
4F
100
AcDbEntity
100
AcDbLine
8
FRAME
62
0
39
0
10
15
20
646
30
0
11
330
21
646
31
0
210
0
220
0
230
1
0
LINE
5
50
100
AcDbEntity
100
AcDbLine
8
FRAME
62
0
39
0
10
15
20
616
30
0
11
330
21
616
31
0
210
0
220
0
230
1
0
LINE
5
51
100
AcDbEntity
100
AcDbLine
8
FRAME
62
0
39
0
10
15
20
586
30
0
11
330
21
586
31
0
210
0
220
0
230
1
0
LINE
5
52
100
AcDbEntity
100
AcDbLine
8
FRAME
62
0
39
0
10
15
20
556
30
0
11
330
21
556
31
0
210
0
220
0
230
1
0
LINE
5
53
100
AcDbEntity
100
AcDbLine
8
FRAME
62
0
39
0
10
15
20
526
30
0
11
330
21
526
31
0
210
0
220
0
230
1
0
LINE
5
54
100
AcDbEntity
100
AcDbLine
8
FRAME
62
0
39
0
10
15
20
496
30
0
11
330
21
496
31
0
210
0
220
0
230
1
0
LINE
5
55
100
AcDbEntity
100
AcDbLine
8
FRAME
62
0
39
0
10
15
20
466
30
0
11
330
21
466
31
0
210
0
220
0
230
1
0
LINE
5
56
100
AcDbEntity
100
AcDbLine
8
FRAME
62
0
39
0
10
15
20
436
30
0
11
330
21
436
31
0
210
0
220
0
230
1
0
LINE
5
57
100
AcDbEntity
100
AcDbLine
8
FRAME
62
0
39
0
10
15
20
406
30
0
11
330
21
406
31
0
210
0
220
0
230
1
0
LINE
5
58
100
AcDbEntity
100
AcDbLine
8
FRAME
62
0
39
0
10
15
20
376
30
0
11
330
21
376
31
0
210
0
220
0
230
1
0
LINE
5
59
100
AcDbEntity
100
AcDbLine
8
FRAME
62
0
39
0
10
15
20
346
30
0
11
330
21
346
31
0
210
0
220
0
230
1
0
LINE
5
5A
100
AcDbEntity
100
AcDbLine
8
FRAME
62
0
39
0
10
15
20
316
30
0
11
330
21
316
31
0
210
0
220
0
230
1
0
LINE
5
5B
100
AcDbEntity
100
AcDbLine
8
FRAME
62
0
39
0
10
15
20
286
30
0
11
330
21
286
31
0
210
0
220
0
230
1
0
LINE
5
5C
100
AcDbEntity
100
AcDbLine
8
FRAME
62
0
39
0
10
15
20
256
30
0
11
330
21
256
31
0
210
0
220
0
230
1
0
LINE
5
5D
100
AcDbEntity
100
AcDbLine
8
FRAME
62
0
39
0
10
15
20
226
30
0
11
330
21
226
31
0
210
0
220
0
230
1
0
LINE
5
5E
100
AcDbEntity
100
AcDbLine
8
FRAME
62
0
39
0
10
15
20
196
30
0
11
330
21
196
31
0
210
0
220
0
230
1
0
LINE
5
5F
100
AcDbEntity
100
AcDbLine
8
FRAME
62
0
39
0
10
15
20
166
30
0
11
330
21
166
31
0
210
0
220
0
230
1
0
LINE
5
60
100
AcDbEntity
100
AcDbLine
8
FRAME
62
0
39
0
10
15
20
136
30
0
11
330
21
136
31
0
210
0
220
0
230
1
0
LINE
5
61
100
AcDbEntity
100
AcDbLine
8
FRAME
62
0
39
0
10
1140
20
856
30
0
11
1140
21
106
31
0
210
0
220
0
230
1
0
LINE
5
62
100
AcDbEntity
100
AcDbLine
8
FRAME
62
0
39
0
10
1215
20
106
30
0
11
1215
21
856
31
0
210
0
220
0
230
1
0
LINE
5
63
100
AcDbEntity
100
AcDbLine
8
FRAME
62
0
39
0
10
1245
20
856
30
0
11
930
21
856
31
0
210
0
220
0
230
1
0
LINE
5
64
100
AcDbEntity
100
AcDbLine
8
FRAME
62
0
39
0
10
930
20
106
30
0
11
1245
21
106
31
0
210
0
220
0
230
1
0
LINE
5
65
100
AcDbEntity
100
AcDbLine
8
FRAME
62
0
39
0
10
930
20
826
30
0
11
1245
21
826
31
0
210
0
220
0
230
1
0
LINE
5
66
100
AcDbEntity
100
AcDbLine
8
FRAME
62
0
39
0
10
930
20
796
30
0
11
1245
21
796
31
0
210
0
220
0
230
1
0
LINE
5
67
100
AcDbEntity
100
AcDbLine
8
FRAME
62
0
39
0
10
930
20
766
30
0
11
1245
21
766
31
0
210
0
220
0
230
1
0
LINE
5
68
100
AcDbEntity
100
AcDbLine
8
FRAME
62
0
39
0
10
930
20
736
30
0
11
1245
21
736
31
0
210
0
220
0
230
1
0
LINE
5
69
100
AcDbEntity
100
AcDbLine
8
FRAME
62
0
39
0
10
930
20
706
30
0
11
1245
21
706
31
0
210
0
220
0
230
1
0
LINE
5
6A
100
AcDbEntity
100
AcDbLine
8
FRAME
62
0
39
0
10
930
20
676
30
0
11
1245
21
676
31
0
210
0
220
0
230
1
0
LINE
5
6B
100
AcDbEntity
100
AcDbLine
8
FRAME
62
0
39
0
10
930
20
646
30
0
11
1245
21
646
31
0
210
0
220
0
230
1
0
LINE
5
6C
100
AcDbEntity
100
AcDbLine
8
FRAME
62
0
39
0
10
930
20
616
30
0
11
1245
21
616
31
0
210
0
220
0
230
1
0
LINE
5
6D
100
AcDbEntity
100
AcDbLine
8
FRAME
62
0
39
0
10
930
20
586
30
0
11
1245
21
586
31
0
210
0
220
0
230
1
0
LINE
5
6E
100
AcDbEntity
100
AcDbLine
8
FRAME
62
0
39
0
10
930
20
556
30
0
11
1245
21
556
31
0
210
0
220
0
230
1
0
LINE
5
6F
100
AcDbEntity
100
AcDbLine
8
FRAME
62
0
39
0
10
930
20
526
30
0
11
1245
21
526
31
0
210
0
220
0
230
1
0
LINE
5
70
100
AcDbEntity
100
AcDbLine
8
FRAME
62
0
39
0
10
930
20
496
30
0
11
1245
21
496
31
0
210
0
220
0
230
1
0
LINE
5
71
100
AcDbEntity
100
AcDbLine
8
FRAME
62
0
39
0
10
930
20
466
30
0
11
1245
21
466
31
0
210
0
220
0
230
1
0
LINE
5
72
100
AcDbEntity
100
AcDbLine
8
FRAME
62
0
39
0
10
930
20
436
30
0
11
1245
21
436
31
0
210
0
220
0
230
1
0
LINE
5
73
100
AcDbEntity
100
AcDbLine
8
FRAME
62
0
39
0
10
930
20
406
30
0
11
1245
21
406
31
0
210
0
220
0
230
1
0
LINE
5
74
100
AcDbEntity
100
AcDbLine
8
FRAME
62
0
39
0
10
930
20
376
30
0
11
1245
21
376
31
0
210
0
220
0
230
1
0
LINE
5
75
100
AcDbEntity
100
AcDbLine
8
FRAME
62
0
39
0
10
930
20
346
30
0
11
1245
21
346
31
0
210
0
220
0
230
1
0
LINE
5
76
100
AcDbEntity
100
AcDbLine
8
FRAME
62
0
39
0
10
930
20
316
30
0
11
1245
21
316
31
0
210
0
220
0
230
1
0
LINE
5
77
100
AcDbEntity
100
AcDbLine
8
FRAME
62
0
39
0
10
930
20
286
30
0
11
1245
21
286
31
0
210
0
220
0
230
1
0
LINE
5
78
100
AcDbEntity
100
AcDbLine
8
FRAME
62
0
39
0
10
930
20
256
30
0
11
1245
21
256
31
0
210
0
220
0
230
1
0
LINE
5
79
100
AcDbEntity
100
AcDbLine
8
FRAME
62
0
39
0
10
930
20
226
30
0
11
1245
21
226
31
0
210
0
220
0
230
1
0
LINE
5
7A
100
AcDbEntity
100
AcDbLine
8
FRAME
62
0
39
0
10
930
20
196
30
0
11
1245
21
196
31
0
210
0
220
0
230
1
0
LINE
5
7B
100
AcDbEntity
100
AcDbLine
8
FRAME
62
0
39
0
10
930
20
166
30
0
11
1245
21
166
31
0
210
0
220
0
230
1
0
LINE
5
7C
100
AcDbEntity
100
AcDbLine
8
FRAME
62
0
39
0
10
930
20
136
30
0
11
1245
21
136
31
0
210
0
220
0
230
1
0
ENDBLK
5
7D
100
AcDbEntity
8
FRAME
100
AcDbBlockEnd
0
BLOCK
5
7E
100
AcDbEntity
8
TABLE
100
AcDbBlockBegin
2
TABLE
3
TABLE
70
0
10
0
20
0
30
0
0
LINE
5
7F
100
AcDbEntity
100
AcDbLine
8
TABLE
62
0
39
0
10
15
20
-771
30
0
11
190
21
-771
31
0
210
0
220
0
230
1
0
LINE
5
80
100
AcDbEntity
100
AcDbLine
8
TABLE
62
0
39
0
10
420
20
-771
30
0
11
1245
21
-771
31
0
210
0
220
0
230
1
0
LINE
5
81
100
AcDbEntity
100
AcDbLine
8
TABLE
62
0
39
0
10
1245
20
-786
30
0
11
980
21
-786
31
0
210
0
220
0
230
1
0
LINE
5
82
100
AcDbEntity
100
AcDbLine
8
TABLE
62
0
39
0
10
710
20
-786
30
0
11
420
21
-786
31
0
210
0
220
0
230
1
0
LINE
5
83
100
AcDbEntity
100
AcDbLine
8
TABLE
62
0
39
0
10
190
20
-786
30
0
11
15
21
-786
31
0
210
0
220
0
230
1
0
LINE
5
84
100
AcDbEntity
100
AcDbLine
8
TABLE
62
0
39
0
10
15
20
-801
30
0
11
190
21
-801
31
0
210
0
220
0
230
1
0
LINE
5
85
100
AcDbEntity
100
AcDbLine
8
TABLE
62
0
39
0
10
420
20
-801
30
0
11
710
21
-801
31
0
210
0
220
0
230
1
0
LINE
5
86
100
AcDbEntity
100
AcDbLine
8
TABLE
62
0
39
0
10
980
20
-801
30
0
11
1245
21
-801
31
0
210
0
220
0
230
1
0
LINE
5
87
100
AcDbEntity
100
AcDbLine
8
TABLE
62
0
39
0
10
45
20
-756
30
0
11
45
21
-816
31
0
210
0
220
0
230
1
0
LINE
5
88
100
AcDbEntity
100
AcDbLine
8
TABLE
62
0
39
0
10
90
20
-756
30
0
11
90
21
-816
31
0
210
0
220
0
230
1
0
LINE
5
89
100
AcDbEntity
100
AcDbLine
8
TABLE
62
0
39
0
10
190
20
-816
30
0
11
190
21
-756
31
0
210
0
220
0
230
1
0
LINE
5
8A
100
AcDbEntity
100
AcDbLine
8
TABLE
62
0
39
0
10
305
20
-756
30
0
11
305
21
-816
31
0
210
0
220
0
230
1
0
LINE
5
8B
100
AcDbEntity
100
AcDbLine
8
TABLE
62
0
39
0
10
420
20
-816
30
0
11
420
21
-756
31
0
210
0
220
0
230
1
0
LINE
5
8C
100
AcDbEntity
100
AcDbLine
8
TABLE
62
0
39
0
10
480
20
-756
30
0
11
480
21
-816
31
0
210
0
220
0
230
1
0
LINE
5
8D
100
AcDbEntity
100
AcDbLine
8
TABLE
62
0
39
0
10
610
20
-816
30
0
11
610
21
-756
31
0
210
0
220
0
230
1
0
LINE
5
8E
100
AcDbEntity
100
AcDbLine
8
TABLE
62
0
39
0
10
655
20
-756
30
0
11
655
21
-816
31
0
210
0
220
0
230
1
0
LINE
5
8F
100
AcDbEntity
100
AcDbLine
8
TABLE
62
0
39
0
10
710
20
-816
30
0
11
710
21
-756
31
0
210
0
220
0
230
1
0
LINE
5
90
100
AcDbEntity
100
AcDbLine
8
TABLE
62
0
39
0
10
980
20
-756
30
0
11
980
21
-816
31
0
210
0
220
0
230
1
0
LINE
5
91
100
AcDbEntity
100
AcDbLine
8
TABLE
62
0
39
0
10
1020
20
-816
30
0
11
1020
21
-756
31
0
210
0
220
0
230
1
0
LINE
5
92
100
AcDbEntity
100
AcDbLine
8
TABLE
62
0
39
0
10
1060
20
-756
30
0
11
1060
21
-816
31
0
210
0
220
0
230
1
0
LINE
5
93
100
AcDbEntity
100
AcDbLine
8
TABLE
62
0
39
0
10
1115
20
-816
30
0
11
1115
21
-756
31
0
210
0
220
0
230
1
0
ENDBLK
5
94
100
AcDbEntity
8
TABLE
100
AcDbBlockEnd
0
BLOCK
5
95
100
AcDbEntity
8
GRID
100
AcDbBlockBegin
2
GRID
3
GRID
70
0
10
0
20
0
30
0
0
ENDBLK
5
96
100
AcDbEntity
8
GRID
100
AcDbBlockEnd
0
BLOCK
5
97
100
AcDbEntity
8
IO
100
AcDbBlockBegin
2
INPUT
3
INPUT
70
2
10
0
20
0
30
0
0
LINE
5
98
100
AcDbEntity
100
AcDbLine
8
IO
62
0
39
0
10
0
20
30
30
0
11
285
21
30
31
0
210
0
220
0
230
1
0
LINE
5
99
100
AcDbEntity
100
AcDbLine
8
IO
62
0
39
0
10
285
20
0
30
0
11
0
21
0
31
0
210
0
220
0
230
1
0
LINE
5
9A
100
AcDbEntity
100
AcDbLine
8
IO
62
0
39
0
10
0
20
0
30
0
11
0
21
30
31
0
210
0
220
0
230
1
0
LINE
5
9B
100
AcDbEntity
100
AcDbLine
8
IO
62
0
39
0
10
210
20
30
30
0
11
210
21
0
31
0
210
0
220
0
230
1
0
LINE
5
9C
100
AcDbEntity
100
AcDbLine
8
IO
62
0
39
0
10
285
20
0
30
0
11
285
21
30
31
0
210
0
220
0
230
1
0
ATTDEF
5
9D
100
AcDbEntity
100
AcDbText
8
IO
10
288
20
30
30
0
40
6
1
ID
7
TextElementIO
72
0
11
288
21
30
31
0
100
AcDbAttributeDefinition
3
ID
2
ID
70
1
74
2
0
ATTDEF
5
9E
100
AcDbEntity
100
AcDbText
8
IO
10
288
20
0
30
0
40
6
1
TAGID
7
TextElementIO
72
0
11
288
21
0
31
0
100
AcDbAttributeDefinition
3
TAGID
2
TAGID
70
1
74
2
0
ATTDEF
5
9F
100
AcDbEntity
100
AcDbText
8
IO
10
3
20
21.5
30
0
40
6
1
DESIGNATION
7
TextElementIO
72
0
11
3
21
21.5
31
0
100
AcDbAttributeDefinition
3
DESIGNATION
2
DESIGNATION
70
0
74
2
0
ATTDEF
5
A0
100
AcDbEntity
100
AcDbText
8
IO
10
3
20
7.5
30
0
40
6
1
DESCRIPTION
7
TextElementIO
72
0
11
3
21
7.5
31
0
100
AcDbAttributeDefinition
3
DESCRIPTION
2
DESCRIPTION
70
0
74
2
0
ATTDEF
5
A1
100
AcDbEntity
100
AcDbText
8
IO
10
213
20
21.5
30
0
40
6
1
SIGNAL
7
TextElementIO
72
0
11
213
21
21.5
31
0
100
AcDbAttributeDefinition
3
SIGNAL
2
SIGNAL
70
0
74
2
0
ATTDEF
5
A2
100
AcDbEntity
100
AcDbText
8
IO
10
213
20
7.5
30
0
40
6
1
CONDITION
7
TextElementIO
72
0
11
213
21
7.5
31
0
100
AcDbAttributeDefinition
3
CONDITION
2
CONDITION
70
0
74
2
0
ENDBLK
5
A3
100
AcDbEntity
8
IO
100
AcDbBlockEnd
0
BLOCK
5
A4
100
AcDbEntity
8
IO
100
AcDbBlockBegin
2
OUTPUT
3
OUTPUT
70
2
10
0
20
0
30
0
0
LINE
5
A5
100
AcDbEntity
100
AcDbLine
8
IO
62
0
39
0
10
0
20
30
30
0
11
285
21
30
31
0
210
0
220
0
230
1
0
LINE
5
A6
100
AcDbEntity
100
AcDbLine
8
IO
62
0
39
0
10
285
20
0
30
0
11
0
21
0
31
0
210
0
220
0
230
1
0
LINE
5
A7
100
AcDbEntity
100
AcDbLine
8
IO
62
0
39
0
10
0
20
0
30
0
11
0
21
30
31
0
210
0
220
0
230
1
0
LINE
5
A8
100
AcDbEntity
100
AcDbLine
8
IO
62
0
39
0
10
210
20
30
30
0
11
210
21
0
31
0
210
0
220
0
230
1
0
LINE
5
A9
100
AcDbEntity
100
AcDbLine
8
IO
62
0
39
0
10
285
20
0
30
0
11
285
21
30
31
0
210
0
220
0
230
1
0
ATTDEF
5
AA
100
AcDbEntity
100
AcDbText
8
IO
10
288
20
30
30
0
40
6
1
ID
7
TextElementIO
72
0
11
288
21
30
31
0
100
AcDbAttributeDefinition
3
ID
2
ID
70
1
74
2
0
ATTDEF
5
AB
100
AcDbEntity
100
AcDbText
8
IO
10
288
20
0
30
0
40
6
1
TAGID
7
TextElementIO
72
0
11
288
21
0
31
0
100
AcDbAttributeDefinition
3
TAGID
2
TAGID
70
1
74
2
0
ATTDEF
5
AC
100
AcDbEntity
100
AcDbText
8
IO
10
3
20
21.5
30
0
40
6
1
DESIGNATION
7
TextElementIO
72
0
11
3
21
21.5
31
0
100
AcDbAttributeDefinition
3
DESIGNATION
2
DESIGNATION
70
0
74
2
0
ATTDEF
5
AD
100
AcDbEntity
100
AcDbText
8
IO
10
3
20
7.5
30
0
40
6
1
DESCRIPTION
7
TextElementIO
72
0
11
3
21
7.5
31
0
100
AcDbAttributeDefinition
3
DESCRIPTION
2
DESCRIPTION
70
0
74
2
0
ATTDEF
5
AE
100
AcDbEntity
100
AcDbText
8
IO
10
213
20
21.5
30
0
40
6
1
SIGNAL
7
TextElementIO
72
0
11
213
21
21.5
31
0
100
AcDbAttributeDefinition
3
SIGNAL
2
SIGNAL
70
0
74
2
0
ATTDEF
5
AF
100
AcDbEntity
100
AcDbText
8
IO
10
213
20
7.5
30
0
40
6
1
CONDITION
7
TextElementIO
72
0
11
213
21
7.5
31
0
100
AcDbAttributeDefinition
3
CONDITION
2
CONDITION
70
0
74
2
0
ENDBLK
5
B0
100
AcDbEntity
8
IO
100
AcDbBlockEnd
0
BLOCK
5
B1
100
AcDbEntity
8
ELEMENTS
100
AcDbBlockBegin
2
ANDGATE
3
ANDGATE
70
2
10
0
20
0
30
0
0
LINE
5
B2
100
AcDbEntity
100
AcDbLine
8
ELEMENTS
62
0
39
0
10
0
20
30
30
0
11
30
21
30
31
0
210
0
220
0
230
1
0
LINE
5
B3
100
AcDbEntity
100
AcDbLine
8
ELEMENTS
62
0
39
0
10
0
20
0
30
0
11
30
21
0
31
0
210
0
220
0
230
1
0
LINE
5
B4
100
AcDbEntity
100
AcDbLine
8
ELEMENTS
62
0
39
0
10
0
20
30
30
0
11
0
21
0
31
0
210
0
220
0
230
1
0
LINE
5
B5
100
AcDbEntity
100
AcDbLine
8
ELEMENTS
62
0
39
0
10
30
20
30
30
0
11
30
21
0
31
0
210
0
220
0
230
1
0
ATTDEF
5
B6
100
AcDbEntity
100
AcDbText
8
ELEMENTS
10
30
20
30
30
0
40
10
1
ID
7
TextElementGate
72
1
11
30
21
30
31
0
100
AcDbAttributeDefinition
3
ID
2
ID
70
1
74
2
0
ATTDEF
5
B7
100
AcDbEntity
100
AcDbText
8
ELEMENTS
10
15
20
15
30
0
40
10
1
TEXT
7
TextElementGate
72
1
11
15
21
15
31
0
100
AcDbAttributeDefinition
3
TEXT
2
TEXT
70
0
74
2
0
ENDBLK
5
B8
100
AcDbEntity
8
ELEMENTS
100
AcDbBlockEnd
0
BLOCK
5
B9
100
AcDbEntity
8
ELEMENTS
100
AcDbBlockBegin
2
ORGATE
3
ORGATE
70
2
10
0
20
0
30
0
0
LINE
5
BA
100
AcDbEntity
100
AcDbLine
8
ELEMENTS
62
0
39
0
10
0
20
30
30
0
11
30
21
30
31
0
210
0
220
0
230
1
0
LINE
5
BB
100
AcDbEntity
100
AcDbLine
8
ELEMENTS
62
0
39
0
10
0
20
0
30
0
11
30
21
0
31
0
210
0
220
0
230
1
0
LINE
5
BC
100
AcDbEntity
100
AcDbLine
8
ELEMENTS
62
0
39
0
10
0
20
30
30
0
11
0
21
0
31
0
210
0
220
0
230
1
0
LINE
5
BD
100
AcDbEntity
100
AcDbLine
8
ELEMENTS
62
0
39
0
10
30
20
30
30
0
11
30
21
0
31
0
210
0
220
0
230
1
0
ATTDEF
5
BE
100
AcDbEntity
100
AcDbText
8
ELEMENTS
10
30
20
30
30
0
40
10
1
ID
7
TextElementGate
72
1
11
30
21
30
31
0
100
AcDbAttributeDefinition
3
ID
2
ID
70
1
74
2
0
ATTDEF
5
BF
100
AcDbEntity
100
AcDbText
8
ELEMENTS
10
15
20
15
30
0
40
10
1
TEXT
7
TextElementGate
72
1
11
15
21
15
31
0
100
AcDbAttributeDefinition
3
TEXT
2
TEXT
70
0
74
2
0
ENDBLK
5
C0
100
AcDbEntity
8
ELEMENTS
100
AcDbBlockEnd
0
ENDSEC
0
SECTION
2
ENTITIES
0
INSERT
5
C2
100
AcDbEntity
100
AcDbBlockReference
2
FRAME
8
FRAME
10
0
20
0
30
0
0
INSERT
5
C3
100
AcDbEntity
100
AcDbBlockReference
2
GRID
8
GRID
10
0
20
831
30
0
0
INSERT
5
C4
100
AcDbEntity
100
AcDbBlockReference
2
TABLE
8
TABLE
10
0
20
831
30
0
0
INSERT
5
C5
100
AcDbEntity
100
AcDbBlockReference
2
INPUT
8
IO
10
45
20
616
30
0
66
1
0
ATTRIB
5
C6
100
AcDbEntity
100
AcDbText
8
IO
10
333
20
616
30
0
40
6
1
0
7
TextElementIO
72
0
11
333
21
616
31
0
100
AcDbAttribute
2
ID
70
1
74
2
0
ATTRIB
5
C7
100
AcDbEntity
100
AcDbText
8
IO
10
333
20
646
30
0
40
6
1
1
7
TextElementIO
72
0
11
333
21
646
31
0
100
AcDbAttribute
2
TAGID
70
1
74
2
0
ATTRIB
5
C8
100
AcDbEntity
100
AcDbText
8
IO
10
48
20
638.5
30
0
40
6
1
Designation1
7
TextElementIO
72
0
11
48
21
638.5
31
0
100
AcDbAttribute
2
DESIGNATION
70
0
74
2
0
ATTRIB
5
C9
100
AcDbEntity
100
AcDbText
8
IO
10
48
20
624.5
30
0
40
6
1
Description1
7
TextElementIO
72
0
11
48
21
624.5
31
0
100
AcDbAttribute
2
DESCRIPTION
70
0
74
2
0
ATTRIB
5
CA
100
AcDbEntity
100
AcDbText
8
IO
10
258
20
638.5
30
0
40
6
1
Signal1
7
TextElementIO
72
0
11
258
21
638.5
31
0
100
AcDbAttribute
2
SIGNAL
70
0
74
2
0
ATTRIB
5
CB
100
AcDbEntity
100
AcDbText
8
IO
10
258
20
624.5
30
0
40
6
1
Condition1
7
TextElementIO
72
0
11
258
21
624.5
31
0
100
AcDbAttribute
2
CONDITION
70
0
74
2
0
SEQEND
5
CC
100
AcDbEntity
8
IO
0
INSERT
5
CD
100
AcDbEntity
100
AcDbBlockReference
2
INPUT
8
IO
10
45
20
436
30
0
66
1
0
ATTRIB
5
CE
100
AcDbEntity
100
AcDbText
8
IO
10
333
20
436
30
0
40
6
1
1
7
TextElementIO
72
0
11
333
21
436
31
0
100
AcDbAttribute
2
ID
70
1
74
2
0
ATTRIB
5
CF
100
AcDbEntity
100
AcDbText
8
IO
10
333
20
466
30
0
40
6
1
3
7
TextElementIO
72
0
11
333
21
466
31
0
100
AcDbAttribute
2
TAGID
70
1
74
2
0
ATTRIB
5
D0
100
AcDbEntity
100
AcDbText
8
IO
10
48
20
458.5
30
0
40
6
1
Designation3
7
TextElementIO
72
0
11
48
21
458.5
31
0
100
AcDbAttribute
2
DESIGNATION
70
0
74
2
0
ATTRIB
5
D1
100
AcDbEntity
100
AcDbText
8
IO
10
48
20
444.5
30
0
40
6
1
Description3
7
TextElementIO
72
0
11
48
21
444.5
31
0
100
AcDbAttribute
2
DESCRIPTION
70
0
74
2
0
ATTRIB
5
D2
100
AcDbEntity
100
AcDbText
8
IO
10
258
20
458.5
30
0
40
6
1
Signal3
7
TextElementIO
72
0
11
258
21
458.5
31
0
100
AcDbAttribute
2
SIGNAL
70
0
74
2
0
ATTRIB
5
D3
100
AcDbEntity
100
AcDbText
8
IO
10
258
20
444.5
30
0
40
6
1
Condition3
7
TextElementIO
72
0
11
258
21
444.5
31
0
100
AcDbAttribute
2
CONDITION
70
0
74
2
0
SEQEND
5
D4
100
AcDbEntity
8
IO
0
INSERT
5
D5
100
AcDbEntity
100
AcDbBlockReference
2
ANDGATE
8
ELEMENTS
10
420
20
346
30
0
66
1
0
ATTRIB
5
D6
100
AcDbEntity
100
AcDbText
8
ELEMENTS
10
450
20
346
30
0
40
10
1
0
7
TextElementGate
72
1
11
450
21
346
31
0
100
AcDbAttribute
2
ID
70
1
74
2
0
ATTRIB
5
D7
100
AcDbEntity
100
AcDbText
8
ELEMENTS
10
435
20
361
30
0
40
10
1
&
7
TextElementGate
72
1
11
435
21
361
31
0
100
AcDbAttribute
2
TEXT
70
0
74
2
0
SEQEND
5
D8
100
AcDbEntity
8
ELEMENTS
0
INSERT
5
D9
100
AcDbEntity
100
AcDbBlockReference
2
OUTPUT
8
IO
10
930
20
346
30
0
66
1
0
ATTRIB
5
DA
100
AcDbEntity
100
AcDbText
8
IO
10
1218
20
346
30
0
40
6
1
0
7
TextElementIO
72
0
11
1218
21
346
31
0
100
AcDbAttribute
2
ID
70
1
74
2
0
ATTRIB
5
DB
100
AcDbEntity
100
AcDbText
8
IO
10
1218
20
376
30
0
40
6
1
0
7
TextElementIO
72
0
11
1218
21
376
31
0
100
AcDbAttribute
2
TAGID
70
1
74
2
0
ATTRIB
5
DC
100
AcDbEntity
100
AcDbText
8
IO
10
933
20
368.5
30
0
40
6
1
Designation0
7
TextElementIO
72
0
11
933
21
368.5
31
0
100
AcDbAttribute
2
DESIGNATION
70
0
74
2
0
ATTRIB
5
DD
100
AcDbEntity
100
AcDbText
8
IO
10
933
20
354.5
30
0
40
6
1
Description0
7
TextElementIO
72
0
11
933
21
354.5
31
0
100
AcDbAttribute
2
DESCRIPTION
70
0
74
2
0
ATTRIB
5
DE
100
AcDbEntity
100
AcDbText
8
IO
10
1143
20
368.5
30
0
40
6
1
Signal0
7
TextElementIO
72
0
11
1143
21
368.5
31
0
100
AcDbAttribute
2
SIGNAL
70
0
74
2
0
ATTRIB
5
DF
100
AcDbEntity
100
AcDbText
8
IO
10
1143
20
354.5
30
0
40
6
1
Condition0
7
TextElementIO
72
0
11
1143
21
354.5
31
0
100
AcDbAttribute
2
CONDITION
70
0
74
2
0
SEQEND
5
E0
100
AcDbEntity
8
IO
0
LINE
5
E1
100
AcDbEntity
100
AcDbLine
8
WIRES
62
0
39
0
10
420
20
631
30
0
11
435
21
631
31
0
210
0
220
0
230
1
0
LINE
5
E2
100
AcDbEntity
100
AcDbLine
8
WIRES
62
0
39
0
10
420
20
451
30
0
11
435
21
451
31
0
210
0
220
0
230
1
0
LINE
5
E3
100
AcDbEntity
100
AcDbLine
8
WIRES
62
0
39
0
10
435
20
376
30
0
11
435
21
451
31
0
210
0
220
0
230
1
0
LINE
5
E4
100
AcDbEntity
100
AcDbLine
8
WIRES
62
0
39
0
10
450
20
361
30
0
11
930
21
361
31
0
210
0
220
0
230
1
0
INSERT
5
E5
100
AcDbEntity
100
AcDbBlockReference
2
INPUT
8
IO
10
45
20
526
30
0
66
1
0
ATTRIB
5
E6
100
AcDbEntity
100
AcDbText
8
IO
10
333
20
526
30
0
40
6
1
2
7
TextElementIO
72
0
11
333
21
526
31
0
100
AcDbAttribute
2
ID
70
1
74
2
0
ATTRIB
5
E7
100
AcDbEntity
100
AcDbText
8
IO
10
333
20
556
30
0
40
6
1
2
7
TextElementIO
72
0
11
333
21
556
31
0
100
AcDbAttribute
2
TAGID
70
1
74
2
0
ATTRIB
5
E8
100
AcDbEntity
100
AcDbText
8
IO
10
48
20
548.5
30
0
40
6
1
Designation2
7
TextElementIO
72
0
11
48
21
548.5
31
0
100
AcDbAttribute
2
DESIGNATION
70
0
74
2
0
ATTRIB
5
E9
100
AcDbEntity
100
AcDbText
8
IO
10
48
20
534.5
30
0
40
6
1
Description2
7
TextElementIO
72
0
11
48
21
534.5
31
0
100
AcDbAttribute
2
DESCRIPTION
70
0
74
2
0
ATTRIB
5
EA
100
AcDbEntity
100
AcDbText
8
IO
10
258
20
548.5
30
0
40
6
1
Signal2
7
TextElementIO
72
0
11
258
21
548.5
31
0
100
AcDbAttribute
2
SIGNAL
70
0
74
2
0
ATTRIB
5
EB
100
AcDbEntity
100
AcDbText
8
IO
10
258
20
534.5
30
0
40
6
1
Condition2
7
TextElementIO
72
0
11
258
21
534.5
31
0
100
AcDbAttribute
2
CONDITION
70
0
74
2
0
SEQEND
5
EC
100
AcDbEntity
8
IO
0
LINE
5
ED
100
AcDbEntity
100
AcDbLine
8
WIRES
62
0
39
0
10
420
20
541
30
0
11
435
21
541
31
0
210
0
220
0
230
1
0
LINE
5
EE
100
AcDbEntity
100
AcDbLine
8
WIRES
62
0
39
0
10
435
20
631
30
0
11
435
21
541
31
0
210
0
220
0
230
1
0
LINE
5
EF
100
AcDbEntity
100
AcDbLine
8
WIRES
62
0
39
0
10
435
20
451
30
0
11
435
21
541
31
0
210
0
220
0
230
1
0
ENDSEC
0
SECTION
2
OBJECTS
0
DICTIONARY
5
F1
330
0
100
AcDbDictionary
280
0
281
1
3
ACAD_GROUP
350
F2
0
DICTIONARY
5
F2
330
F1
100
AcDbDictionary
280
0
281
1
0
ENDSEC
0
EOF
