999
Diagram
0
SECTION
2
HEADER
9
$ACADVER
1
AC1009
9
$EXTMAX
10
1260.0
20
891.0
9
$EXTMIN
10
0.0
20
0.0
9
$INSBASE
10
0.0
20
0.0
30
0.0
9
$LIMMAX
10
1260.0
20
891.0
9
$LIMMIN
10
0.0
20
0.0
9
$INSUNITS
70
4
9
$LUNITS
70
2
9
$LUPREC
70
4
9
$MEASUREMENT
70
1
0
ENDSEC
0
SECTION
2
TABLES
0
TABLE
2
APPID
70
1
0
APPID
2
CDE
70
0
0
ENDTAB
0
TABLE
2
LTYPE
70
1
0
LTYPE
2
CONTINUOUS
3
Solid line
72
65
70
0
73
0
40
0
0
ENDTAB
0
TABLE
2
LAYER
70
6
0
LAYER
2
FRAME
70
0
62
8
6
CONTINUOUS
0
LAYER
2
GRID
70
0
62
9
6
CONTINUOUS
0
LAYER
2
TABLE
70
0
62
8
6
CONTINUOUS
0
LAYER
2
IO
70
0
62
6
6
CONTINUOUS
0
LAYER
2
WIRES
70
0
62
5
6
CONTINUOUS
0
LAYER
2
ELEMENTS
70
0
62
5
6
CONTINUOUS
0
ENDTAB
0
TABLE
2
STYLE
70
8
0
STYLE
2
TEXTHEADERSMALL
70
0
40
0
41
1
50
0
71
0
42
0
3
arial.ttf
4

0
STYLE
2
TEXTHEADERLARGE
70
0
40
0
41
1
50
0
71
0
42
0
3
arial.ttf
4

0
STYLE
2
TEXTNUMBER
70
0
40
0
41
1
50
0
71
0
42
0
3
arial.ttf
4

0
STYLE
2
TEXTTABLEHEADER
70
0
40
0
41
1
50
0
71
0
42
0
3
arial.ttf
4

0
STYLE
2
TEXTTABLETEXT
70
0
40
0
41
1
50
0
71
0
42
0
3
arial.ttf
4

0
STYLE
2
TEXTNUMBER
70
0
40
0
41
1
50
0
71
0
42
0
3
arial.ttf
4

0
STYLE
2
TEXTGATE
70
0
40
0
41
1
50
0
71
0
42
0
3
arial.ttf
4

0
STYLE
2
TEXTIO
70
0
40
0
41
1
50
0
71
0
42
0
3
arial.ttf
4

0
ENDTAB
0
TABLE
2
VIEW
70
1
0
VIEW
2
DIAGRAM
70
0
40
891.0
10
630.0
20
445.5
41
1260.0
11
0
21
0
31
0
12
0
22
0
32
0
43
0
44
0
50
0
0
ENDTAB
0
ENDSEC
0
SECTION
2
BLOCKS
0
BLOCK
2
FRAME
70
0
10
0
20
0
30
0
0
LINE
8
FRAME
62
0
39
0
10
330
20
856
30
0
11
930
21
856
31
0
0
LINE
8
FRAME
62
0
39
0
10
930
20
106
30
0
11
330
21
106
31
0
0
LINE
8
FRAME
62
0
39
0
10
330
20
106
30
0
11
330
21
876
31
0
0
LINE
8
FRAME
62
0
39
0
10
930
20
876
30
0
11
930
21
106
31
0
0
LINE
8
FRAME
62
0
39
0
10
15
20
876
30
0
11
1245
21
876
31
0
0
LINE
8
FRAME
62
0
39
0
10
1245
20
75
30
0
11
15
21
75
31
0
0
LINE
8
FRAME
62
0
39
0
10
15
20
15
30
0
11
1245
21
15
31
0
0
LINE
8
FRAME
62
0
39
0
10
1245
20
15
30
0
11
1245
21
876
31
0
0
LINE
8
FRAME
62
0
39
0
10
15
20
876
30
0
11
15
21
15
31
0
0
LINE
8
FRAME
62
0
39
0
10
1
20
890
30
0
11
1259
21
890
31
0
0
LINE
8
FRAME
62
0
39
0
10
1259
20
1
30
0
11
1
21
1
31
0
0
LINE
8
FRAME
62
0
39
0
10
1
20
1
30
0
11
1
21
890
31
0
0
LINE
8
FRAME
62
0
39
0
10
1259
20
890
30
0
11
1259
21
1
31
0
0
LINE
8
FRAME
62
0
39
0
10
45
20
856
30
0
11
45
21
106
31
0
0
LINE
8
FRAME
62
0
39
0
10
255
20
106
30
0
11
255
21
856
31
0
0
LINE
8
FRAME
62
0
39
0
10
330
20
856
30
0
11
15
21
856
31
0
0
LINE
8
FRAME
62
0
39
0
10
15
20
106
30
0
11
330
21
106
31
0
0
LINE
8
FRAME
62
0
39
0
10
15
20
826
30
0
11
330
21
826
31
0
0
LINE
8
FRAME
62
0
39
0
10
15
20
796
30
0
11
330
21
796
31
0
0
LINE
8
FRAME
62
0
39
0
10
15
20
766
30
0
11
330
21
766
31
0
0
LINE
8
FRAME
62
0
39
0
10
15
20
736
30
0
11
330
21
736
31
0
0
LINE
8
FRAME
62
0
39
0
10
15
20
706
30
0
11
330
21
706
31
0
0
LINE
8
FRAME
62
0
39
0
10
15
20
676
30
0
11
330
21
676
31
0
0
LINE
8
FRAME
62
0
39
0
10
15
20
646
30
0
11
330
21
646
31
0
0
LINE
8
FRAME
62
0
39
0
10
15
20
616
30
0
11
330
21
616
31
0
0
LINE
8
FRAME
62
0
39
0
10
15
20
586
30
0
11
330
21
586
31
0
0
LINE
8
FRAME
62
0
39
0
10
15
20
556
30
0
11
330
21
556
31
0
0
LINE
8
FRAME
62
0
39
0
10
15
20
526
30
0
11
330
21
526
31
0
0
LINE
8
FRAME
62
0
39
0
10
15
20
496
30
0
11
330
21
496
31
0
0
LINE
8
FRAME
62
0
39
0
10
15
20
466
30
0
11
330
21
466
31
0
0
LINE
8
FRAME
62
0
39
0
10
15
20
436
30
0
11
330
21
436
31
0
0
LINE
8
FRAME
62
0
39
0
10
15
20
406
30
0
11
330
21
406
31
0
0
LINE
8
FRAME
62
0
39
0
10
15
20
376
30
0
11
330
21
376
31
0
0
LINE
8
FRAME
62
0
39
0
10
15
20
346
30
0
11
330
21
346
31
0
0
LINE
8
FRAME
62
0
39
0
10
15
20
316
30
0
11
330
21
316
31
0
0
LINE
8
FRAME
62
0
39
0
10
15
20
286
30
0
11
330
21
286
31
0
0
LINE
8
FRAME
62
0
39
0
10
15
20
256
30
0
11
330
21
256
31
0
0
LINE
8
FRAME
62
0
39
0
10
15
20
226
30
0
11
330
21
226
31
0
0
LINE
8
FRAME
62
0
39
0
10
15
20
196
30
0
11
330
21
196
31
0
0
LINE
8
FRAME
62
0
39
0
10
15
20
166
30
0
11
330
21
166
31
0
0
LINE
8
FRAME
62
0
39
0
10
15
20
136
30
0
11
330
21
136
31
0
0
LINE
8
FRAME
62
0
39
0
10
1140
20
856
30
0
11
1140
21
106
31
0
0
LINE
8
FRAME
62
0
39
0
10
1215
20
106
30
0
11
1215
21
856
31
0
0
LINE
8
FRAME
62
0
39
0
10
1245
20
856
30
0
11
930
21
856
31
0
0
LINE
8
FRAME
62
0
39
0
10
930
20
106
30
0
11
1245
21
106
31
0
0
LINE
8
FRAME
62
0
39
0
10
930
20
826
30
0
11
1245
21
826
31
0
0
LINE
8
FRAME
62
0
39
0
10
930
20
796
30
0
11
1245
21
796
31
0
0
LINE
8
FRAME
62
0
39
0
10
930
20
766
30
0
11
1245
21
766
31
0
0
LINE
8
FRAME
62
0
39
0
10
930
20
736
30
0
11
1245
21
736
31
0
0
LINE
8
FRAME
62
0
39
0
10
930
20
706
30
0
11
1245
21
706
31
0
0
LINE
8
FRAME
62
0
39
0
10
930
20
676
30
0
11
1245
21
676
31
0
0
LINE
8
FRAME
62
0
39
0
10
930
20
646
30
0
11
1245
21
646
31
0
0
LINE
8
FRAME
62
0
39
0
10
930
20
616
30
0
11
1245
21
616
31
0
0
LINE
8
FRAME
62
0
39
0
10
930
20
586
30
0
11
1245
21
586
31
0
0
LINE
8
FRAME
62
0
39
0
10
930
20
556
30
0
11
1245
21
556
31
0
0
LINE
8
FRAME
62
0
39
0
10
930
20
526
30
0
11
1245
21
526
31
0
0
LINE
8
FRAME
62
0
39
0
10
930
20
496
30
0
11
1245
21
496
31
0
0
LINE
8
FRAME
62
0
39
0
10
930
20
466
30
0
11
1245
21
466
31
0
0
LINE
8
FRAME
62
0
39
0
10
930
20
436
30
0
11
1245
21
436
31
0
0
LINE
8
FRAME
62
0
39
0
10
930
20
406
30
0
11
1245
21
406
31
0
0
LINE
8
FRAME
62
0
39
0
10
930
20
376
30
0
11
1245
21
376
31
0
0
LINE
8
FRAME
62
0
39
0
10
930
20
346
30
0
11
1245
21
346
31
0
0
LINE
8
FRAME
62
0
39
0
10
930
20
316
30
0
11
1245
21
316
31
0
0
LINE
8
FRAME
62
0
39
0
10
930
20
286
30
0
11
1245
21
286
31
0
0
LINE
8
FRAME
62
0
39
0
10
930
20
256
30
0
11
1245
21
256
31
0
0
LINE
8
FRAME
62
0
39
0
10
930
20
226
30
0
11
1245
21
226
31
0
0
LINE
8
FRAME
62
0
39
0
10
930
20
196
30
0
11
1245
21
196
31
0
0
LINE
8
FRAME
62
0
39
0
10
930
20
166
30
0
11
1245
21
166
31
0
0
LINE
8
FRAME
62
0
39
0
10
930
20
136
30
0
11
1245
21
136
31
0
0
ENDBLK
0
BLOCK
2
TABLE
70
0
10
0
20
0
30
0
0
LINE
8
TABLE
62
0
39
0
10
15
20
-771
30
0
11
190
21
-771
31
0
0
LINE
8
TABLE
62
0
39
0
10
420
20
-771
30
0
11
1245
21
-771
31
0
0
LINE
8
TABLE
62
0
39
0
10
1245
20
-786
30
0
11
980
21
-786
31
0
0
LINE
8
TABLE
62
0
39
0
10
710
20
-786
30
0
11
420
21
-786
31
0
0
LINE
8
TABLE
62
0
39
0
10
190
20
-786
30
0
11
15
21
-786
31
0
0
LINE
8
TABLE
62
0
39
0
10
15
20
-801
30
0
11
190
21
-801
31
0
0
LINE
8
TABLE
62
0
39
0
10
420
20
-801
30
0
11
710
21
-801
31
0
0
LINE
8
TABLE
62
0
39
0
10
980
20
-801
30
0
11
1245
21
-801
31
0
0
LINE
8
TABLE
62
0
39
0
10
45
20
-756
30
0
11
45
21
-816
31
0
0
LINE
8
TABLE
62
0
39
0
10
90
20
-756
30
0
11
90
21
-816
31
0
0
LINE
8
TABLE
62
0
39
0
10
190
20
-816
30
0
11
190
21
-756
31
0
0
LINE
8
TABLE
62
0
39
0
10
305
20
-756
30
0
11
305
21
-816
31
0
0
LINE
8
TABLE
62
0
39
0
10
420
20
-816
30
0
11
420
21
-756
31
0
0
LINE
8
TABLE
62
0
39
0
10
480
20
-756
30
0
11
480
21
-816
31
0
0
LINE
8
TABLE
62
0
39
0
10
610
20
-816
30
0
11
610
21
-756
31
0
0
LINE
8
TABLE
62
0
39
0
10
655
20
-756
30
0
11
655
21
-816
31
0
0
LINE
8
TABLE
62
0
39
0
10
710
20
-816
30
0
11
710
21
-756
31
0
0
LINE
8
TABLE
62
0
39
0
10
980
20
-756
30
0
11
980
21
-816
31
0
0
LINE
8
TABLE
62
0
39
0
10
1020
20
-816
30
0
11
1020
21
-756
31
0
0
LINE
8
TABLE
62
0
39
0
10
1060
20
-756
30
0
11
1060
21
-816
31
0
0
LINE
8
TABLE
62
0
39
0
10
1115
20
-816
30
0
11
1115
21
-756
31
0
0
ENDBLK
0
BLOCK
2
GRID
70
0
10
0
20
0
30
0
0
ENDBLK
0
BLOCK
2
INPUT
3
INPUT
70
2
10
0
20
0
30
0
0
LINE
8
IO
62
0
39
0
10
0
20
30
30
0
11
285
21
30
31
0
0
LINE
8
IO
62
0
39
0
10
285
20
0
30
0
11
0
21
0
31
0
0
LINE
8
IO
62
0
39
0
10
0
20
0
30
0
11
0
21
30
31
0
0
LINE
8
IO
62
0
39
0
10
210
20
30
30
0
11
210
21
0
31
0
0
LINE
8
IO
62
0
39
0
10
285
20
0
30
0
11
285
21
30
31
0
0
ATTDEF
10
288
20
30
30
0
11
288
21
30
31
0
2
ID
1
ID
3
ID
70
1
40
6
7
TEXTIO
8
IO
72
0
74
2
0
ATTDEF
10
288
20
0
30
0
11
288
21
0
31
0
2
TAGID
1
TAGID
3
TAGID
70
1
40
6
7
TEXTIO
8
IO
72
0
74
2
0
ATTDEF
10
3
20
21.5
30
0
11
3
21
21.5
31
0
2
DESIGNATION
1
DESIGNATION
3
DESIGNATION
70
0
40
6
7
TEXTIO
8
IO
72
0
74
2
0
ATTDEF
10
3
20
7.5
30
0
11
3
21
7.5
31
0
2
DESCRIPTION
1
DESCRIPTION
3
DESCRIPTION
70
0
40
6
7
TEXTIO
8
IO
72
0
74
2
0
ATTDEF
10
213
20
21.5
30
0
11
213
21
21.5
31
0
2
SIGNAL
1
SIGNAL
3
SIGNAL
70
0
40
6
7
TEXTIO
8
IO
72
0
74
2
0
ATTDEF
10
213
20
7.5
30
0
11
213
21
7.5
31
0
2
CONDITION
1
CONDITION
3
CONDITION
70
0
40
6
7
TEXTIO
8
IO
72
0
74
2
0
ENDBLK
0
BLOCK
2
OUTPUT
3
OUTPUT
70
2
10
0
20
0
30
0
0
LINE
8
IO
62
0
39
0
10
0
20
30
30
0
11
285
21
30
31
0
0
LINE
8
IO
62
0
39
0
10
285
20
0
30
0
11
0
21
0
31
0
0
LINE
8
IO
62
0
39
0
10
0
20
0
30
0
11
0
21
30
31
0
0
LINE
8
IO
62
0
39
0
10
210
20
30
30
0
11
210
21
0
31
0
0
LINE
8
IO
62
0
39
0
10
285
20
0
30
0
11
285
21
30
31
0
0
ATTDEF
10
288
20
30
30
0
11
288
21
30
31
0
2
ID
1
ID
3
ID
70
1
40
6
7
TEXTIO
8
IO
72
0
74
2
0
ATTDEF
10
288
20
0
30
0
11
288
21
0
31
0
2
TAGID
1
TAGID
3
TAGID
70
1
40
6
7
TEXTIO
8
IO
72
0
74
2
0
ATTDEF
10
3
20
21.5
30
0
11
3
21
21.5
31
0
2
DESIGNATION
1
DESIGNATION
3
DESIGNATION
70
0
40
6
7
TEXTIO
8
IO
72
0
74
2
0
ATTDEF
10
3
20
7.5
30
0
11
3
21
7.5
31
0
2
DESCRIPTION
1
DESCRIPTION
3
DESCRIPTION
70
0
40
6
7
TEXTIO
8
IO
72
0
74
2
0
ATTDEF
10
213
20
21.5
30
0
11
213
21
21.5
31
0
2
SIGNAL
1
SIGNAL
3
SIGNAL
70
0
40
6
7
TEXTIO
8
IO
72
0
74
2
0
ATTDEF
10
213
20
7.5
30
0
11
213
21
7.5
31
0
2
CONDITION
1
CONDITION
3
CONDITION
70
0
40
6
7
TEXTIO
8
IO
72
0
74
2
0
ENDBLK
0
BLOCK
2
ANDGATE
3
ANDGATE
70
2
10
0
20
0
30
0
0
LINE
8
ELEMENTS
62
0
39
0
10
0
20
30
30
0
11
30
21
30
31
0
0
LINE
8
ELEMENTS
62
0
39
0
10
0
20
0
30
0
11
30
21
0
31
0
0
LINE
8
ELEMENTS
62
0
39
0
10
0
20
30
30
0
11
0
21
0
31
0
0
LINE
8
ELEMENTS
62
0
39
0
10
30
20
30
30
0
11
30
21
0
31
0
0
ATTDEF
10
30
20
30
30
0
11
30
21
30
31
0
2
ID
1
ID
3
ID
70
1
40
10
7
TEXTGATE
8
ELEMENTS
72
1
74
2
0
ATTDEF
10
15
20
15
30
0
11
15
21
15
31
0
2
TEXT
1
TEXT
3
TEXT
70
0
40
10
7
TEXTGATE
8
ELEMENTS
72
1
74
2
0
ENDBLK
0
BLOCK
2
ORGATE
3
ORGATE
70
2
10
0
20
0
30
0
0
LINE
8
ELEMENTS
62
0
39
0
10
0
20
30
30
0
11
30
21
30
31
0
0
LINE
8
ELEMENTS
62
0
39
0
10
0
20
0
30
0
11
30
21
0
31
0
0
LINE
8
ELEMENTS
62
0
39
0
10
0
20
30
30
0
11
0
21
0
31
0
0
LINE
8
ELEMENTS
62
0
39
0
10
30
20
30
30
0
11
30
21
0
31
0
0
ATTDEF
10
30
20
30
30
0
11
30
21
30
31
0
2
ID
1
ID
3
ID
70
1
40
10
7
TEXTGATE
8
ELEMENTS
72
1
74
2
0
ATTDEF
10
15
20
15
30
0
11
15
21
15
31
0
2
TEXT
1
TEXT
3
TEXT
70
0
40
10
7
TEXTGATE
8
ELEMENTS
72
1
74
2
0
ENDBLK
0
ENDSEC
0
SECTION
2
ENTITIES
0
INSERT
2
FRAME
8
FRAME
10
0
20
0
30
0
0
INSERT
2
GRID
8
TABLE
10
0
20
831
30
0
0
INSERT
2
TABLE
8
TABLE
10
0
20
831
30
0
0
INSERT
2
INPUT
8
IO
10
45
20
676
30
0
0
INSERT
2
INPUT
8
IO
10
45
20
646
30
0
0
INSERT
2
INPUT
8
IO
10
45
20
706
30
0
0
INSERT
2
ANDGATE
8
ELEMENTS
10
390
20
616
30
0
66
1
0
ATTRIB
10
420
20
616
30
0
11
420
21
616
31
0
2
ID
1
0
70
1
40
10
7
TEXTGATE
8
ELEMENTS
72
1
74
2
0
ATTRIB
10
405
20
631
30
0
11
405
21
631
31
0
2
TEXT
1
&
70
0
40
10
7
TEXTGATE
8
ELEMENTS
72
1
74
2
0
SEQEND
0
INSERT
2
INPUT
8
IO
10
45
20
556
30
0
0
INSERT
2
INPUT
8
IO
10
45
20
496
30
0
0
INSERT
2
INPUT
8
IO
10
45
20
526
30
0
0
INSERT
2
INPUT
8
IO
10
45
20
436
30
0
0
INSERT
2
INPUT
8
IO
10
45
20
376
30
0
0
INSERT
2
INPUT
8
IO
10
45
20
406
30
0
0
INSERT
2
ANDGATE
8
ELEMENTS
10
390
20
496
30
0
66
1
0
ATTRIB
10
420
20
496
30
0
11
420
21
496
31
0
2
ID
1
1
70
1
40
10
7
TEXTGATE
8
ELEMENTS
72
1
74
2
0
ATTRIB
10
405
20
511
30
0
11
405
21
511
31
0
2
TEXT
1
&
70
0
40
10
7
TEXTGATE
8
ELEMENTS
72
1
74
2
0
SEQEND
0
INSERT
2
ANDGATE
8
ELEMENTS
10
390
20
376
30
0
66
1
0
ATTRIB
10
420
20
376
30
0
11
420
21
376
31
0
2
ID
1
2
70
1
40
10
7
TEXTGATE
8
ELEMENTS
72
1
74
2
0
ATTRIB
10
405
20
391
30
0
11
405
21
391
31
0
2
TEXT
1
&
70
0
40
10
7
TEXTGATE
8
ELEMENTS
72
1
74
2
0
SEQEND
0
INSERT
2
ORGATE
8
ELEMENTS
10
510
20
346
30
0
66
1
0
ATTRIB
10
540
20
346
30
0
11
540
21
346
31
0
2
ID
1
0
70
1
40
10
7
TEXTGATE
8
ELEMENTS
72
1
74
2
0
ATTRIB
10
525
20
361
30
0
11
525
21
361
31
0
2
TEXT
1
\U+22651
70
0
40
10
7
TEXTGATE
8
ELEMENTS
72
1
74
2
0
SEQEND
0
INSERT
2
INPUT
8
IO
10
45
20
766
30
0
0
INSERT
2
INPUT
8
IO
10
45
20
316
30
0
0
INSERT
2
INPUT
8
IO
10
45
20
286
30
0
0
INSERT
2
ANDGATE
8
ELEMENTS
10
450
20
286
30
0
66
1
0
ATTRIB
10
480
20
286
30
0
11
480
21
286
31
0
2
ID
1
3
70
1
40
10
7
TEXTGATE
8
ELEMENTS
72
1
74
2
0
ATTRIB
10
465
20
301
30
0
11
465
21
301
31
0
2
TEXT
1
&
70
0
40
10
7
TEXTGATE
8
ELEMENTS
72
1
74
2
0
SEQEND
0
LINE
8
WIRES
62
0
39
0
10
510
20
781
30
0
11
525
21
781
31
0
0
LINE
8
WIRES
62
0
39
0
10
390
20
721
30
0
11
405
21
721
31
0
0
LINE
8
WIRES
62
0
39
0
10
390
20
691
30
0
11
405
21
691
31
0
0
LINE
8
WIRES
62
0
39
0
10
405
20
721
30
0
11
405
21
691
31
0
0
LINE
8
WIRES
62
0
39
0
10
390
20
661
30
0
11
405
21
661
31
0
0
LINE
8
WIRES
62
0
39
0
10
405
20
691
30
0
11
405
21
661
31
0
0
LINE
8
WIRES
62
0
39
0
10
405
20
661
30
0
11
405
21
646
31
0
0
LINE
8
WIRES
62
0
39
0
10
420
20
631
30
0
11
525
21
631
31
0
0
LINE
8
WIRES
62
0
39
0
10
525
20
781
30
0
11
525
21
631
31
0
0
LINE
8
WIRES
62
0
39
0
10
390
20
571
30
0
11
405
21
571
31
0
0
LINE
8
WIRES
62
0
39
0
10
390
20
541
30
0
11
405
21
541
31
0
0
LINE
8
WIRES
62
0
39
0
10
405
20
571
30
0
11
405
21
541
31
0
0
LINE
8
WIRES
62
0
39
0
10
405
20
541
30
0
11
405
21
526
31
0
0
LINE
8
WIRES
62
0
39
0
10
420
20
511
30
0
11
525
21
511
31
0
0
LINE
8
WIRES
62
0
39
0
10
525
20
631
30
0
11
525
21
511
31
0
0
LINE
8
WIRES
62
0
39
0
10
390
20
451
30
0
11
405
21
451
31
0
0
LINE
8
WIRES
62
0
39
0
10
390
20
421
30
0
11
405
21
421
31
0
0
LINE
8
WIRES
62
0
39
0
10
405
20
451
30
0
11
405
21
421
31
0
0
LINE
8
WIRES
62
0
39
0
10
405
20
421
30
0
11
405
21
406
31
0
0
LINE
8
WIRES
62
0
39
0
10
420
20
391
30
0
11
525
21
391
31
0
0
LINE
8
WIRES
62
0
39
0
10
525
20
511
30
0
11
525
21
391
31
0
0
LINE
8
WIRES
62
0
39
0
10
525
20
391
30
0
11
525
21
376
31
0
0
INSERT
2
OUTPUT
8
IO
10
930
20
346
30
0
0
LINE
8
WIRES
62
0
39
0
10
540
20
361
30
0
11
930
21
361
31
0
0
LINE
8
WIRES
62
0
39
0
10
450
20
331
30
0
11
465
21
331
31
0
0
LINE
8
WIRES
62
0
39
0
10
465
20
331
30
0
11
465
21
316
31
0
0
LINE
8
WIRES
62
0
39
0
10
435
20
301
30
0
11
450
21
301
31
0
0
LINE
8
WIRES
62
0
39
0
10
480
20
301
30
0
11
525
21
301
31
0
0
LINE
8
WIRES
62
0
39
0
10
525
20
301
30
0
11
525
21
346
31
0
0
LINE
8
WIRES
62
0
39
0
10
375
20
511
30
0
11
390
21
511
31
0
0
LINE
8
WIRES
62
0
39
0
10
375
20
391
30
0
11
390
21
391
31
0
0
INSERT
2
INPUT
8
IO
10
45
20
226
30
0
0
INSERT
2
INPUT
8
IO
10
45
20
196
30
0
0
INSERT
2
INPUT
8
IO
10
45
20
166
30
0
0
INSERT
2
ORGATE
8
ELEMENTS
10
420
20
136
30
0
66
1
0
ATTRIB
10
450
20
136
30
0
11
450
21
136
31
0
2
ID
1
1
70
1
40
10
7
TEXTGATE
8
ELEMENTS
72
1
74
2
0
ATTRIB
10
435
20
151
30
0
11
435
21
151
31
0
2
TEXT
1
\U+22651
70
0
40
10
7
TEXTGATE
8
ELEMENTS
72
1
74
2
0
SEQEND
0
INSERT
2
OUTPUT
8
IO
10
930
20
136
30
0
0
LINE
8
WIRES
62
0
39
0
10
420
20
241
30
0
11
435
21
241
31
0
0
LINE
8
WIRES
62
0
39
0
10
420
20
211
30
0
11
435
21
211
31
0
0
LINE
8
WIRES
62
0
39
0
10
435
20
241
30
0
11
435
21
211
31
0
0
LINE
8
WIRES
62
0
39
0
10
420
20
181
30
0
11
435
21
181
31
0
0
LINE
8
WIRES
62
0
39
0
10
435
20
211
30
0
11
435
21
181
31
0
0
LINE
8
WIRES
62
0
39
0
10
435
20
181
30
0
11
435
21
166
31
0
0
LINE
8
WIRES
62
0
39
0
10
450
20
151
30
0
11
930
21
151
31
0
0
ENDSEC
0
EOF
