0
SECTION
2
HEADER
9
$ACADVER
1
AC1015
9
$DWGCODEPAGE
3
ANSI_1250
9
$EXTMAX
10
1260
20
891
9
$EXTMIN
10
0
20
0
9
$INSBASE
10
0.0
20
0.0
30
0.0
9
$LIMMAX
10
1260.0
20
891.0
9
$LIMMIN
10
0.0
20
0.0
9
$INSUNITS
70
4
9
$LUNITS
70
2
9
$LUPREC
70
4
9
$MEASUREMENT
70
1
9
$HANDSEED
5
143
0
ENDSEC
0
SECTION
2
CLASSES
0
ENDSEC
0
SECTION
2
TABLES
0
TABLE
2
APPID
5
7
100
AcDbSymbolTable
70
2
0
APPID
5
5
100
AcDbSymbolTableRecord
100
AcDbRegAppTableRecord
2
ACAD
70
0
0
APPID
5
6
100
AcDbSymbolTableRecord
100
AcDbRegAppTableRecord
2
CADE
70
0
0
ENDTAB
0
TABLE
2
DIMSTYLE
5
9
100
AcDbSymbolTable
70
1
100
AcDbDimStyleTable
71
1
0
DIMSTYLE
105
8
100
AcDbSymbolTableRecord
100
AcDbDimStyleTableRecord
2
Standard
70
0
0
ENDTAB
0
TABLE
2
BLOCK_RECORD
5
14
100
AcDbSymbolTable
70
10
0
BLOCK_RECORD
5
A
100
AcDbSymbolTableRecord
100
AcDbBlockTableRecord
2
*Model_Space
0
BLOCK_RECORD
5
B
100
AcDbSymbolTableRecord
100
AcDbBlockTableRecord
2
*Paper_Space
0
BLOCK_RECORD
5
C
100
AcDbSymbolTableRecord
100
AcDbBlockTableRecord
2
*Paper_Space0
0
BLOCK_RECORD
5
D
100
AcDbSymbolTableRecord
100
AcDbBlockTableRecord
2
FRAME
0
BLOCK_RECORD
5
E
100
AcDbSymbolTableRecord
100
AcDbBlockTableRecord
2
TABLE
0
BLOCK_RECORD
5
F
100
AcDbSymbolTableRecord
100
AcDbBlockTableRecord
2
GRID
0
BLOCK_RECORD
5
10
100
AcDbSymbolTableRecord
100
AcDbBlockTableRecord
2
INPUT
0
BLOCK_RECORD
5
11
100
AcDbSymbolTableRecord
100
AcDbBlockTableRecord
2
OUTPUT
0
BLOCK_RECORD
5
12
100
AcDbSymbolTableRecord
100
AcDbBlockTableRecord
2
ANDGATE
0
BLOCK_RECORD
5
13
100
AcDbSymbolTableRecord
100
AcDbBlockTableRecord
2
ORGATE
0
ENDTAB
0
TABLE
2
LTYPE
5
18
100
AcDbSymbolTable
70
3
0
LTYPE
5
15
100
AcDbSymbolTableRecord
100
AcDbLinetypeTableRecord
2
ByLayer
70
0
3
ByLayer
72
65
73
0
40
0
0
LTYPE
5
16
100
AcDbSymbolTableRecord
100
AcDbLinetypeTableRecord
2
ByBlock
70
0
3
ByBlock
72
65
73
0
40
0
0
LTYPE
5
17
100
AcDbSymbolTableRecord
100
AcDbLinetypeTableRecord
2
Continuous
70
0
3
Solid line
72
65
73
0
40
0
0
ENDTAB
0
TABLE
2
LAYER
5
20
100
AcDbSymbolTable
70
7
0
LAYER
5
19
100
AcDbSymbolTableRecord
100
AcDbLayerTableRecord
2
0
70
0
62
7
6
Continuous
290
1
370
-3
390
0
0
LAYER
5
1A
100
AcDbSymbolTableRecord
100
AcDbLayerTableRecord
2
FRAME
70
0
62
8
6
Continuous
290
1
370
13
390
0
0
LAYER
5
1B
100
AcDbSymbolTableRecord
100
AcDbLayerTableRecord
2
GRID
70
0
62
9
6
Continuous
290
1
370
13
390
0
0
LAYER
5
1C
100
AcDbSymbolTableRecord
100
AcDbLayerTableRecord
2
TABLE
70
0
62
8
6
Continuous
290
1
370
13
390
0
0
LAYER
5
1D
100
AcDbSymbolTableRecord
100
AcDbLayerTableRecord
2
IO
70
0
62
6
6
Continuous
290
1
370
25
390
0
0
LAYER
5
1E
100
AcDbSymbolTableRecord
100
AcDbLayerTableRecord
2
WIRES
70
0
62
7
6
Continuous
290
1
370
18
390
0
0
LAYER
5
1F
100
AcDbSymbolTableRecord
100
AcDbLayerTableRecord
2
ELEMENTS
70
0
62
5
6
Continuous
290
1
370
35
390
0
0
ENDTAB
0
TABLE
2
STYLE
5
29
100
AcDbSymbolTable
70
8
0
STYLE
5
21
100
AcDbSymbolTableRecord
100
AcDbTextStyleTableRecord
2
Standard
70
0
40
0
41
1
50
0
71
0
42
1
3
arial.ttf
4

1001
ACAD
1000
Arial
1071
0
0
STYLE
5
22
100
AcDbSymbolTableRecord
100
AcDbTextStyleTableRecord
2
TextFrameHeaderSmall
70
0
40
0
41
1
50
0
71
0
42
1
3
arial.ttf
4

1001
ACAD
1000
Arial
1071
0
0
STYLE
5
23
100
AcDbSymbolTableRecord
100
AcDbTextStyleTableRecord
2
TextFrameHeaderLarge
70
0
40
0
41
1
50
0
71
0
42
1
3
arial.ttf
4

1001
ACAD
1000
Arial
1071
0
0
STYLE
5
24
100
AcDbSymbolTableRecord
100
AcDbTextStyleTableRecord
2
TextFrameNumber
70
0
40
0
41
1
50
0
71
0
42
1
3
arial.ttf
4

1001
ACAD
1000
Arial
1071
0
0
STYLE
5
25
100
AcDbSymbolTableRecord
100
AcDbTextStyleTableRecord
2
TextTableHeader
70
0
40
0
41
1
50
0
71
0
42
1
3
arial.ttf
4

1001
ACAD
1000
Arial
1071
0
0
STYLE
5
26
100
AcDbSymbolTableRecord
100
AcDbTextStyleTableRecord
2
TextTableTag
70
0
40
0
41
1
50
0
71
0
42
1
3
arial.ttf
4

1001
ACAD
1000
Arial
1071
0
0
STYLE
5
27
100
AcDbSymbolTableRecord
100
AcDbTextStyleTableRecord
2
TextElementGate
70
0
40
0
41
1
50
0
71
0
42
1
3
arial.ttf
4

1001
ACAD
1000
Arial
1071
0
0
STYLE
5
28
100
AcDbSymbolTableRecord
100
AcDbTextStyleTableRecord
2
TextElementIO
70
0
40
0
41
1
50
0
71
0
42
1
3
arial.ttf
4

1001
ACAD
1000
Arial
1071
0
0
ENDTAB
0
TABLE
2
UCS
5
2A
100
AcDbSymbolTable
70
0
0
ENDTAB
0
TABLE
2
VIEW
5
2B
100
AcDbSymbolTable
70
1
0
VIEW
5
2D
100
AcDbSymbolTableRecord
100
AcDbViewTableRecord
2
DIAGRAM
70
0
40
891
41
1260
10
630
20
445.5
11
0
21
0
31
1
12
0
22
0
32
0
43
0
44
0
50
0
0
ENDTAB
0
TABLE
2
VPORT
5
2F
100
AcDbSymbolTable
70
1
0
VPORT
5
2E
100
AcDbSymbolTableRecord
100
AcDbViewportTableRecord
2
*Active
70
0
0
ENDTAB
0
ENDSEC
0
SECTION
2
BLOCKS
0
BLOCK
5
31
100
AcDbEntity
8
0
100
AcDbBlockBegin
2
*Model_Space
70
0
10
0
20
0
30
0
3
*Model_Space
0
ENDBLK
5
32
100
AcDbEntity
8
0
100
AcDbBlockEnd
0
BLOCK
5
33
100
AcDbEntity
8
0
100
AcDbBlockBegin
2
*Paper_Space
70
0
10
0
20
0
30
0
3
*Paper_Space
0
ENDBLK
5
34
100
AcDbEntity
8
0
100
AcDbBlockEnd
0
BLOCK
5
35
100
AcDbEntity
8
0
100
AcDbBlockBegin
2
*Paper_Space0
70
0
10
0
20
0
30
0
3
*Paper_Space0
0
ENDBLK
5
36
100
AcDbEntity
8
0
100
AcDbBlockEnd
0
BLOCK
5
37
100
AcDbEntity
8
FRAME
100
AcDbBlockBegin
2
FRAME
70
0
10
0
20
0
30
0
3
FRAME
4
Page Frame
0
LINE
5
39
100
AcDbEntity
100
AcDbLine
8
FRAME
62
256
39
0
10
330
20
-35
30
0
11
930
21
-35
31
0
210
0
220
0
230
1
0
LINE
5
3A
100
AcDbEntity
100
AcDbLine
8
FRAME
62
256
39
0
10
930
20
-785
30
0
11
330
21
-785
31
0
210
0
220
0
230
1
0
LINE
5
3B
100
AcDbEntity
100
AcDbLine
8
FRAME
62
256
39
0
10
330
20
-785
30
0
11
330
21
-15
31
0
210
0
220
0
230
1
0
LINE
5
3C
100
AcDbEntity
100
AcDbLine
8
FRAME
62
256
39
0
10
930
20
-15
30
0
11
930
21
-785
31
0
210
0
220
0
230
1
0
LINE
5
3D
100
AcDbEntity
100
AcDbLine
8
FRAME
62
256
39
0
10
15
20
-15
30
0
11
1245
21
-15
31
0
210
0
220
0
230
1
0
LINE
5
3E
100
AcDbEntity
100
AcDbLine
8
FRAME
62
256
39
0
10
1245
20
-816
30
0
11
15
21
-816
31
0
210
0
220
0
230
1
0
LINE
5
3F
100
AcDbEntity
100
AcDbLine
8
FRAME
62
256
39
0
10
15
20
-876
30
0
11
1245
21
-876
31
0
210
0
220
0
230
1
0
LINE
5
40
100
AcDbEntity
100
AcDbLine
8
FRAME
62
256
39
0
10
1245
20
-876
30
0
11
1245
21
-15
31
0
210
0
220
0
230
1
0
LINE
5
41
100
AcDbEntity
100
AcDbLine
8
FRAME
62
256
39
0
10
15
20
-15
30
0
11
15
21
-876
31
0
210
0
220
0
230
1
0
LINE
5
42
100
AcDbEntity
100
AcDbLine
8
FRAME
62
256
39
0
10
1
20
-1
30
0
11
1259
21
-1
31
0
210
0
220
0
230
1
0
LINE
5
43
100
AcDbEntity
100
AcDbLine
8
FRAME
62
256
39
0
10
1259
20
-890
30
0
11
1
21
-890
31
0
210
0
220
0
230
1
0
LINE
5
44
100
AcDbEntity
100
AcDbLine
8
FRAME
62
256
39
0
10
1
20
-890
30
0
11
1
21
-1
31
0
210
0
220
0
230
1
0
LINE
5
45
100
AcDbEntity
100
AcDbLine
8
FRAME
62
256
39
0
10
1259
20
-1
30
0
11
1259
21
-890
31
0
210
0
220
0
230
1
0
LINE
5
46
100
AcDbEntity
100
AcDbLine
8
FRAME
62
256
39
0
10
45
20
-35
30
0
11
45
21
-785
31
0
210
0
220
0
230
1
0
LINE
5
47
100
AcDbEntity
100
AcDbLine
8
FRAME
62
256
39
0
10
255
20
-785
30
0
11
255
21
-35
31
0
210
0
220
0
230
1
0
LINE
5
48
100
AcDbEntity
100
AcDbLine
8
FRAME
62
256
39
0
10
330
20
-35
30
0
11
15
21
-35
31
0
210
0
220
0
230
1
0
LINE
5
49
100
AcDbEntity
100
AcDbLine
8
FRAME
62
256
39
0
10
15
20
-785
30
0
11
330
21
-785
31
0
210
0
220
0
230
1
0
LINE
5
4A
100
AcDbEntity
100
AcDbLine
8
FRAME
62
256
39
0
10
15
20
-65
30
0
11
330
21
-65
31
0
210
0
220
0
230
1
0
LINE
5
4B
100
AcDbEntity
100
AcDbLine
8
FRAME
62
256
39
0
10
15
20
-95
30
0
11
330
21
-95
31
0
210
0
220
0
230
1
0
LINE
5
4C
100
AcDbEntity
100
AcDbLine
8
FRAME
62
256
39
0
10
15
20
-125
30
0
11
330
21
-125
31
0
210
0
220
0
230
1
0
LINE
5
4D
100
AcDbEntity
100
AcDbLine
8
FRAME
62
256
39
0
10
15
20
-155
30
0
11
330
21
-155
31
0
210
0
220
0
230
1
0
LINE
5
4E
100
AcDbEntity
100
AcDbLine
8
FRAME
62
256
39
0
10
15
20
-185
30
0
11
330
21
-185
31
0
210
0
220
0
230
1
0
LINE
5
4F
100
AcDbEntity
100
AcDbLine
8
FRAME
62
256
39
0
10
15
20
-215
30
0
11
330
21
-215
31
0
210
0
220
0
230
1
0
LINE
5
50
100
AcDbEntity
100
AcDbLine
8
FRAME
62
256
39
0
10
15
20
-245
30
0
11
330
21
-245
31
0
210
0
220
0
230
1
0
LINE
5
51
100
AcDbEntity
100
AcDbLine
8
FRAME
62
256
39
0
10
15
20
-275
30
0
11
330
21
-275
31
0
210
0
220
0
230
1
0
LINE
5
52
100
AcDbEntity
100
AcDbLine
8
FRAME
62
256
39
0
10
15
20
-305
30
0
11
330
21
-305
31
0
210
0
220
0
230
1
0
LINE
5
53
100
AcDbEntity
100
AcDbLine
8
FRAME
62
256
39
0
10
15
20
-335
30
0
11
330
21
-335
31
0
210
0
220
0
230
1
0
LINE
5
54
100
AcDbEntity
100
AcDbLine
8
FRAME
62
256
39
0
10
15
20
-365
30
0
11
330
21
-365
31
0
210
0
220
0
230
1
0
LINE
5
55
100
AcDbEntity
100
AcDbLine
8
FRAME
62
256
39
0
10
15
20
-395
30
0
11
330
21
-395
31
0
210
0
220
0
230
1
0
LINE
5
56
100
AcDbEntity
100
AcDbLine
8
FRAME
62
256
39
0
10
15
20
-425
30
0
11
330
21
-425
31
0
210
0
220
0
230
1
0
LINE
5
57
100
AcDbEntity
100
AcDbLine
8
FRAME
62
256
39
0
10
15
20
-455
30
0
11
330
21
-455
31
0
210
0
220
0
230
1
0
LINE
5
58
100
AcDbEntity
100
AcDbLine
8
FRAME
62
256
39
0
10
15
20
-485
30
0
11
330
21
-485
31
0
210
0
220
0
230
1
0
LINE
5
59
100
AcDbEntity
100
AcDbLine
8
FRAME
62
256
39
0
10
15
20
-515
30
0
11
330
21
-515
31
0
210
0
220
0
230
1
0
LINE
5
5A
100
AcDbEntity
100
AcDbLine
8
FRAME
62
256
39
0
10
15
20
-545
30
0
11
330
21
-545
31
0
210
0
220
0
230
1
0
LINE
5
5B
100
AcDbEntity
100
AcDbLine
8
FRAME
62
256
39
0
10
15
20
-575
30
0
11
330
21
-575
31
0
210
0
220
0
230
1
0
LINE
5
5C
100
AcDbEntity
100
AcDbLine
8
FRAME
62
256
39
0
10
15
20
-605
30
0
11
330
21
-605
31
0
210
0
220
0
230
1
0
LINE
5
5D
100
AcDbEntity
100
AcDbLine
8
FRAME
62
256
39
0
10
15
20
-635
30
0
11
330
21
-635
31
0
210
0
220
0
230
1
0
LINE
5
5E
100
AcDbEntity
100
AcDbLine
8
FRAME
62
256
39
0
10
15
20
-665
30
0
11
330
21
-665
31
0
210
0
220
0
230
1
0
LINE
5
5F
100
AcDbEntity
100
AcDbLine
8
FRAME
62
256
39
0
10
15
20
-695
30
0
11
330
21
-695
31
0
210
0
220
0
230
1
0
LINE
5
60
100
AcDbEntity
100
AcDbLine
8
FRAME
62
256
39
0
10
15
20
-725
30
0
11
330
21
-725
31
0
210
0
220
0
230
1
0
LINE
5
61
100
AcDbEntity
100
AcDbLine
8
FRAME
62
256
39
0
10
15
20
-755
30
0
11
330
21
-755
31
0
210
0
220
0
230
1
0
LINE
5
62
100
AcDbEntity
100
AcDbLine
8
FRAME
62
256
39
0
10
1140
20
-35
30
0
11
1140
21
-785
31
0
210
0
220
0
230
1
0
LINE
5
63
100
AcDbEntity
100
AcDbLine
8
FRAME
62
256
39
0
10
1215
20
-785
30
0
11
1215
21
-35
31
0
210
0
220
0
230
1
0
LINE
5
64
100
AcDbEntity
100
AcDbLine
8
FRAME
62
256
39
0
10
1245
20
-35
30
0
11
930
21
-35
31
0
210
0
220
0
230
1
0
LINE
5
65
100
AcDbEntity
100
AcDbLine
8
FRAME
62
256
39
0
10
930
20
-785
30
0
11
1245
21
-785
31
0
210
0
220
0
230
1
0
LINE
5
66
100
AcDbEntity
100
AcDbLine
8
FRAME
62
256
39
0
10
930
20
-65
30
0
11
1245
21
-65
31
0
210
0
220
0
230
1
0
LINE
5
67
100
AcDbEntity
100
AcDbLine
8
FRAME
62
256
39
0
10
930
20
-95
30
0
11
1245
21
-95
31
0
210
0
220
0
230
1
0
LINE
5
68
100
AcDbEntity
100
AcDbLine
8
FRAME
62
256
39
0
10
930
20
-125
30
0
11
1245
21
-125
31
0
210
0
220
0
230
1
0
LINE
5
69
100
AcDbEntity
100
AcDbLine
8
FRAME
62
256
39
0
10
930
20
-155
30
0
11
1245
21
-155
31
0
210
0
220
0
230
1
0
LINE
5
6A
100
AcDbEntity
100
AcDbLine
8
FRAME
62
256
39
0
10
930
20
-185
30
0
11
1245
21
-185
31
0
210
0
220
0
230
1
0
LINE
5
6B
100
AcDbEntity
100
AcDbLine
8
FRAME
62
256
39
0
10
930
20
-215
30
0
11
1245
21
-215
31
0
210
0
220
0
230
1
0
LINE
5
6C
100
AcDbEntity
100
AcDbLine
8
FRAME
62
256
39
0
10
930
20
-245
30
0
11
1245
21
-245
31
0
210
0
220
0
230
1
0
LINE
5
6D
100
AcDbEntity
100
AcDbLine
8
FRAME
62
256
39
0
10
930
20
-275
30
0
11
1245
21
-275
31
0
210
0
220
0
230
1
0
LINE
5
6E
100
AcDbEntity
100
AcDbLine
8
FRAME
62
256
39
0
10
930
20
-305
30
0
11
1245
21
-305
31
0
210
0
220
0
230
1
0
LINE
5
6F
100
AcDbEntity
100
AcDbLine
8
FRAME
62
256
39
0
10
930
20
-335
30
0
11
1245
21
-335
31
0
210
0
220
0
230
1
0
LINE
5
70
100
AcDbEntity
100
AcDbLine
8
FRAME
62
256
39
0
10
930
20
-365
30
0
11
1245
21
-365
31
0
210
0
220
0
230
1
0
LINE
5
71
100
AcDbEntity
100
AcDbLine
8
FRAME
62
256
39
0
10
930
20
-395
30
0
11
1245
21
-395
31
0
210
0
220
0
230
1
0
LINE
5
72
100
AcDbEntity
100
AcDbLine
8
FRAME
62
256
39
0
10
930
20
-425
30
0
11
1245
21
-425
31
0
210
0
220
0
230
1
0
LINE
5
73
100
AcDbEntity
100
AcDbLine
8
FRAME
62
256
39
0
10
930
20
-455
30
0
11
1245
21
-455
31
0
210
0
220
0
230
1
0
LINE
5
74
100
AcDbEntity
100
AcDbLine
8
FRAME
62
256
39
0
10
930
20
-485
30
0
11
1245
21
-485
31
0
210
0
220
0
230
1
0
LINE
5
75
100
AcDbEntity
100
AcDbLine
8
FRAME
62
256
39
0
10
930
20
-515
30
0
11
1245
21
-515
31
0
210
0
220
0
230
1
0
LINE
5
76
100
AcDbEntity
100
AcDbLine
8
FRAME
62
256
39
0
10
930
20
-545
30
0
11
1245
21
-545
31
0
210
0
220
0
230
1
0
LINE
5
77
100
AcDbEntity
100
AcDbLine
8
FRAME
62
256
39
0
10
930
20
-575
30
0
11
1245
21
-575
31
0
210
0
220
0
230
1
0
LINE
5
78
100
AcDbEntity
100
AcDbLine
8
FRAME
62
256
39
0
10
930
20
-605
30
0
11
1245
21
-605
31
0
210
0
220
0
230
1
0
LINE
5
79
100
AcDbEntity
100
AcDbLine
8
FRAME
62
256
39
0
10
930
20
-635
30
0
11
1245
21
-635
31
0
210
0
220
0
230
1
0
LINE
5
7A
100
AcDbEntity
100
AcDbLine
8
FRAME
62
256
39
0
10
930
20
-665
30
0
11
1245
21
-665
31
0
210
0
220
0
230
1
0
LINE
5
7B
100
AcDbEntity
100
AcDbLine
8
FRAME
62
256
39
0
10
930
20
-695
30
0
11
1245
21
-695
31
0
210
0
220
0
230
1
0
LINE
5
7C
100
AcDbEntity
100
AcDbLine
8
FRAME
62
256
39
0
10
930
20
-725
30
0
11
1245
21
-725
31
0
210
0
220
0
230
1
0
LINE
5
7D
100
AcDbEntity
100
AcDbLine
8
FRAME
62
256
39
0
10
930
20
-755
30
0
11
1245
21
-755
31
0
210
0
220
0
230
1
0
ENDBLK
5
38
100
AcDbEntity
8
FRAME
100
AcDbBlockEnd
0
BLOCK
5
7E
100
AcDbEntity
8
TABLE
100
AcDbBlockBegin
2
TABLE
70
2
10
0
20
0
30
0
3
TABLE
4
Page Table
0
LINE
5
80
100
AcDbEntity
100
AcDbLine
8
TABLE
62
256
39
0
10
0
20
-15
30
0
11
175
21
-15
31
0
210
0
220
0
230
1
0
LINE
5
81
100
AcDbEntity
100
AcDbLine
8
TABLE
62
256
39
0
10
405
20
-15
30
0
11
1230
21
-15
31
0
210
0
220
0
230
1
0
LINE
5
82
100
AcDbEntity
100
AcDbLine
8
TABLE
62
256
39
0
10
1230
20
-30
30
0
11
965
21
-30
31
0
210
0
220
0
230
1
0
LINE
5
83
100
AcDbEntity
100
AcDbLine
8
TABLE
62
256
39
0
10
695
20
-30
30
0
11
405
21
-30
31
0
210
0
220
0
230
1
0
LINE
5
84
100
AcDbEntity
100
AcDbLine
8
TABLE
62
256
39
0
10
175
20
-30
30
0
11
0
21
-30
31
0
210
0
220
0
230
1
0
LINE
5
85
100
AcDbEntity
100
AcDbLine
8
TABLE
62
256
39
0
10
0
20
-45
30
0
11
175
21
-45
31
0
210
0
220
0
230
1
0
LINE
5
86
100
AcDbEntity
100
AcDbLine
8
TABLE
62
256
39
0
10
405
20
-45
30
0
11
695
21
-45
31
0
210
0
220
0
230
1
0
LINE
5
87
100
AcDbEntity
100
AcDbLine
8
TABLE
62
256
39
0
10
965
20
-45
30
0
11
1230
21
-45
31
0
210
0
220
0
230
1
0
LINE
5
88
100
AcDbEntity
100
AcDbLine
8
TABLE
62
256
39
0
10
30
20
0
30
0
11
30
21
-60
31
0
210
0
220
0
230
1
0
LINE
5
89
100
AcDbEntity
100
AcDbLine
8
TABLE
62
256
39
0
10
75
20
0
30
0
11
75
21
-60
31
0
210
0
220
0
230
1
0
LINE
5
8A
100
AcDbEntity
100
AcDbLine
8
TABLE
62
256
39
0
10
175
20
-60
30
0
11
175
21
0
31
0
210
0
220
0
230
1
0
LINE
5
8B
100
AcDbEntity
100
AcDbLine
8
TABLE
62
256
39
0
10
290
20
0
30
0
11
290
21
-60
31
0
210
0
220
0
230
1
0
LINE
5
8C
100
AcDbEntity
100
AcDbLine
8
TABLE
62
256
39
0
10
405
20
-60
30
0
11
405
21
0
31
0
210
0
220
0
230
1
0
LINE
5
8D
100
AcDbEntity
100
AcDbLine
8
TABLE
62
256
39
0
10
465
20
0
30
0
11
465
21
-60
31
0
210
0
220
0
230
1
0
LINE
5
8E
100
AcDbEntity
100
AcDbLine
8
TABLE
62
256
39
0
10
595
20
-60
30
0
11
595
21
0
31
0
210
0
220
0
230
1
0
LINE
5
8F
100
AcDbEntity
100
AcDbLine
8
TABLE
62
256
39
0
10
640
20
0
30
0
11
640
21
-60
31
0
210
0
220
0
230
1
0
LINE
5
90
100
AcDbEntity
100
AcDbLine
8
TABLE
62
256
39
0
10
695
20
-60
30
0
11
695
21
0
31
0
210
0
220
0
230
1
0
LINE
5
91
100
AcDbEntity
100
AcDbLine
8
TABLE
62
256
39
0
10
965
20
0
30
0
11
965
21
-60
31
0
210
0
220
0
230
1
0
LINE
5
92
100
AcDbEntity
100
AcDbLine
8
TABLE
62
256
39
0
10
1005
20
-60
30
0
11
1005
21
0
31
0
210
0
220
0
230
1
0
LINE
5
93
100
AcDbEntity
100
AcDbLine
8
TABLE
62
256
39
0
10
1045
20
0
30
0
11
1045
21
-60
31
0
210
0
220
0
230
1
0
LINE
5
94
100
AcDbEntity
100
AcDbLine
8
TABLE
62
256
39
0
10
1100
20
-60
30
0
11
1100
21
0
31
0
210
0
220
0
230
1
0
ATTDEF
5
95
100
AcDbEntity
100
AcDbText
8
TABLE
62
256
39
0
10
0
20
0
30
0
40
6
1
ID
50
0
41
1
51
0
7
TextTableTag
71
0
72
0
11
0
21
0
31
0
210
0
220
0
230
1
100
AcDbAttributeDefinition
3
ID
2
ID
70
1
73
0
74
2
0
ATTDEF
5
96
100
AcDbEntity
100
AcDbText
8
TABLE
62
256
39
0
10
0
20
0
30
0
40
6
1
TABLEID
50
0
41
1
51
0
7
TextTableTag
71
0
72
0
11
0
21
0
31
0
210
0
220
0
230
1
100
AcDbAttributeDefinition
3
TABLEID
2
TABLEID
70
1
73
0
74
2
0
ATTDEF
5
97
100
AcDbEntity
100
AcDbText
8
TABLE
62
256
39
0
10
0
20
0
30
0
40
6
1

50
0
41
1
51
0
7
TextTableTag
71
0
72
0
11
0
21
0
31
0
210
0
220
0
230
1
100
AcDbAttributeDefinition
3
REVISION1_VERSION
2
REVISION1_VERSION
70
0
73
0
74
2
0
ATTDEF
5
98
100
AcDbEntity
100
AcDbText
8
TABLE
62
256
39
0
10
0
20
0
30
0
40
6
1

50
0
41
1
51
0
7
TextTableTag
71
0
72
0
11
0
21
0
31
0
210
0
220
0
230
1
100
AcDbAttributeDefinition
3
REVISION2_VERSION
2
REVISION2_VERSION
70
0
73
0
74
2
0
ATTDEF
5
99
100
AcDbEntity
100
AcDbText
8
TABLE
62
256
39
0
10
0
20
0
30
0
40
6
1

50
0
41
1
51
0
7
TextTableTag
71
0
72
0
11
0
21
0
31
0
210
0
220
0
230
1
100
AcDbAttributeDefinition
3
REVISION3_VERSION
2
REVISION3_VERSION
70
0
73
0
74
2
0
ATTDEF
5
9A
100
AcDbEntity
100
AcDbText
8
TABLE
62
256
39
0
10
0
20
0
30
0
40
6
1

50
0
41
1
51
0
7
TextTableTag
71
0
72
0
11
0
21
0
31
0
210
0
220
0
230
1
100
AcDbAttributeDefinition
3
REVISION1_DATE
2
REVISION1_DATE
70
0
73
0
74
2
0
ATTDEF
5
9B
100
AcDbEntity
100
AcDbText
8
TABLE
62
256
39
0
10
0
20
0
30
0
40
6
1

50
0
41
1
51
0
7
TextTableTag
71
0
72
0
11
0
21
0
31
0
210
0
220
0
230
1
100
AcDbAttributeDefinition
3
REVISION2_DATE
2
REVISION2_DATE
70
0
73
0
74
2
0
ATTDEF
5
9C
100
AcDbEntity
100
AcDbText
8
TABLE
62
256
39
0
10
0
20
0
30
0
40
6
1

50
0
41
1
51
0
7
TextTableTag
71
0
72
0
11
0
21
0
31
0
210
0
220
0
230
1
100
AcDbAttributeDefinition
3
REVISION3_DATE
2
REVISION3_DATE
70
0
73
0
74
2
0
ATTDEF
5
9D
100
AcDbEntity
100
AcDbText
8
TABLE
62
256
39
0
10
0
20
0
30
0
40
6
1

50
0
41
1
51
0
7
TextTableTag
71
0
72
0
11
0
21
0
31
0
210
0
220
0
230
1
100
AcDbAttributeDefinition
3
REVISION1_REMARKS
2
REVISION1_REMARKS
70
0
73
0
74
2
0
ATTDEF
5
9E
100
AcDbEntity
100
AcDbText
8
TABLE
62
256
39
0
10
0
20
0
30
0
40
6
1

50
0
41
1
51
0
7
TextTableTag
71
0
72
0
11
0
21
0
31
0
210
0
220
0
230
1
100
AcDbAttributeDefinition
3
REVISION2_REMARKS
2
REVISION2_REMARKS
70
0
73
0
74
2
0
ATTDEF
5
9F
100
AcDbEntity
100
AcDbText
8
TABLE
62
256
39
0
10
0
20
0
30
0
40
6
1

50
0
41
1
51
0
7
TextTableTag
71
0
72
0
11
0
21
0
31
0
210
0
220
0
230
1
100
AcDbAttributeDefinition
3
REVISION3_REMARKS
2
REVISION3_REMARKS
70
0
73
0
74
2
0
ATTDEF
5
A0
100
AcDbEntity
100
AcDbText
8
TABLE
62
256
39
0
10
0
20
0
30
0
40
6
1

50
0
41
1
51
0
7
TextTableTag
71
0
72
0
11
0
21
0
31
0
210
0
220
0
230
1
100
AcDbAttributeDefinition
3
DRAWN_NAME
2
DRAWN_NAME
70
0
73
0
74
2
0
ATTDEF
5
A1
100
AcDbEntity
100
AcDbText
8
TABLE
62
256
39
0
10
0
20
0
30
0
40
6
1

50
0
41
1
51
0
7
TextTableTag
71
0
72
0
11
0
21
0
31
0
210
0
220
0
230
1
100
AcDbAttributeDefinition
3
CHECKED_NAME
2
CHECKED_NAME
70
0
73
0
74
2
0
ATTDEF
5
A2
100
AcDbEntity
100
AcDbText
8
TABLE
62
256
39
0
10
0
20
0
30
0
40
6
1

50
0
41
1
51
0
7
TextTableTag
71
0
72
0
11
0
21
0
31
0
210
0
220
0
230
1
100
AcDbAttributeDefinition
3
APPROVED_NAME
2
APPROVED_NAME
70
0
73
0
74
2
0
ATTDEF
5
A3
100
AcDbEntity
100
AcDbText
8
TABLE
62
256
39
0
10
0
20
0
30
0
40
6
1

50
0
41
1
51
0
7
TextTableTag
71
0
72
0
11
0
21
0
31
0
210
0
220
0
230
1
100
AcDbAttributeDefinition
3
DRAWN_DATE
2
DRAWN_DATE
70
0
73
0
74
2
0
ATTDEF
5
A4
100
AcDbEntity
100
AcDbText
8
TABLE
62
256
39
0
10
0
20
0
30
0
40
6
1

50
0
41
1
51
0
7
TextTableTag
71
0
72
0
11
0
21
0
31
0
210
0
220
0
230
1
100
AcDbAttributeDefinition
3
CHECKED_DATE
2
CHECKED_DATE
70
0
73
0
74
2
0
ATTDEF
5
A5
100
AcDbEntity
100
AcDbText
8
TABLE
62
256
39
0
10
0
20
0
30
0
40
6
1

50
0
41
1
51
0
7
TextTableTag
71
0
72
0
11
0
21
0
31
0
210
0
220
0
230
1
100
AcDbAttributeDefinition
3
APPROVED_DATE
2
APPROVED_DATE
70
0
73
0
74
2
0
ATTDEF
5
A6
100
AcDbEntity
100
AcDbText
8
TABLE
62
256
39
0
10
0
20
0
30
0
40
6
1

50
0
41
1
51
0
7
TextTableTag
71
0
72
0
11
0
21
0
31
0
210
0
220
0
230
1
100
AcDbAttributeDefinition
3
TITLE
2
TITLE
70
0
73
0
74
2
0
ATTDEF
5
A7
100
AcDbEntity
100
AcDbText
8
TABLE
62
256
39
0
10
0
20
0
30
0
40
6
1

50
0
41
1
51
0
7
TextTableTag
71
0
72
0
11
0
21
0
31
0
210
0
220
0
230
1
100
AcDbAttributeDefinition
3
SUBTITLE1
2
SUBTITLE1
70
0
73
0
74
2
0
ATTDEF
5
A8
100
AcDbEntity
100
AcDbText
8
TABLE
62
256
39
0
10
0
20
0
30
0
40
6
1

50
0
41
1
51
0
7
TextTableTag
71
0
72
0
11
0
21
0
31
0
210
0
220
0
230
1
100
AcDbAttributeDefinition
3
SUBTITLE2
2
SUBTITLE2
70
0
73
0
74
2
0
ATTDEF
5
A9
100
AcDbEntity
100
AcDbText
8
TABLE
62
256
39
0
10
0
20
0
30
0
40
6
1

50
0
41
1
51
0
7
TextTableTag
71
0
72
0
11
0
21
0
31
0
210
0
220
0
230
1
100
AcDbAttributeDefinition
3
SUBTITLE3
2
SUBTITLE3
70
0
73
0
74
2
0
ATTDEF
5
AA
100
AcDbEntity
100
AcDbText
8
TABLE
62
256
39
0
10
0
20
0
30
0
40
6
1

50
0
41
1
51
0
7
TextTableTag
71
0
72
0
11
0
21
0
31
0
210
0
220
0
230
1
100
AcDbAttributeDefinition
3
REV
2
REV
70
0
73
0
74
2
0
ATTDEF
5
AB
100
AcDbEntity
100
AcDbText
8
TABLE
62
256
39
0
10
0
20
0
30
0
40
6
1

50
0
41
1
51
0
7
TextTableTag
71
0
72
0
11
0
21
0
31
0
210
0
220
0
230
1
100
AcDbAttributeDefinition
3
STATUS
2
STATUS
70
0
73
0
74
2
0
ATTDEF
5
AC
100
AcDbEntity
100
AcDbText
8
TABLE
62
256
39
0
10
0
20
0
30
0
40
6
1

50
0
41
1
51
0
7
TextTableTag
71
0
72
0
11
0
21
0
31
0
210
0
220
0
230
1
100
AcDbAttributeDefinition
3
PAGE
2
PAGE
70
0
73
0
74
2
0
ATTDEF
5
AD
100
AcDbEntity
100
AcDbText
8
TABLE
62
256
39
0
10
0
20
0
30
0
40
6
1

50
0
41
1
51
0
7
TextTableTag
71
0
72
0
11
0
21
0
31
0
210
0
220
0
230
1
100
AcDbAttributeDefinition
3
PAGES
2
PAGES
70
0
73
0
74
2
0
ATTDEF
5
AE
100
AcDbEntity
100
AcDbText
8
TABLE
62
256
39
0
10
0
20
0
30
0
40
6
1

50
0
41
1
51
0
7
TextTableTag
71
0
72
0
11
0
21
0
31
0
210
0
220
0
230
1
100
AcDbAttributeDefinition
3
PROJECT
2
PROJECT
70
0
73
0
74
2
0
ATTDEF
5
AF
100
AcDbEntity
100
AcDbText
8
TABLE
62
256
39
0
10
0
20
0
30
0
40
6
1

50
0
41
1
51
0
7
TextTableTag
71
0
72
0
11
0
21
0
31
0
210
0
220
0
230
1
100
AcDbAttributeDefinition
3
ORDER_NO
2
ORDER_NO
70
0
73
0
74
2
0
ATTDEF
5
B0
100
AcDbEntity
100
AcDbText
8
TABLE
62
256
39
0
10
0
20
0
30
0
40
6
1

50
0
41
1
51
0
7
TextTableTag
71
0
72
0
11
0
21
0
31
0
210
0
220
0
230
1
100
AcDbAttributeDefinition
3
DOCUMENT_NO
2
DOCUMENT_NO
70
0
73
0
74
2
0
ATTDEF
5
B1
100
AcDbEntity
100
AcDbText
8
TABLE
62
256
39
0
10
0
20
0
30
0
40
6
1

50
0
41
1
51
0
7
TextTableTag
71
0
72
0
11
0
21
0
31
0
210
0
220
0
230
1
100
AcDbAttributeDefinition
3
ARCHIVE_NO
2
ARCHIVE_NO
70
0
73
0
74
2
0
ENDBLK
5
7F
100
AcDbEntity
8
TABLE
100
AcDbBlockEnd
0
BLOCK
5
B2
100
AcDbEntity
8
GRID
100
AcDbBlockBegin
2
GRID
70
0
10
0
20
0
30
0
3
GRID
4
Page Grid
0
ENDBLK
5
B3
100
AcDbEntity
8
GRID
100
AcDbBlockEnd
0
BLOCK
5
B4
100
AcDbEntity
8
IO
100
AcDbBlockBegin
2
INPUT
70
2
10
0
20
0
30
0
3
INPUT
4
Input Signal
0
LINE
5
B6
100
AcDbEntity
100
AcDbLine
8
IO
62
256
39
0
10
0
20
0
30
0
11
285
21
0
31
0
210
0
220
0
230
1
0
LINE
5
B7
100
AcDbEntity
100
AcDbLine
8
IO
62
256
39
0
10
285
20
-30
30
0
11
0
21
-30
31
0
210
0
220
0
230
1
0
LINE
5
B8
100
AcDbEntity
100
AcDbLine
8
IO
62
256
39
0
10
0
20
-30
30
0
11
0
21
0
31
0
210
0
220
0
230
1
0
LINE
5
B9
100
AcDbEntity
100
AcDbLine
8
IO
62
256
39
0
10
210
20
0
30
0
11
210
21
-30
31
0
210
0
220
0
230
1
0
LINE
5
BA
100
AcDbEntity
100
AcDbLine
8
IO
62
256
39
0
10
285
20
-30
30
0
11
285
21
0
31
0
210
0
220
0
230
1
0
ATTDEF
5
BB
100
AcDbEntity
100
AcDbText
8
IO
62
256
39
0
10
288
20
-30
30
0
40
6
1
ID
50
0
41
1
51
0
7
TextElementIO
71
0
72
0
11
288
21
-30
31
0
210
0
220
0
230
1
100
AcDbAttributeDefinition
3
ID
2
ID
70
1
73
0
74
2
0
ATTDEF
5
BC
100
AcDbEntity
100
AcDbText
8
IO
62
256
39
0
10
288
20
0
30
0
40
6
1
TAGID
50
0
41
1
51
0
7
TextElementIO
71
0
72
0
11
288
21
0
31
0
210
0
220
0
230
1
100
AcDbAttributeDefinition
3
TAGID
2
TAGID
70
1
73
0
74
2
0
ATTDEF
5
BD
100
AcDbEntity
100
AcDbText
8
IO
62
256
39
0
10
3
20
-7.5
30
0
40
6
1
DESIGNATION
50
0
41
1
51
0
7
TextElementIO
71
0
72
0
11
3
21
-7.5
31
0
210
0
220
0
230
1
100
AcDbAttributeDefinition
3
DESIGNATION
2
DESIGNATION
70
0
73
0
74
2
0
ATTDEF
5
BE
100
AcDbEntity
100
AcDbText
8
IO
62
256
39
0
10
3
20
-22.5
30
0
40
6
1
DESCRIPTION
50
0
41
1
51
0
7
TextElementIO
71
0
72
0
11
3
21
-22.5
31
0
210
0
220
0
230
1
100
AcDbAttributeDefinition
3
DESCRIPTION
2
DESCRIPTION
70
0
73
0
74
2
0
ATTDEF
5
BF
100
AcDbEntity
100
AcDbText
8
IO
62
256
39
0
10
213
20
-7.5
30
0
40
6
1
SIGNAL
50
0
41
1
51
0
7
TextElementIO
71
0
72
0
11
213
21
-7.5
31
0
210
0
220
0
230
1
100
AcDbAttributeDefinition
3
SIGNAL
2
SIGNAL
70
0
73
0
74
2
0
ATTDEF
5
C0
100
AcDbEntity
100
AcDbText
8
IO
62
256
39
0
10
213
20
-22.5
30
0
40
6
1
CONDITION
50
0
41
1
51
0
7
TextElementIO
71
0
72
0
11
213
21
-22.5
31
0
210
0
220
0
230
1
100
AcDbAttributeDefinition
3
CONDITION
2
CONDITION
70
0
73
0
74
2
0
ENDBLK
5
B5
100
AcDbEntity
8
IO
100
AcDbBlockEnd
0
BLOCK
5
C1
100
AcDbEntity
8
IO
100
AcDbBlockBegin
2
OUTPUT
70
2
10
0
20
0
30
0
3
OUTPUT
4
Output Signal
0
LINE
5
C3
100
AcDbEntity
100
AcDbLine
8
IO
62
256
39
0
10
0
20
0
30
0
11
285
21
0
31
0
210
0
220
0
230
1
0
LINE
5
C4
100
AcDbEntity
100
AcDbLine
8
IO
62
256
39
0
10
285
20
-30
30
0
11
0
21
-30
31
0
210
0
220
0
230
1
0
LINE
5
C5
100
AcDbEntity
100
AcDbLine
8
IO
62
256
39
0
10
0
20
-30
30
0
11
0
21
0
31
0
210
0
220
0
230
1
0
LINE
5
C6
100
AcDbEntity
100
AcDbLine
8
IO
62
256
39
0
10
210
20
0
30
0
11
210
21
-30
31
0
210
0
220
0
230
1
0
LINE
5
C7
100
AcDbEntity
100
AcDbLine
8
IO
62
256
39
0
10
285
20
-30
30
0
11
285
21
0
31
0
210
0
220
0
230
1
0
ATTDEF
5
C8
100
AcDbEntity
100
AcDbText
8
IO
62
256
39
0
10
288
20
-30
30
0
40
6
1
ID
50
0
41
1
51
0
7
TextElementIO
71
0
72
0
11
288
21
-30
31
0
210
0
220
0
230
1
100
AcDbAttributeDefinition
3
ID
2
ID
70
1
73
0
74
2
0
ATTDEF
5
C9
100
AcDbEntity
100
AcDbText
8
IO
62
256
39
0
10
288
20
0
30
0
40
6
1
TAGID
50
0
41
1
51
0
7
TextElementIO
71
0
72
0
11
288
21
0
31
0
210
0
220
0
230
1
100
AcDbAttributeDefinition
3
TAGID
2
TAGID
70
1
73
0
74
2
0
ATTDEF
5
CA
100
AcDbEntity
100
AcDbText
8
IO
62
256
39
0
10
3
20
-7.5
30
0
40
6
1
DESIGNATION
50
0
41
1
51
0
7
TextElementIO
71
0
72
0
11
3
21
-7.5
31
0
210
0
220
0
230
1
100
AcDbAttributeDefinition
3
DESIGNATION
2
DESIGNATION
70
0
73
0
74
2
0
ATTDEF
5
CB
100
AcDbEntity
100
AcDbText
8
IO
62
256
39
0
10
3
20
-22.5
30
0
40
6
1
DESCRIPTION
50
0
41
1
51
0
7
TextElementIO
71
0
72
0
11
3
21
-22.5
31
0
210
0
220
0
230
1
100
AcDbAttributeDefinition
3
DESCRIPTION
2
DESCRIPTION
70
0
73
0
74
2
0
ATTDEF
5
CC
100
AcDbEntity
100
AcDbText
8
IO
62
256
39
0
10
213
20
-7.5
30
0
40
6
1
SIGNAL
50
0
41
1
51
0
7
TextElementIO
71
0
72
0
11
213
21
-7.5
31
0
210
0
220
0
230
1
100
AcDbAttributeDefinition
3
SIGNAL
2
SIGNAL
70
0
73
0
74
2
0
ATTDEF
5
CD
100
AcDbEntity
100
AcDbText
8
IO
62
256
39
0
10
213
20
-22.5
30
0
40
6
1
CONDITION
50
0
41
1
51
0
7
TextElementIO
71
0
72
0
11
213
21
-22.5
31
0
210
0
220
0
230
1
100
AcDbAttributeDefinition
3
CONDITION
2
CONDITION
70
0
73
0
74
2
0
ENDBLK
5
C2
100
AcDbEntity
8
IO
100
AcDbBlockEnd
0
BLOCK
5
CE
100
AcDbEntity
8
ELEMENTS
100
AcDbBlockBegin
2
ANDGATE
70
2
10
0
20
0
30
0
3
ANDGATE
4
AND Gate
0
LINE
5
D0
100
AcDbEntity
100
AcDbLine
8
ELEMENTS
62
256
39
0
10
0
20
0
30
0
11
30
21
0
31
0
210
0
220
0
230
1
0
LINE
5
D1
100
AcDbEntity
100
AcDbLine
8
ELEMENTS
62
256
39
0
10
0
20
-30
30
0
11
30
21
-30
31
0
210
0
220
0
230
1
0
LINE
5
D2
100
AcDbEntity
100
AcDbLine
8
ELEMENTS
62
256
39
0
10
0
20
0
30
0
11
0
21
-30
31
0
210
0
220
0
230
1
0
LINE
5
D3
100
AcDbEntity
100
AcDbLine
8
ELEMENTS
62
256
39
0
10
30
20
0
30
0
11
30
21
-30
31
0
210
0
220
0
230
1
0
ATTDEF
5
D4
100
AcDbEntity
100
AcDbText
8
ELEMENTS
62
256
39
0
10
30
20
-30
30
0
40
10
1
ID
50
0
41
1
51
0
7
TextElementGate
71
0
72
1
11
30
21
-30
31
0
210
0
220
0
230
1
100
AcDbAttributeDefinition
3
ID
2
ID
70
1
73
0
74
2
0
ATTDEF
5
D5
100
AcDbEntity
100
AcDbText
8
ELEMENTS
62
256
39
0
10
15
20
-15
30
0
40
10
1
&
50
0
41
1
51
0
7
TextElementGate
71
0
72
1
11
15
21
-15
31
0
210
0
220
0
230
1
100
AcDbAttributeDefinition
3
TEXT
2
TEXT
70
0
73
0
74
2
0
ENDBLK
5
CF
100
AcDbEntity
8
ELEMENTS
100
AcDbBlockEnd
0
BLOCK
5
D6
100
AcDbEntity
8
ELEMENTS
100
AcDbBlockBegin
2
ORGATE
70
2
10
0
20
0
30
0
3
ORGATE
4
OR Gate
0
LINE
5
D8
100
AcDbEntity
100
AcDbLine
8
ELEMENTS
62
256
39
0
10
0
20
0
30
0
11
30
21
0
31
0
210
0
220
0
230
1
0
LINE
5
D9
100
AcDbEntity
100
AcDbLine
8
ELEMENTS
62
256
39
0
10
0
20
-30
30
0
11
30
21
-30
31
0
210
0
220
0
230
1
0
LINE
5
DA
100
AcDbEntity
100
AcDbLine
8
ELEMENTS
62
256
39
0
10
0
20
0
30
0
11
0
21
-30
31
0
210
0
220
0
230
1
0
LINE
5
DB
100
AcDbEntity
100
AcDbLine
8
ELEMENTS
62
256
39
0
10
30
20
0
30
0
11
30
21
-30
31
0
210
0
220
0
230
1
0
ATTDEF
5
DC
100
AcDbEntity
100
AcDbText
8
ELEMENTS
62
256
39
0
10
30
20
-30
30
0
40
10
1
ID
50
0
41
1
51
0
7
TextElementGate
71
0
72
1
11
30
21
-30
31
0
210
0
220
0
230
1
100
AcDbAttributeDefinition
3
ID
2
ID
70
1
73
0
74
2
0
ATTDEF
5
DD
100
AcDbEntity
100
AcDbText
8
ELEMENTS
62
256
39
0
10
15
20
-15
30
0
40
10
1
\U+22651
50
0
41
1
51
0
7
TextElementGate
71
0
72
1
11
15
21
-15
31
0
210
0
220
0
230
1
100
AcDbAttributeDefinition
3
TEXT
2
TEXT
70
0
73
0
74
2
0
ENDBLK
5
D7
100
AcDbEntity
8
ELEMENTS
100
AcDbBlockEnd
0
ENDSEC
0
SECTION
2
ENTITIES
0
INSERT
5
DF
100
AcDbEntity
100
AcDbBlockReference
2
FRAME
8
FRAME
10
0
20
0
30
0
0
INSERT
5
E0
100
AcDbEntity
100
AcDbBlockReference
2
GRID
8
GRID
10
0
20
866
30
0
0
INSERT
5
E1
100
AcDbEntity
100
AcDbBlockReference
2
TABLE
8
TABLE
10
15
20
-816
30
0
66
1
0
ATTRIB
5
E2
100
AcDbEntity
100
AcDbText
8
TABLE
39
0
10
0
20
0
30
0
40
6
1
0
50
0
41
1
51
0
7
TextTableTag
71
0
72
0
11
0
21
0
31
0
210
0
220
0
230
1
100
AcDbAttribute
2
ID
70
1
73
0
74
2
0
ATTRIB
5
E3
100
AcDbEntity
100
AcDbText
8
TABLE
39
0
10
0
20
0
30
0
40
6
1

50
0
41
1
51
0
7
TextTableTag
71
0
72
0
11
0
21
0
31
0
210
0
220
0
230
1
100
AcDbAttribute
2
TABLEID
70
1
73
0
74
2
0
ATTRIB
5
E4
100
AcDbEntity
100
AcDbText
8
TABLE
39
0
10
0
20
0
30
0
40
6
1

50
0
41
1
51
0
7
TextTableTag
71
0
72
0
11
0
21
0
31
0
210
0
220
0
230
1
100
AcDbAttribute
2
REVISION1_VERSION
70
0
73
0
74
2
0
ATTRIB
5
E5
100
AcDbEntity
100
AcDbText
8
TABLE
39
0
10
0
20
0
30
0
40
6
1

50
0
41
1
51
0
7
TextTableTag
71
0
72
0
11
0
21
0
31
0
210
0
220
0
230
1
100
AcDbAttribute
2
REVISION2_VERSION
70
0
73
0
74
2
0
ATTRIB
5
E6
100
AcDbEntity
100
AcDbText
8
TABLE
39
0
10
0
20
0
30
0
40
6
1

50
0
41
1
51
0
7
TextTableTag
71
0
72
0
11
0
21
0
31
0
210
0
220
0
230
1
100
AcDbAttribute
2
REVISION3_VERSION
70
0
73
0
74
2
0
ATTRIB
5
E7
100
AcDbEntity
100
AcDbText
8
TABLE
39
0
10
0
20
0
30
0
40
6
1

50
0
41
1
51
0
7
TextTableTag
71
0
72
0
11
0
21
0
31
0
210
0
220
0
230
1
100
AcDbAttribute
2
REVISION1_DATE
70
0
73
0
74
2
0
ATTRIB
5
E8
100
AcDbEntity
100
AcDbText
8
TABLE
39
0
10
0
20
0
30
0
40
6
1

50
0
41
1
51
0
7
TextTableTag
71
0
72
0
11
0
21
0
31
0
210
0
220
0
230
1
100
AcDbAttribute
2
REVISION2_DATE
70
0
73
0
74
2
0
ATTRIB
5
E9
100
AcDbEntity
100
AcDbText
8
TABLE
39
0
10
0
20
0
30
0
40
6
1

50
0
41
1
51
0
7
TextTableTag
71
0
72
0
11
0
21
0
31
0
210
0
220
0
230
1
100
AcDbAttribute
2
REVISION3_DATE
70
0
73
0
74
2
0
ATTRIB
5
EA
100
AcDbEntity
100
AcDbText
8
TABLE
39
0
10
0
20
0
30
0
40
6
1

50
0
41
1
51
0
7
TextTableTag
71
0
72
0
11
0
21
0
31
0
210
0
220
0
230
1
100
AcDbAttribute
2
REVISION1_REMARKS
70
0
73
0
74
2
0
ATTRIB
5
EB
100
AcDbEntity
100
AcDbText
8
TABLE
39
0
10
0
20
0
30
0
40
6
1

50
0
41
1
51
0
7
TextTableTag
71
0
72
0
11
0
21
0
31
0
210
0
220
0
230
1
100
AcDbAttribute
2
REVISION2_REMARKS
70
0
73
0
74
2
0
ATTRIB
5
EC
100
AcDbEntity
100
AcDbText
8
TABLE
39
0
10
0
20
0
30
0
40
6
1

50
0
41
1
51
0
7
TextTableTag
71
0
72
0
11
0
21
0
31
0
210
0
220
0
230
1
100
AcDbAttribute
2
REVISION3_REMARKS
70
0
73
0
74
2
0
ATTRIB
5
ED
100
AcDbEntity
100
AcDbText
8
TABLE
39
0
10
0
20
0
30
0
40
6
1
user
50
0
41
1
51
0
7
TextTableTag
71
0
72
0
11
0
21
0
31
0
210
0
220
0
230
1
100
AcDbAttribute
2
DRAWN_NAME
70
0
73
0
74
2
0
ATTRIB
5
EE
100
AcDbEntity
100
AcDbText
8
TABLE
39
0
10
0
20
0
30
0
40
6
1
user
50
0
41
1
51
0
7
TextTableTag
71
0
72
0
11
0
21
0
31
0
210
0
220
0
230
1
100
AcDbAttribute
2
CHECKED_NAME
70
0
73
0
74
2
0
ATTRIB
5
EF
100
AcDbEntity
100
AcDbText
8
TABLE
39
0
10
0
20
0
30
0
40
6
1
user
50
0
41
1
51
0
7
TextTableTag
71
0
72
0
11
0
21
0
31
0
210
0
220
0
230
1
100
AcDbAttribute
2
APPROVED_NAME
70
0
73
0
74
2
0
ATTRIB
5
F0
100
AcDbEntity
100
AcDbText
8
TABLE
39
0
10
0
20
0
30
0
40
6
1
2013-08-08
50
0
41
1
51
0
7
TextTableTag
71
0
72
0
11
0
21
0
31
0
210
0
220
0
230
1
100
AcDbAttribute
2
DRAWN_DATE
70
0
73
0
74
2
0
ATTRIB
5
F1
100
AcDbEntity
100
AcDbText
8
TABLE
39
0
10
0
20
0
30
0
40
6
1
2013-08-08
50
0
41
1
51
0
7
TextTableTag
71
0
72
0
11
0
21
0
31
0
210
0
220
0
230
1
100
AcDbAttribute
2
CHECKED_DATE
70
0
73
0
74
2
0
ATTRIB
5
F2
100
AcDbEntity
100
AcDbText
8
TABLE
39
0
10
0
20
0
30
0
40
6
1
2013-08-08
50
0
41
1
51
0
7
TextTableTag
71
0
72
0
11
0
21
0
31
0
210
0
220
0
230
1
100
AcDbAttribute
2
APPROVED_DATE
70
0
73
0
74
2
0
ATTRIB
5
F3
100
AcDbEntity
100
AcDbText
8
TABLE
39
0
10
0
20
0
30
0
40
6
1
LOGIC DIAGRAM
50
0
41
1
51
0
7
TextTableTag
71
0
72
0
11
0
21
0
31
0
210
0
220
0
230
1
100
AcDbAttribute
2
TITLE
70
0
73
0
74
2
0
ATTRIB
5
F4
100
AcDbEntity
100
AcDbText
8
TABLE
39
0
10
0
20
0
30
0
40
6
1
DIAGRAM TITLE
50
0
41
1
51
0
7
TextTableTag
71
0
72
0
11
0
21
0
31
0
210
0
220
0
230
1
100
AcDbAttribute
2
SUBTITLE1
70
0
73
0
74
2
0
ATTRIB
5
F5
100
AcDbEntity
100
AcDbText
8
TABLE
39
0
10
0
20
0
30
0
40
6
1

50
0
41
1
51
0
7
TextTableTag
71
0
72
0
11
0
21
0
31
0
210
0
220
0
230
1
100
AcDbAttribute
2
SUBTITLE2
70
0
73
0
74
2
0
ATTRIB
5
F6
100
AcDbEntity
100
AcDbText
8
TABLE
39
0
10
0
20
0
30
0
40
6
1

50
0
41
1
51
0
7
TextTableTag
71
0
72
0
11
0
21
0
31
0
210
0
220
0
230
1
100
AcDbAttribute
2
SUBTITLE3
70
0
73
0
74
2
0
ATTRIB
5
F7
100
AcDbEntity
100
AcDbText
8
TABLE
39
0
10
0
20
0
30
0
40
6
1
0
50
0
41
1
51
0
7
TextTableTag
71
0
72
0
11
0
21
0
31
0
210
0
220
0
230
1
100
AcDbAttribute
2
REV
70
0
73
0
74
2
0
ATTRIB
5
F8
100
AcDbEntity
100
AcDbText
8
TABLE
39
0
10
0
20
0
30
0
40
6
1
-
50
0
41
1
51
0
7
TextTableTag
71
0
72
0
11
0
21
0
31
0
210
0
220
0
230
1
100
AcDbAttribute
2
STATUS
70
0
73
0
74
2
0
ATTRIB
5
F9
100
AcDbEntity
100
AcDbText
8
TABLE
39
0
10
0
20
0
30
0
40
6
1
-
50
0
41
1
51
0
7
TextTableTag
71
0
72
0
11
0
21
0
31
0
210
0
220
0
230
1
100
AcDbAttribute
2
PAGE
70
0
73
0
74
2
0
ATTRIB
5
FA
100
AcDbEntity
100
AcDbText
8
TABLE
39
0
10
0
20
0
30
0
40
6
1
-
50
0
41
1
51
0
7
TextTableTag
71
0
72
0
11
0
21
0
31
0
210
0
220
0
230
1
100
AcDbAttribute
2
PAGES
70
0
73
0
74
2
0
ATTRIB
5
FB
100
AcDbEntity
100
AcDbText
8
TABLE
39
0
10
0
20
0
30
0
40
6
1
sample
50
0
41
1
51
0
7
TextTableTag
71
0
72
0
11
0
21
0
31
0
210
0
220
0
230
1
100
AcDbAttribute
2
PROJECT
70
0
73
0
74
2
0
ATTRIB
5
FC
100
AcDbEntity
100
AcDbText
8
TABLE
39
0
10
0
20
0
30
0
40
6
1

50
0
41
1
51
0
7
TextTableTag
71
0
72
0
11
0
21
0
31
0
210
0
220
0
230
1
100
AcDbAttribute
2
ORDER_NO
70
0
73
0
74
2
0
ATTRIB
5
FD
100
AcDbEntity
100
AcDbText
8
TABLE
39
0
10
0
20
0
30
0
40
6
1

50
0
41
1
51
0
7
TextTableTag
71
0
72
0
11
0
21
0
31
0
210
0
220
0
230
1
100
AcDbAttribute
2
DOCUMENT_NO
70
0
73
0
74
2
0
ATTRIB
5
FE
100
AcDbEntity
100
AcDbText
8
TABLE
39
0
10
0
20
0
30
0
40
6
1

50
0
41
1
51
0
7
TextTableTag
71
0
72
0
11
0
21
0
31
0
210
0
220
0
230
1
100
AcDbAttribute
2
ARCHIVE_NO
70
0
73
0
74
2
0
SEQEND
5
FF
100
AcDbEntity
8
TABLE
0
INSERT
5
100
100
AcDbEntity
100
AcDbBlockReference
2
INPUT
8
IO
10
45
20
-185
30
0
66
1
0
ATTRIB
5
101
100
AcDbEntity
100
AcDbText
8
IO
39
0
10
333
20
-215
30
0
40
6
1
0
50
0
41
1
51
0
7
TextElementIO
71
0
72
0
11
333
21
-215
31
0
210
0
220
0
230
1
100
AcDbAttribute
2
ID
70
1
73
0
74
2
0
ATTRIB
5
102
100
AcDbEntity
100
AcDbText
8
IO
39
0
10
333
20
-185
30
0
40
6
1
0
50
0
41
1
51
0
7
TextElementIO
71
0
72
0
11
333
21
-185
31
0
210
0
220
0
230
1
100
AcDbAttribute
2
TAGID
70
1
73
0
74
2
0
ATTRIB
5
103
100
AcDbEntity
100
AcDbText
8
IO
39
0
10
48
20
-192.5
30
0
40
6
1
Designation0
50
0
41
1
51
0
7
TextElementIO
71
0
72
0
11
48
21
-192.5
31
0
210
0
220
0
230
1
100
AcDbAttribute
2
DESIGNATION
70
0
73
0
74
2
0
ATTRIB
5
104
100
AcDbEntity
100
AcDbText
8
IO
39
0
10
48
20
-207.5
30
0
40
6
1
Description0
50
0
41
1
51
0
7
TextElementIO
71
0
72
0
11
48
21
-207.5
31
0
210
0
220
0
230
1
100
AcDbAttribute
2
DESCRIPTION
70
0
73
0
74
2
0
ATTRIB
5
105
100
AcDbEntity
100
AcDbText
8
IO
39
0
10
258
20
-192.5
30
0
40
6
1
Signal0
50
0
41
1
51
0
7
TextElementIO
71
0
72
0
11
258
21
-192.5
31
0
210
0
220
0
230
1
100
AcDbAttribute
2
SIGNAL
70
0
73
0
74
2
0
ATTRIB
5
106
100
AcDbEntity
100
AcDbText
8
IO
39
0
10
258
20
-207.5
30
0
40
6
1
Condition0
50
0
41
1
51
0
7
TextElementIO
71
0
72
0
11
258
21
-207.5
31
0
210
0
220
0
230
1
100
AcDbAttribute
2
CONDITION
70
0
73
0
74
2
0
SEQEND
5
107
100
AcDbEntity
8
IO
0
INSERT
5
108
100
AcDbEntity
100
AcDbBlockReference
2
INPUT
8
IO
10
45
20
-245
30
0
66
1
0
ATTRIB
5
109
100
AcDbEntity
100
AcDbText
8
IO
39
0
10
333
20
-275
30
0
40
6
1
1
50
0
41
1
51
0
7
TextElementIO
71
0
72
0
11
333
21
-275
31
0
210
0
220
0
230
1
100
AcDbAttribute
2
ID
70
1
73
0
74
2
0
ATTRIB
5
10A
100
AcDbEntity
100
AcDbText
8
IO
39
0
10
333
20
-245
30
0
40
6
1
1
50
0
41
1
51
0
7
TextElementIO
71
0
72
0
11
333
21
-245
31
0
210
0
220
0
230
1
100
AcDbAttribute
2
TAGID
70
1
73
0
74
2
0
ATTRIB
5
10B
100
AcDbEntity
100
AcDbText
8
IO
39
0
10
48
20
-252.5
30
0
40
6
1
Designation1
50
0
41
1
51
0
7
TextElementIO
71
0
72
0
11
48
21
-252.5
31
0
210
0
220
0
230
1
100
AcDbAttribute
2
DESIGNATION
70
0
73
0
74
2
0
ATTRIB
5
10C
100
AcDbEntity
100
AcDbText
8
IO
39
0
10
48
20
-267.5
30
0
40
6
1
Description1
50
0
41
1
51
0
7
TextElementIO
71
0
72
0
11
48
21
-267.5
31
0
210
0
220
0
230
1
100
AcDbAttribute
2
DESCRIPTION
70
0
73
0
74
2
0
ATTRIB
5
10D
100
AcDbEntity
100
AcDbText
8
IO
39
0
10
258
20
-252.5
30
0
40
6
1
Signal1
50
0
41
1
51
0
7
TextElementIO
71
0
72
0
11
258
21
-252.5
31
0
210
0
220
0
230
1
100
AcDbAttribute
2
SIGNAL
70
0
73
0
74
2
0
ATTRIB
5
10E
100
AcDbEntity
100
AcDbText
8
IO
39
0
10
258
20
-267.5
30
0
40
6
1
Condition1
50
0
41
1
51
0
7
TextElementIO
71
0
72
0
11
258
21
-267.5
31
0
210
0
220
0
230
1
100
AcDbAttribute
2
CONDITION
70
0
73
0
74
2
0
SEQEND
5
10F
100
AcDbEntity
8
IO
0
INSERT
5
110
100
AcDbEntity
100
AcDbBlockReference
2
OUTPUT
8
IO
10
930
20
-245
30
0
66
1
0
ATTRIB
5
111
100
AcDbEntity
100
AcDbText
8
IO
39
0
10
1218
20
-275
30
0
40
6
1
0
50
0
41
1
51
0
7
TextElementIO
71
0
72
0
11
1218
21
-275
31
0
210
0
220
0
230
1
100
AcDbAttribute
2
ID
70
1
73
0
74
2
0
ATTRIB
5
112
100
AcDbEntity
100
AcDbText
8
IO
39
0
10
1218
20
-245
30
0
40
6
1
2
50
0
41
1
51
0
7
TextElementIO
71
0
72
0
11
1218
21
-245
31
0
210
0
220
0
230
1
100
AcDbAttribute
2
TAGID
70
1
73
0
74
2
0
ATTRIB
5
113
100
AcDbEntity
100
AcDbText
8
IO
39
0
10
933
20
-252.5
30
0
40
6
1
Designation2
50
0
41
1
51
0
7
TextElementIO
71
0
72
0
11
933
21
-252.5
31
0
210
0
220
0
230
1
100
AcDbAttribute
2
DESIGNATION
70
0
73
0
74
2
0
ATTRIB
5
114
100
AcDbEntity
100
AcDbText
8
IO
39
0
10
933
20
-267.5
30
0
40
6
1
Description2
50
0
41
1
51
0
7
TextElementIO
71
0
72
0
11
933
21
-267.5
31
0
210
0
220
0
230
1
100
AcDbAttribute
2
DESCRIPTION
70
0
73
0
74
2
0
ATTRIB
5
115
100
AcDbEntity
100
AcDbText
8
IO
39
0
10
1143
20
-252.5
30
0
40
6
1
Signal2
50
0
41
1
51
0
7
TextElementIO
71
0
72
0
11
1143
21
-252.5
31
0
210
0
220
0
230
1
100
AcDbAttribute
2
SIGNAL
70
0
73
0
74
2
0
ATTRIB
5
116
100
AcDbEntity
100
AcDbText
8
IO
39
0
10
1143
20
-267.5
30
0
40
6
1
Condition2
50
0
41
1
51
0
7
TextElementIO
71
0
72
0
11
1143
21
-267.5
31
0
210
0
220
0
230
1
100
AcDbAttribute
2
CONDITION
70
0
73
0
74
2
0
SEQEND
5
117
100
AcDbEntity
8
IO
0
INSERT
5
118
100
AcDbEntity
100
AcDbBlockReference
2
ANDGATE
8
ELEMENTS
10
480
20
-245
30
0
66
1
0
ATTRIB
5
119
100
AcDbEntity
100
AcDbText
8
ELEMENTS
39
0
10
510
20
-275
30
0
40
10
1
0
50
0
41
1
51
0
7
TextElementGate
71
0
72
1
11
510
21
-275
31
0
210
0
220
0
230
1
100
AcDbAttribute
2
ID
70
1
73
0
74
2
0
ATTRIB
5
11A
100
AcDbEntity
100
AcDbText
8
ELEMENTS
39
0
10
495
20
-260
30
0
40
10
1
&
50
0
41
1
51
0
7
TextElementGate
71
0
72
1
11
495
21
-260
31
0
210
0
220
0
230
1
100
AcDbAttribute
2
TEXT
70
0
73
0
74
2
0
SEQEND
5
11B
100
AcDbEntity
8
ELEMENTS
0
LINE
5
11C
100
AcDbEntity
100
AcDbLine
8
WIRES
62
256
39
0
10
480
20
-200
30
0
11
495
21
-200
31
0
210
0
220
0
230
1
0
LINE
5
11D
100
AcDbEntity
100
AcDbLine
8
WIRES
62
256
39
0
10
495
20
-200
30
0
11
495
21
-245
31
0
210
0
220
0
230
1
0
LINE
5
11E
100
AcDbEntity
100
AcDbLine
8
WIRES
62
256
39
0
10
465
20
-260
30
0
11
480
21
-260
31
0
210
0
220
0
230
1
0
LINE
5
11F
100
AcDbEntity
100
AcDbLine
8
WIRES
62
256
39
0
10
510
20
-260
30
0
11
930
21
-260
31
0
210
0
220
0
230
1
0
INSERT
5
120
100
AcDbEntity
100
AcDbBlockReference
2
INPUT
8
IO
10
45
20
-395
30
0
66
1
0
ATTRIB
5
121
100
AcDbEntity
100
AcDbText
8
IO
39
0
10
333
20
-425
30
0
40
6
1
2
50
0
41
1
51
0
7
TextElementIO
71
0
72
0
11
333
21
-425
31
0
210
0
220
0
230
1
100
AcDbAttribute
2
ID
70
1
73
0
74
2
0
ATTRIB
5
122
100
AcDbEntity
100
AcDbText
8
IO
39
0
10
333
20
-395
30
0
40
6
1
3
50
0
41
1
51
0
7
TextElementIO
71
0
72
0
11
333
21
-395
31
0
210
0
220
0
230
1
100
AcDbAttribute
2
TAGID
70
1
73
0
74
2
0
ATTRIB
5
123
100
AcDbEntity
100
AcDbText
8
IO
39
0
10
48
20
-402.5
30
0
40
6
1
Designation3
50
0
41
1
51
0
7
TextElementIO
71
0
72
0
11
48
21
-402.5
31
0
210
0
220
0
230
1
100
AcDbAttribute
2
DESIGNATION
70
0
73
0
74
2
0
ATTRIB
5
124
100
AcDbEntity
100
AcDbText
8
IO
39
0
10
48
20
-417.5
30
0
40
6
1
Description3
50
0
41
1
51
0
7
TextElementIO
71
0
72
0
11
48
21
-417.5
31
0
210
0
220
0
230
1
100
AcDbAttribute
2
DESCRIPTION
70
0
73
0
74
2
0
ATTRIB
5
125
100
AcDbEntity
100
AcDbText
8
IO
39
0
10
258
20
-402.5
30
0
40
6
1
Signal3
50
0
41
1
51
0
7
TextElementIO
71
0
72
0
11
258
21
-402.5
31
0
210
0
220
0
230
1
100
AcDbAttribute
2
SIGNAL
70
0
73
0
74
2
0
ATTRIB
5
126
100
AcDbEntity
100
AcDbText
8
IO
39
0
10
258
20
-417.5
30
0
40
6
1
Condition3
50
0
41
1
51
0
7
TextElementIO
71
0
72
0
11
258
21
-417.5
31
0
210
0
220
0
230
1
100
AcDbAttribute
2
CONDITION
70
0
73
0
74
2
0
SEQEND
5
127
100
AcDbEntity
8
IO
0
INSERT
5
128
100
AcDbEntity
100
AcDbBlockReference
2
INPUT
8
IO
10
45
20
-455
30
0
66
1
0
ATTRIB
5
129
100
AcDbEntity
100
AcDbText
8
IO
39
0
10
333
20
-485
30
0
40
6
1
3
50
0
41
1
51
0
7
TextElementIO
71
0
72
0
11
333
21
-485
31
0
210
0
220
0
230
1
100
AcDbAttribute
2
ID
70
1
73
0
74
2
0
ATTRIB
5
12A
100
AcDbEntity
100
AcDbText
8
IO
39
0
10
333
20
-455
30
0
40
6
1
4
50
0
41
1
51
0
7
TextElementIO
71
0
72
0
11
333
21
-455
31
0
210
0
220
0
230
1
100
AcDbAttribute
2
TAGID
70
1
73
0
74
2
0
ATTRIB
5
12B
100
AcDbEntity
100
AcDbText
8
IO
39
0
10
48
20
-462.5
30
0
40
6
1
Designation4
50
0
41
1
51
0
7
TextElementIO
71
0
72
0
11
48
21
-462.5
31
0
210
0
220
0
230
1
100
AcDbAttribute
2
DESIGNATION
70
0
73
0
74
2
0
ATTRIB
5
12C
100
AcDbEntity
100
AcDbText
8
IO
39
0
10
48
20
-477.5
30
0
40
6
1
Description4
50
0
41
1
51
0
7
TextElementIO
71
0
72
0
11
48
21
-477.5
31
0
210
0
220
0
230
1
100
AcDbAttribute
2
DESCRIPTION
70
0
73
0
74
2
0
ATTRIB
5
12D
100
AcDbEntity
100
AcDbText
8
IO
39
0
10
258
20
-462.5
30
0
40
6
1
Signal4
50
0
41
1
51
0
7
TextElementIO
71
0
72
0
11
258
21
-462.5
31
0
210
0
220
0
230
1
100
AcDbAttribute
2
SIGNAL
70
0
73
0
74
2
0
ATTRIB
5
12E
100
AcDbEntity
100
AcDbText
8
IO
39
0
10
258
20
-477.5
30
0
40
6
1
Condition4
50
0
41
1
51
0
7
TextElementIO
71
0
72
0
11
258
21
-477.5
31
0
210
0
220
0
230
1
100
AcDbAttribute
2
CONDITION
70
0
73
0
74
2
0
SEQEND
5
12F
100
AcDbEntity
8
IO
0
INSERT
5
130
100
AcDbEntity
100
AcDbBlockReference
2
OUTPUT
8
IO
10
930
20
-455
30
0
66
1
0
ATTRIB
5
131
100
AcDbEntity
100
AcDbText
8
IO
39
0
10
1218
20
-485
30
0
40
6
1
1
50
0
41
1
51
0
7
TextElementIO
71
0
72
0
11
1218
21
-485
31
0
210
0
220
0
230
1
100
AcDbAttribute
2
ID
70
1
73
0
74
2
0
ATTRIB
5
132
100
AcDbEntity
100
AcDbText
8
IO
39
0
10
1218
20
-455
30
0
40
6
1
5
50
0
41
1
51
0
7
TextElementIO
71
0
72
0
11
1218
21
-455
31
0
210
0
220
0
230
1
100
AcDbAttribute
2
TAGID
70
1
73
0
74
2
0
ATTRIB
5
133
100
AcDbEntity
100
AcDbText
8
IO
39
0
10
933
20
-462.5
30
0
40
6
1
Designation5
50
0
41
1
51
0
7
TextElementIO
71
0
72
0
11
933
21
-462.5
31
0
210
0
220
0
230
1
100
AcDbAttribute
2
DESIGNATION
70
0
73
0
74
2
0
ATTRIB
5
134
100
AcDbEntity
100
AcDbText
8
IO
39
0
10
933
20
-477.5
30
0
40
6
1
Description5
50
0
41
1
51
0
7
TextElementIO
71
0
72
0
11
933
21
-477.5
31
0
210
0
220
0
230
1
100
AcDbAttribute
2
DESCRIPTION
70
0
73
0
74
2
0
ATTRIB
5
135
100
AcDbEntity
100
AcDbText
8
IO
39
0
10
1143
20
-462.5
30
0
40
6
1
Signal5
50
0
41
1
51
0
7
TextElementIO
71
0
72
0
11
1143
21
-462.5
31
0
210
0
220
0
230
1
100
AcDbAttribute
2
SIGNAL
70
0
73
0
74
2
0
ATTRIB
5
136
100
AcDbEntity
100
AcDbText
8
IO
39
0
10
1143
20
-477.5
30
0
40
6
1
Condition5
50
0
41
1
51
0
7
TextElementIO
71
0
72
0
11
1143
21
-477.5
31
0
210
0
220
0
230
1
100
AcDbAttribute
2
CONDITION
70
0
73
0
74
2
0
SEQEND
5
137
100
AcDbEntity
8
IO
0
INSERT
5
138
100
AcDbEntity
100
AcDbBlockReference
2
ORGATE
8
ELEMENTS
10
480
20
-455
30
0
66
1
0
ATTRIB
5
139
100
AcDbEntity
100
AcDbText
8
ELEMENTS
39
0
10
510
20
-485
30
0
40
10
1
0
50
0
41
1
51
0
7
TextElementGate
71
0
72
1
11
510
21
-485
31
0
210
0
220
0
230
1
100
AcDbAttribute
2
ID
70
1
73
0
74
2
0
ATTRIB
5
13A
100
AcDbEntity
100
AcDbText
8
ELEMENTS
39
0
10
495
20
-470
30
0
40
10
1
\U+22651
50
0
41
1
51
0
7
TextElementGate
71
0
72
1
11
495
21
-470
31
0
210
0
220
0
230
1
100
AcDbAttribute
2
TEXT
70
0
73
0
74
2
0
SEQEND
5
13B
100
AcDbEntity
8
ELEMENTS
0
LINE
5
13C
100
AcDbEntity
100
AcDbLine
8
WIRES
62
256
39
0
10
480
20
-410
30
0
11
495
21
-410
31
0
210
0
220
0
230
1
0
LINE
5
13D
100
AcDbEntity
100
AcDbLine
8
WIRES
62
256
39
0
10
495
20
-410
30
0
11
495
21
-455
31
0
210
0
220
0
230
1
0
LINE
5
13E
100
AcDbEntity
100
AcDbLine
8
WIRES
62
256
39
0
10
465
20
-470
30
0
11
480
21
-470
31
0
210
0
220
0
230
1
0
LINE
5
13F
100
AcDbEntity
100
AcDbLine
8
WIRES
62
256
39
0
10
510
20
-470
30
0
11
930
21
-470
31
0
210
0
220
0
230
1
0
ENDSEC
0
SECTION
2
OBJECTS
0
DICTIONARY
5
141
330
0
100
AcDbDictionary
280
0
281
1
3
ACAD_GROUP
350
142
0
DICTIONARY
5
142
330
141
100
AcDbDictionary
280
0
281
1
0
ENDSEC
0
EOF
